GeoramaSemiCondensed-SemiBoldItalic.ufo
<glyph name="exclam" format="2">
  <advance width="196.43"/>
  <unicode hex="0021"/>
  <outline>
    <contour>
      <point x="46.53999999999999" y="261.25" type="line"/>
      <point x="142.42000000000002" y="261.25" type="line"/>
      <point x="228.53" y="740.0" type="line"/>
      <point x="116.7" y="740.0" type="line"/>
    </contour>
    <contour>
      <point x="1.0299999999999985" y="42.67" type="curve" smooth="yes"/>
      <point x="0.5799999999999992" y="10.050000000000002"/>
      <point x="15.600000000000001" y="-5.5"/>
      <point x="53.02" y="-5.5" type="curve" smooth="yes"/>
      <point x="108.91000000000001" y="-5.5"/>
      <point x="127.59" y="40.71"/>
      <point x="128.94" y="90.22" type="curve" smooth="yes"/>
      <point x="129.39000000000001" y="123.20000000000002"/>
      <point x="113.65" y="138.39000000000001"/>
      <point x="76.7" y="138.39000000000001" type="curve" smooth="yes"/>
      <point x="21.86" y="138.39000000000001"/>
      <point x="2.379999999999998" y="92.51"/>
    </contour>
  </outline>
</glyph>
<glyph name="numbersign" format="2">
  <advance width="483.36"/>
  <unicode hex="0023"/>
  <outline>
    <contour>
      <point x="95.57999999999998" y="434.58" type="line"/>
      <point x="154.01999999999998" y="434.58" type="line"/>
      <point x="105.12" y="260.41" type="line"/>
      <point x="48.31" y="260.41" type="line"/>
      <point x="32.72" y="164.62" type="line"/>
      <point x="82.22999999999999" y="164.62" type="line"/>
      <point x="38.370000000000005" y="0.0" type="line"/>
      <point x="128.36" y="0.0" type="line"/>
      <point x="171.76999999999998" y="164.62" type="line"/>
      <point x="241.43000000000004" y="164.62" type="line"/>
      <point x="198.02" y="0.0" type="line"/>
      <point x="287.21" y="0.0" type="line"/>
      <point x="330.62" y="164.62" type="line"/>
      <point x="396.42" y="164.62" type="line"/>
      <point x="411.54" y="260.41" type="line"/>
      <point x="353.82" y="260.41" type="line"/>
      <point x="402.41" y="434.58" type="line"/>
      <point x="458.81" y="434.58" type="line"/>
      <point x="474.56999999999994" y="531.03" type="line"/>
      <point x="425.39" y="531.03" type="line"/>
      <point x="470.62" y="700.0" type="line"/>
      <point x="380.99000000000007" y="700.0" type="line"/>
      <point x="335.76000000000005" y="531.03" type="line"/>
      <point x="266.1" y="531.03" type="line"/>
      <point x="311.33" y="700.0" type="line"/>
      <point x="222.14000000000001" y="700.0" type="line"/>
      <point x="176.91" y="531.03" type="line"/>
      <point x="111.22999999999999" y="531.03" type="line"/>
    </contour>
    <contour>
      <point x="243.21000000000004" y="434.58" type="line"/>
      <point x="312.87" y="434.58" type="line"/>
      <point x="264.40999999999997" y="260.41" type="line"/>
      <point x="194.75" y="260.41" type="line"/>
    </contour>
  </outline>
</glyph>
<glyph name="dollar" format="2">
  <advance width="483.36"/>
  <unicode hex="0024"/>
  <outline>
    <contour>
      <point x="468.28000000000003" y="679.98" type="line"/>
      <point x="444.84999999999997" y="691.16"/>
      <point x="406.08" y="703.74"/>
      <point x="357.70000000000005" y="708.0300000000001" type="curve"/>
      <point x="372.90000000000003" y="804.12" type="line"/>
      <point x="280.2" y="804.12" type="line"/>
      <point x="263.41" y="701.8299999999999" type="line"/>
      <point x="157.31" y="683.7099999999999"/>
      <point x="88.32" y="601.96"/>
      <point x="88.32" y="501.75999999999993" type="curve" smooth="yes"/>
      <point x="88.32" y="321.67999999999995"/>
      <point x="305.3" y="291.52000000000004"/>
      <point x="305.3" y="190.43" type="curve" smooth="yes"/>
      <point x="305.3" y="132.04"/>
      <point x="257.06" y="92.97"/>
      <point x="193.41000000000003" y="92.97" type="curve" smooth="yes"/>
      <point x="140.39000000000001" y="92.97"/>
      <point x="84.69" y="105.83000000000001"/>
      <point x="41.74" y="124.89999999999999" type="curve"/>
      <point x="4.260000000000001" y="26.85" type="line"/>
      <point x="38.19" y="10.96"/>
      <point x="89.08" y="-3.969999999999999"/>
      <point x="140.70999999999998" y="-7.25" type="curve"/>
      <point x="125.70999999999998" y="-105.0" type="line"/>
      <point x="218.3" y="-105.0" type="line"/>
      <point x="233.3" y="-5.02" type="line"/>
      <point x="346.40000000000003" y="12.77"/>
      <point x="419.58" y="96.08000000000001"/>
      <point x="419.58" y="198.98000000000002" type="curve" smooth="yes"/>
      <point x="419.58" y="378.13000000000005"/>
      <point x="205.58" y="403.01"/>
      <point x="205.58" y="506.58000000000004" type="curve" smooth="yes"/>
      <point x="205.58" y="560.72"/>
      <point x="251.76" y="603.6899999999999"/>
      <point x="313.35" y="603.6899999999999" type="curve" smooth="yes"/>
      <point x="354.69999999999993" y="603.6899999999999"/>
      <point x="393.63" y="596.7799999999999"/>
      <point x="431.96000000000004" y="581.0200000000001" type="curve"/>
    </contour>
  </outline>
</glyph>
<glyph name="ampersand" format="2">
  <advance width="551.9"/>
  <unicode hex="0026"/>
  <outline>
    <contour>
      <point x="220.72" y="-10.0" type="curve" smooth="yes"/>
      <point x="378.24" y="-10.0"/>
      <point x="490.58" y="139.50000000000003"/>
      <point x="469.0" y="296.47999999999996" type="curve"/>
      <point x="379.7" y="291.18" type="line"/>
      <point x="409.02000000000004" y="188.02000000000004"/>
      <point x="321.84000000000003" y="87.76000000000002"/>
      <point x="236.5" y="87.76000000000002" type="curve" smooth="yes"/>
      <point x="161.9" y="87.76000000000002"/>
      <point x="123.92000000000002" y="128.48"/>
      <point x="123.92000000000002" y="192.42000000000002" type="curve" smooth="yes"/>
      <point x="123.92000000000002" y="292.22"/>
      <point x="193.85999999999999" y="366.86"/>
      <point x="284.22" y="366.86" type="curve" smooth="yes"/>
      <point x="305.08000000000004" y="366.86" type="line"/>
      <point x="322.44000000000005" y="441.17999999999995" type="line"/>
      <point x="307.46" y="443.35999999999996" type="line" smooth="yes"/>
      <point x="252.20000000000002" y="448.31999999999994"/>
      <point x="223.84" y="477.32"/>
      <point x="223.84" y="527.56" type="curve" smooth="yes"/>
      <point x="223.84" y="578.0000000000001"/>
      <point x="259.91999999999996" y="616.48"/>
      <point x="309.29999999999995" y="616.48" type="curve" smooth="yes"/>
      <point x="340.32000000000005" y="616.48"/>
      <point x="367.44" y="607.78"/>
      <point x="395.3" y="586.2800000000001" type="curve"/>
      <point x="447.92" y="666.8400000000001" type="line"/>
      <point x="404.88" y="695.0200000000001"/>
      <point x="357.40000000000003" y="710.0"/>
      <point x="299.20000000000005" y="710.0" type="curve" smooth="yes"/>
      <point x="186.96" y="710.0"/>
      <point x="116.85999999999999" y="631.5400000000001"/>
      <point x="116.85999999999999" y="541.5600000000001" type="curve" smooth="yes"/>
      <point x="116.85999999999999" y="482.23999999999995"/>
      <point x="144.81999999999996" y="438.14"/>
      <point x="196.68000000000004" y="412.21999999999997" type="curve"/>
      <point x="90.67999999999999" y="388.3999999999999"/>
      <point x="14.52" y="303.42"/>
      <point x="14.52" y="172.92000000000002" type="curve" smooth="yes"/>
      <point x="14.52" y="65.96000000000001"/>
      <point x="82.94" y="-10.0"/>
    </contour>
    <contour>
      <point x="319.7200000000001" y="230.58" type="line"/>
      <point x="323.22" y="260.64000000000004"/>
      <point x="337.8" y="276.15999999999997"/>
      <point x="363.7" y="276.15999999999997" type="curve" smooth="yes"/>
      <point x="402.76000000000005" y="276.15999999999997"/>
      <point x="434.72" y="267.38"/>
      <point x="472.58" y="267.38" type="curve" smooth="yes"/>
      <point x="532.42" y="267.38"/>
      <point x="571.68" y="323.65999999999997"/>
      <point x="564.8" y="387.04" type="curve"/>
      <point x="496.50000000000006" y="390.28000000000003" type="line"/>
      <point x="493.08" y="347.88"/>
      <point x="472.28000000000003" y="338.06"/>
      <point x="433.88000000000005" y="338.06" type="curve" smooth="yes"/>
      <point x="405.4" y="338.06"/>
      <point x="380.58000000000004" y="347.96000000000004"/>
      <point x="350.66" y="347.96000000000004" type="curve" smooth="yes"/>
      <point x="285.64000000000004" y="347.96000000000004"/>
      <point x="256.58" y="299.76"/>
      <point x="251.64000000000001" y="245.42000000000002" type="curve"/>
    </contour>
  </outline>
</glyph>
<glyph name="quotesingle" format="2">
  <advance width="170.43"/>
  <unicode hex="0027"/>
  <outline>
    <contour>
      <point x="62.62" y="427.0" type="line"/>
      <point x="153.39" y="427.0" type="line"/>
      <point x="203.69" y="700.0" type="line"/>
      <point x="100.74" y="700.0" type="line"/>
    </contour>
  </outline>
</glyph>
<glyph name="parenleft" format="2">
  <advance width="259.88"/>
  <unicode hex="0028"/>
  <outline>
    <contour>
      <point x="28.980000000000004" y="39.4" type="curve" smooth="yes"/>
      <point x="28.980000000000004" y="-101.26"/>
      <point x="69.17999999999999" y="-198.91000000000003"/>
      <point x="162.09" y="-220.0" type="curve"/>
      <point x="181.78" y="-125.49999999999999" type="line"/>
      <point x="141.51" y="-105.99"/>
      <point x="118.68" y="-50.22999999999999"/>
      <point x="118.68" y="44.47" type="curve" smooth="yes"/>
      <point x="118.68" y="199.84"/>
      <point x="190.2" y="621.01"/>
      <point x="304.74" y="653.18" type="curve"/>
      <point x="316.35" y="749.64" type="line"/>
      <point x="110.39" y="715.84"/>
      <point x="28.980000000000004" y="276.89000000000004"/>
    </contour>
  </outline>
</glyph>
<glyph name="parenright" format="2">
  <advance width="259.88"/>
  <unicode hex="0029"/>
  <outline>
    <contour>
      <point x="228.15" y="490.42" type="curve" smooth="yes"/>
      <point x="228.15" y="632.17"/>
      <point x="188.13" y="728.91"/>
      <point x="95.13" y="750.0" type="curve"/>
      <point x="76.16" y="653.6899999999999" type="line"/>
      <point x="118.05" y="631.8399999999999"/>
      <point x="138.45000000000002" y="577.97"/>
      <point x="138.45000000000002" y="489.48" type="curve" smooth="yes"/>
      <point x="138.45000000000002" y="332.04"/>
      <point x="67.2" y="-91.36999999999999"/>
      <point x="-48.15" y="-123.72" type="curve"/>
      <point x="-59.4" y="-220.0" type="line"/>
      <point x="142.51" y="-183.79"/>
      <point x="228.15" y="250.34000000000003"/>
    </contour>
  </outline>
</glyph>
<glyph name="asterisk" format="2">
  <advance width="299.46"/>
  <unicode hex="002A"/>
  <outline>
    <contour>
      <point x="107.44" y="390.25" type="line"/>
      <point x="181.17" y="475.41" type="line"/>
      <point x="226.62" y="390.61" type="line"/>
      <point x="274.22" y="422.43" type="line"/>
      <point x="239.72" y="518.14" type="line"/>
      <point x="333.37999999999994" y="562.3399999999999" type="line"/>
      <point x="325.18000000000006" y="615.21" type="line"/>
      <point x="231.55" y="586.7099999999999" type="line"/>
      <point x="243.15" y="698.04" type="line"/>
      <point x="190.12000000000003" y="698.04" type="line"/>
      <point x="165.76" y="587.07" type="line"/>
      <point x="82.16" y="615.57" type="line"/>
      <point x="57.07000000000001" y="563.06" type="line"/>
      <point x="134.33999999999997" y="518.86" type="line"/>
      <point x="69.56" y="422.61" type="line"/>
    </contour>
  </outline>
</glyph>
<glyph name="plus" format="2">
  <advance width="420.38"/>
  <unicode hex="002B"/>
  <outline>
    <contour>
      <point x="136.28" y="113.69000000000001" type="line"/>
      <point x="233.51" y="113.69000000000001" type="line"/>
      <point x="256.63" y="259.84000000000003" type="line"/>
      <point x="373.07" y="259.84000000000003" type="line"/>
      <point x="389.16" y="361.25" type="line"/>
      <point x="272.71999999999997" y="361.25" type="line"/>
      <point x="296.03999999999996" y="507.65" type="line"/>
      <point x="199.02999999999997" y="507.65" type="line"/>
      <point x="175.49" y="361.25" type="line"/>
      <point x="59.019999999999996" y="361.25" type="line"/>
      <point x="42.93" y="259.84000000000003" type="line"/>
      <point x="159.62" y="259.84000000000003" type="line"/>
    </contour>
  </outline>
</glyph>
<glyph name="comma" format="2">
  <advance width="176.16"/>
  <unicode hex="002C"/>
  <outline>
    <contour>
      <point x="4.79" y="75.80999999999999" type="line"/>
      <point x="4.96" y="52.25"/>
      <point x="2.939999999999999" y="30.330000000000002"/>
      <point x="1.1799999999999986" y="16.360000000000003" type="curve" smooth="yes"/>
      <point x="-4.32" y="-43.23"/>
      <point x="-39.16" y="-124.16"/>
      <point x="-78.94000000000001" y="-165.66" type="curve"/>
      <point x="-2.0999999999999943" y="-190.96" type="line"/>
      <point x="67.9" y="-124.97999999999999"/>
      <point x="108.25" y="-31.56"/>
      <point x="108.25" y="44.910000000000004" type="curve" smooth="yes"/>
      <point x="108.25" y="56.89000000000001"/>
      <point x="107.43000000000002" y="67.98"/>
      <point x="105.93" y="79.69000000000001" type="curve"/>
    </contour>
  </outline>
</glyph>
<glyph name="hyphen" format="2">
  <advance width="285.24"/>
  <unicode hex="002D"/>
  <outline>
    <contour>
      <point x="27.350000000000005" y="240.53000000000003" type="line"/>
      <point x="246.35999999999999" y="240.53000000000003" type="line"/>
      <point x="264.57" y="348.52" type="line"/>
      <point x="45.559999999999995" y="348.52" type="line"/>
    </contour>
  </outline>
</glyph>
<glyph name="period" format="2">
  <advance width="177.59"/>
  <unicode hex="002E"/>
  <outline>
    <contour>
      <point x="-7.910000000000001" y="43.99" type="curve" smooth="yes"/>
      <point x="-8.36" y="10.930000000000001"/>
      <point x="6.220000000000002" y="-4.180000000000001"/>
      <point x="44.080000000000005" y="-4.180000000000001" type="curve" smooth="yes"/>
      <point x="99.97" y="-4.180000000000001"/>
      <point x="118.21000000000001" y="42.03"/>
      <point x="119.56000000000002" y="92.42" type="curve" smooth="yes"/>
      <point x="120.01" y="124.96000000000001"/>
      <point x="104.71000000000001" y="139.70999999999998"/>
      <point x="67.76" y="139.70999999999998" type="curve" smooth="yes"/>
      <point x="12.48" y="139.70999999999998"/>
      <point x="-6.560000000000001" y="93.83"/>
    </contour>
  </outline>
</glyph>
<glyph name="slash" format="2">
  <advance width="336.15"/>
  <unicode hex="002F"/>
  <outline>
    <contour>
      <point x="-75.44" y="-210.0" type="line"/>
      <point x="17.610000000000007" y="-210.0" type="line"/>
      <point x="408.59" y="740.0" type="line"/>
      <point x="314.55" y="740.0" type="line"/>
    </contour>
  </outline>
</glyph>
<glyph name="zero" format="2">
  <advance width="483.9"/>
  <unicode hex="0030"/>
  <outline>
    <contour>
      <point x="206.5" y="-10.9" type="curve" smooth="yes"/>
      <point x="395.65" y="-10.9"/>
      <point x="478.35" y="267.19999999999993"/>
      <point x="478.35" y="493.2" type="curve" smooth="yes"/>
      <point x="478.35" y="639.25"/>
      <point x="425.40000000000003" y="710.45"/>
      <point x="301.3" y="710.45" type="curve" smooth="yes"/>
      <point x="108.60000000000002" y="710.45"/>
      <point x="29.0" y="431.00000000000006"/>
      <point x="29.0" y="207.70000000000002" type="curve" smooth="yes"/>
      <point x="29.0" y="62.099999999999994"/>
      <point x="82.39999999999999" y="-10.9"/>
    </contour>
    <contour>
      <point x="216.4" y="94.25000000000001" type="curve" smooth="yes"/>
      <point x="161.05" y="94.25000000000001"/>
      <point x="142.10000000000002" y="134.3"/>
      <point x="142.55" y="206.95" type="curve" smooth="yes"/>
      <point x="143.00000000000003" y="346.19999999999993"/>
      <point x="192.85000000000002" y="605.75"/>
      <point x="291.65000000000003" y="605.75" type="curve" smooth="yes"/>
      <point x="346.9" y="605.75"/>
      <point x="365.35" y="566.5500000000001"/>
      <point x="364.90000000000003" y="494.05" type="curve" smooth="yes"/>
      <point x="364.45" y="356.1"/>
      <point x="314.0" y="94.25000000000001"/>
    </contour>
  </outline>
</glyph>
<glyph name="one" format="2">
  <advance width="483.36"/>
  <unicode hex="0031"/>
  <outline>
    <contour>
      <point x="32.720000000000006" y="0.0" type="line"/>
      <point x="394.89" y="0.0" type="line"/>
      <point x="411.31" y="101.31" type="line"/>
      <point x="292.63" y="101.31" type="line"/>
      <point x="388.71" y="700.9" type="line"/>
      <point x="332.83" y="700.9" type="line"/>
      <point x="109.05999999999999" y="599.2199999999999" type="line"/>
      <point x="117.41999999999999" y="488.83" type="line"/>
      <point x="253.65" y="557.79" type="line"/>
      <point x="180.66" y="101.31" type="line"/>
      <point x="48.7" y="101.31" type="line"/>
    </contour>
  </outline>
</glyph>
<glyph name="two" format="2">
  <advance width="483.9"/>
  <unicode hex="0032"/>
  <outline>
    <contour>
      <point x="31.100000000000005" y="81.85000000000002" type="curve"/>
      <point x="20.0" y="0.0" type="line"/>
      <point x="387.40000000000003" y="0.0" type="line"/>
      <point x="403.1000000000001" y="95.3" type="line"/>
      <point x="177.8" y="95.3" type="line"/>
      <point x="333.95" y="290.59999999999997"/>
      <point x="436.19999999999993" y="417.3"/>
      <point x="436.19999999999993" y="558.75" type="curve" smooth="yes"/>
      <point x="436.19999999999993" y="652.7000000000002"/>
      <point x="378.25000000000006" y="710.0"/>
      <point x="290.9" y="710.0" type="curve" smooth="yes"/>
      <point x="224.75000000000003" y="710.0"/>
      <point x="157.64999999999998" y="687.4499999999999"/>
      <point x="106.14999999999999" y="649.4000000000001" type="curve"/>
      <point x="131.65000000000003" y="553.1999999999999" type="line"/>
      <point x="171.9" y="579.85"/>
      <point x="211.14999999999998" y="596.2999999999998"/>
      <point x="249.9" y="596.2999999999998" type="curve" smooth="yes"/>
      <point x="293.44999999999993" y="596.2999999999998"/>
      <point x="318.99999999999994" y="566.75"/>
      <point x="318.99999999999994" y="524.6" type="curve" smooth="yes"/>
      <point x="319.0" y="418.84999999999997"/>
      <point x="207.09999999999997" y="282.25000000000006"/>
    </contour>
  </outline>
</glyph>
<glyph name="three" format="2">
  <advance width="483.9"/>
  <unicode hex="0033"/>
  <outline>
    <contour>
      <point x="-2.4499999999999997" y="41.025" type="line"/>
      <point x="41.55000000000001" y="7.949999999999999"/>
      <point x="97.35" y="-10.0"/>
      <point x="170.575" y="-10.0" type="curve" smooth="yes"/>
      <point x="295.54999999999995" y="-10.0"/>
      <point x="416.625" y="73.9"/>
      <point x="416.625" y="232.625" type="curve" smooth="yes"/>
      <point x="416.625" y="314.475"/>
      <point x="381.375" y="354.175"/>
      <point x="337.00000000000006" y="371.0" type="curve"/>
      <point x="400.625" y="402.975"/>
      <point x="449.02500000000003" y="465.85"/>
      <point x="449.02500000000003" y="560.1750000000001" type="curve" smooth="yes"/>
      <point x="449.02500000000003" y="654.25"/>
      <point x="390.57500000000005" y="710.0"/>
      <point x="280.175" y="710.0" type="curve" smooth="yes"/>
      <point x="218.2" y="710.0"/>
      <point x="152.25" y="694.0749999999999"/>
      <point x="106.6" y="661.925" type="curve"/>
      <point x="128.27499999999998" y="572.625" type="line"/>
      <point x="160.825" y="591.325"/>
      <point x="200.29999999999998" y="602.125"/>
      <point x="243.725" y="602.125" type="curve" smooth="yes"/>
      <point x="300.175" y="602.125"/>
      <point x="334.25" y="570.25"/>
      <point x="334.25" y="518.4250000000001" type="curve" smooth="yes"/>
      <point x="334.25" y="456.4"/>
      <point x="293.79999999999995" y="403.25000000000006"/>
      <point x="225.17499999999998" y="403.25000000000006" type="curve" smooth="yes"/>
      <point x="157.20000000000002" y="403.25000000000006" type="line"/>
      <point x="142.475" y="316.05" type="line"/>
      <point x="221.55" y="316.05" type="line" smooth="yes"/>
      <point x="279.625" y="316.05"/>
      <point x="306.575" y="285.54999999999995"/>
      <point x="306.575" y="233.07500000000002" type="curve" smooth="yes"/>
      <point x="306.575" y="150.20000000000002"/>
      <point x="255.84999999999997" y="95.875"/>
      <point x="173.95" y="95.875" type="curve" smooth="yes"/>
      <point x="123.14999999999999" y="95.875"/>
      <point x="81.475" y="107.475"/>
      <point x="46.925000000000004" y="130.775" type="curve"/>
    </contour>
  </outline>
</glyph>
<glyph name="four" format="2">
  <advance width="483.9"/>
  <unicode hex="0034"/>
  <outline>
    <contour>
      <point x="8.499999999999996" y="132.67499999999998" type="line"/>
      <point x="239.22500000000002" y="132.67499999999998" type="line"/>
      <point x="218.35" y="-0.44999999999999996" type="line"/>
      <point x="334.375" y="-0.44999999999999996" type="line"/>
      <point x="355.24999999999994" y="132.67499999999998" type="line"/>
      <point x="433.05" y="132.67499999999998" type="line"/>
      <point x="447.59999999999997" y="226.55" type="line"/>
      <point x="370.575" y="226.55" type="line"/>
      <point x="446.29999999999995" y="699.3249999999999" type="line"/>
      <point x="335.175" y="701.8" type="line"/>
      <point x="20.250000000000004" y="220.575" type="line"/>
    </contour>
    <contour>
      <point x="111.37499999999999" y="226.55" type="line"/>
      <point x="308.27500000000003" y="533.9000000000001" type="line"/>
      <point x="257.90000000000003" y="226.55" type="line"/>
    </contour>
  </outline>
</glyph>
<glyph name="five" format="2">
  <advance width="483.90000000000003"/>
  <unicode hex="0035"/>
  <outline>
    <contour>
      <point x="5.95" y="38.925" type="line"/>
      <point x="48.0" y="6.100000000000001"/>
      <point x="99.075" y="-10.0"/>
      <point x="171.125" y="-10.0" type="curve" smooth="yes"/>
      <point x="355.175" y="-10.0"/>
      <point x="425.625" y="134.175"/>
      <point x="425.625" y="263.02500000000003" type="curve" smooth="yes"/>
      <point x="425.625" y="362.7"/>
      <point x="378.125" y="411.65"/>
      <point x="284.32500000000005" y="413.40000000000003" type="curve" smooth="yes"/>
      <point x="203.375" y="414.0" type="line"/>
      <point x="244.60000000000002" y="592.9750000000001" type="line"/>
      <point x="453.2" y="592.9750000000001" type="line"/>
      <point x="469.6750000000001" y="700.0" type="line"/>
      <point x="176.7" y="700.0" type="line"/>
      <point x="84.55" y="328.375" type="line"/>
      <point x="91.39999999999999" y="316.875" type="line"/>
      <point x="224.0" y="316.875" type="line" smooth="yes"/>
      <point x="286.2" y="316.875"/>
      <point x="309.95" y="290.22499999999997"/>
      <point x="309.95" y="236.875" type="curve" smooth="yes"/>
      <point x="309.95" y="179.95"/>
      <point x="275.8" y="95.80000000000001"/>
      <point x="171.825" y="95.80000000000001" type="curve" smooth="yes"/>
      <point x="116.72500000000002" y="95.80000000000001"/>
      <point x="75.95" y="114.30000000000001"/>
      <point x="46.7" y="134.05" type="curve"/>
    </contour>
  </outline>
</glyph>
<glyph name="six" format="2">
  <advance width="483.9"/>
  <unicode hex="0036"/>
  <note>
14
</note>
  <outline>
    <contour>
      <point x="223.95000000000002" y="-10.0" type="curve" smooth="yes"/>
      <point x="352.8" y="-10.0"/>
      <point x="446.45000000000005" y="99.20000000000002"/>
      <point x="446.45000000000005" y="276.85" type="curve" smooth="yes"/>
      <point x="446.45000000000005" y="384.50000000000006"/>
      <point x="386.34999999999997" y="438.49999999999994"/>
      <point x="297.95" y="438.49999999999994" type="curve" smooth="yes"/>
      <point x="242.04999999999998" y="438.49999999999994"/>
      <point x="189.5" y="419.2"/>
      <point x="147.15" y="370.70000000000005" type="curve"/>
      <point x="139.55" y="266.55" type="line"/>
      <point x="168.6" y="314.6"/>
      <point x="213.05" y="344.40000000000003"/>
      <point x="258.45" y="344.40000000000003" type="curve" smooth="yes"/>
      <point x="314.29999999999995" y="344.40000000000003"/>
      <point x="337.05" y="313.09999999999997"/>
      <point x="337.05" y="253.90000000000003" type="curve" smooth="yes"/>
      <point x="337.05" y="165.60000000000002"/>
      <point x="291.9" y="89.2"/>
      <point x="231.35000000000002" y="89.2" type="curve" smooth="yes"/>
      <point x="174.60000000000002" y="89.2"/>
      <point x="143.5" y="125.60000000000001"/>
      <point x="143.5" y="199.95" type="curve" smooth="yes"/>
      <point x="143.5" y="302.1"/>
      <point x="166.95" y="403.99999999999994"/>
      <point x="209.75" y="493.4" type="curve" smooth="yes"/>
      <point x="243.80000000000004" y="564.2499999999999"/>
      <point x="291.55000000000007" y="605.8499999999999"/>
      <point x="361.3" y="605.8499999999999" type="curve" smooth="yes"/>
      <point x="394.20000000000005" y="605.8499999999999"/>
      <point x="426.95000000000005" y="595.8000000000001"/>
      <point x="455.65000000000003" y="580.6" type="curve"/>
      <point x="499.0" y="673.6" type="line"/>
      <point x="469.5" y="692.8499999999999"/>
      <point x="417.95" y="710.0"/>
      <point x="356.40000000000003" y="710.0" type="curve" smooth="yes"/>
      <point x="151.20000000000002" y="710.0"/>
      <point x="35.75000000000001" y="483.15"/>
      <point x="35.75000000000001" y="206.4" type="curve" smooth="yes"/>
      <point x="35.75000000000001" y="56.150000000000006"/>
      <point x="103.65" y="-10.0"/>
    </contour>
  </outline>
</glyph>
<glyph name="seven" format="2">
  <advance width="483.36"/>
  <unicode hex="0037"/>
  <note>
9
</note>
  <outline>
    <contour>
      <point x="89.98" y="0.0" type="curve"/>
      <point x="208.12" y="0.0" type="line"/>
      <point x="229.26000000000002" y="120.67999999999999"/>
      <point x="264.12" y="213.9"/>
      <point x="358.56000000000006" y="389.06" type="curve" smooth="yes"/>
      <point x="481.64" y="616.8" type="line"/>
      <point x="494.96" y="700.0" type="line"/>
      <point x="111.94" y="700.0" type="line"/>
      <point x="95.06" y="593.0" type="line"/>
      <point x="353.72" y="593.0" type="line"/>
      <point x="243.5" y="400.78" type="line" smooth="yes"/>
      <point x="154.98" y="246.92000000000002"/>
      <point x="112.30000000000001" y="138.6"/>
    </contour>
  </outline>
</glyph>
<glyph name="eight" format="2">
  <advance width="487.0"/>
  <unicode hex="0038"/>
  <outline>
    <contour>
      <point x="217.05" y="-10.0" type="curve" smooth="yes"/>
      <point x="352.54999999999995" y="-10.0"/>
      <point x="440.85" y="63.29999999999998"/>
      <point x="440.85" y="203.54999999999998" type="curve" smooth="yes"/>
      <point x="440.85" y="402.75"/>
      <point x="194.0" y="389.0"/>
      <point x="194.0" y="531.3000000000001" type="curve" smooth="yes"/>
      <point x="194.0" y="580.5000000000001"/>
      <point x="229.5" y="612.3"/>
      <point x="290.55" y="612.3" type="curve" smooth="yes"/>
      <point x="348.3" y="612.3"/>
      <point x="369.8" y="581.5"/>
      <point x="369.8" y="536.1999999999999" type="curve" smooth="yes"/>
      <point x="369.8" y="471.8"/>
      <point x="331.95" y="432.34999999999997"/>
      <point x="280.34999999999997" y="400.6" type="curve"/>
      <point x="341.70000000000005" y="353.55" type="line"/>
      <point x="417.0" y="397.6"/>
      <point x="473.1" y="461.7"/>
      <point x="473.1" y="559.2500000000001" type="curve" smooth="yes"/>
      <point x="473.1" y="641.9"/>
      <point x="423.7" y="710.0"/>
      <point x="295.45" y="710.0" type="curve" smooth="yes"/>
      <point x="164.59999999999997" y="710.0"/>
      <point x="86.3" y="636.2500000000001"/>
      <point x="86.3" y="518.75" type="curve" smooth="yes"/>
      <point x="86.3" y="307.59999999999997"/>
      <point x="330.15" y="339.45"/>
      <point x="330.15" y="186.8" type="curve" smooth="yes"/>
      <point x="330.15" y="119.0"/>
      <point x="288.5" y="83.4"/>
      <point x="224.95000000000002" y="83.4" type="curve" smooth="yes"/>
      <point x="157.15" y="83.4"/>
      <point x="125.6" y="117.10000000000001"/>
      <point x="125.6" y="171.15" type="curve" smooth="yes"/>
      <point x="125.6" y="247.8"/>
      <point x="168.8" y="296.4"/>
      <point x="231.55" y="321.99999999999994" type="curve"/>
      <point x="167.09999999999997" y="375.45" type="line"/>
      <point x="75.10000000000001" y="342.35"/>
      <point x="14.75" y="254.59999999999997"/>
      <point x="14.75" y="156.0" type="curve" smooth="yes"/>
      <point x="14.75" y="58.75000000000001"/>
      <point x="72.85" y="-10.0"/>
    </contour>
  </outline>
</glyph>
<glyph name="nine" format="2">
  <advance width="483.9"/>
  <unicode hex="0039"/>
  <outline>
    <contour>
      <point x="285.15000000000003" y="710.0" type="curve" smooth="yes"/>
      <point x="156.50000000000003" y="710.0"/>
      <point x="62.2" y="600.9"/>
      <point x="62.2" y="423.9" type="curve" smooth="yes"/>
      <point x="62.2" y="315.34999999999997"/>
      <point x="121.45" y="261.95"/>
      <point x="209.40000000000003" y="261.95" type="curve" smooth="yes"/>
      <point x="265.75" y="261.95"/>
      <point x="319.59999999999997" y="279.45"/>
      <point x="361.5" y="333.79999999999995" type="curve"/>
      <point x="369.1" y="433.9" type="line"/>
      <point x="340.5" y="385.85"/>
      <point x="295.59999999999997" y="356.05"/>
      <point x="250.20000000000002" y="356.05" type="curve" smooth="yes"/>
      <point x="194.8" y="356.05"/>
      <point x="172.05000000000004" y="386.90000000000003"/>
      <point x="172.05000000000004" y="446.09999999999997" type="curve" smooth="yes"/>
      <point x="172.05000000000004" y="534.85"/>
      <point x="217.20000000000002" y="610.8"/>
      <point x="277.25" y="610.8" type="curve" smooth="yes"/>
      <point x="333.45000000000005" y="610.8"/>
      <point x="365.09999999999997" y="574.35"/>
      <point x="365.09999999999997" y="500.6000000000001" type="curve" smooth="yes"/>
      <point x="365.09999999999997" y="403.35"/>
      <point x="343.7" y="295.0"/>
      <point x="300.44999999999993" y="205.14999999999998" type="curve" smooth="yes"/>
      <point x="266.90000000000003" y="134.25"/>
      <point x="220.15" y="92.65"/>
      <point x="150.8" y="92.65" type="curve" smooth="yes"/>
      <point x="118.35" y="92.65"/>
      <point x="82.15" y="104.2"/>
      <point x="53.0" y="122.1" type="curve"/>
      <point x="9.650000000000002" y="28.649999999999995" type="line"/>
      <point x="40.1" y="7.15"/>
      <point x="93.65" y="-10.0"/>
      <point x="156.35000000000002" y="-10.0" type="curve" smooth="yes"/>
      <point x="357.59999999999997" y="-10.0"/>
      <point x="472.85" y="216.85000000000002"/>
      <point x="472.85" y="494.0499999999999" type="curve" smooth="yes"/>
      <point x="472.85" y="644.3"/>
      <point x="405.00000000000006" y="710.0"/>
    </contour>
  </outline>
</glyph>
<glyph name="less" format="2">
  <advance width="418.63"/>
  <unicode hex="003C"/>
  <outline>
    <contour>
      <point x="353.14" y="88.08" type="line"/>
      <point x="367.91" y="183.8" type="line"/>
      <point x="137.95" y="302.31" type="line"/>
      <point x="406.09" y="421.51000000000005" type="line"/>
      <point x="420.85999999999996" y="517.82" type="line"/>
      <point x="48.74" y="355.77" type="line"/>
      <point x="32.18" y="251.60999999999999" type="line"/>
    </contour>
  </outline>
</glyph>
<glyph name="equal" format="2">
  <advance width="402.37"/>
  <unicode hex="003D"/>
  <outline>
    <contour>
      <point x="351.6" y="244.73999999999998" type="line"/>
      <point x="41.7" y="244.73999999999998" type="line"/>
      <point x="26.49" y="142.97" type="line"/>
      <point x="336.39" y="142.97" type="line"/>
    </contour>
    <contour>
      <point x="384.15000000000003" y="463.55" type="line"/>
      <point x="74.58" y="463.55" type="line"/>
      <point x="59.040000000000006" y="361.78" type="line"/>
      <point x="368.94000000000005" y="361.78" type="line"/>
    </contour>
  </outline>
</glyph>
<glyph name="greater" format="2">
  <advance width="418.63"/>
  <unicode hex="003E"/>
  <outline>
    <contour>
      <point x="378.90000000000003" y="250.53" type="line"/>
      <point x="395.23999999999995" y="353.04" type="line"/>
      <point x="74.58" y="516.0" type="line"/>
      <point x="59.59" y="421.6" type="line"/>
      <point x="290.46" y="302.67" type="line"/>
      <point x="21.990000000000002" y="184.25000000000003" type="line"/>
      <point x="6.749999999999999" y="87.36" type="line"/>
    </contour>
  </outline>
</glyph>
<glyph name="question" format="2">
  <advance width="369.45000000000005"/>
  <unicode hex="003F"/>
  <outline>
    <contour>
      <point x="115.15" y="261.42999999999995" type="line"/>
      <point x="211.02" y="261.42999999999995" type="line"/>
      <point x="222.71" y="331.96" type="line"/>
      <point x="324.28" y="396.21999999999997"/>
      <point x="400.03000000000003" y="467.77000000000004"/>
      <point x="400.03000000000003" y="595.1800000000001" type="curve" smooth="yes"/>
      <point x="400.03000000000003" y="695.2499999999999"/>
      <point x="336.86" y="750.0"/>
      <point x="245.54999999999998" y="750.0" type="curve" smooth="yes"/>
      <point x="188.69" y="750.0"/>
      <point x="123.0" y="728.17"/>
      <point x="74.83999999999999" y="690.4499999999999" type="curve"/>
      <point x="97.3" y="591.48" type="line"/>
      <point x="137.08999999999997" y="619.4199999999998"/>
      <point x="173.54" y="634.8299999999999"/>
      <point x="212.07000000000002" y="634.8299999999999" type="curve" smooth="yes"/>
      <point x="250.20999999999998" y="634.8299999999999"/>
      <point x="280.54999999999995" y="619.16"/>
      <point x="280.54999999999995" y="565.86" type="curve" smooth="yes"/>
      <point x="280.54999999999995" y="487.94"/>
      <point x="236.59" y="439.67999999999995"/>
      <point x="132.56" y="385.92999999999995" type="curve"/>
    </contour>
    <contour>
      <point x="69.61000000000001" y="41.97" type="curve" smooth="yes"/>
      <point x="69.69999999999999" y="9.160000000000002"/>
      <point x="83.83" y="-5.500000000000001"/>
      <point x="120.72" y="-5.500000000000001" type="curve" smooth="yes"/>
      <point x="176.88000000000002" y="-5.500000000000001"/>
      <point x="197.36" y="38.95"/>
      <point x="197.09000000000003" y="89.51" type="curve" smooth="yes"/>
      <point x="197.0" y="123.20000000000002"/>
      <point x="182.14000000000001" y="137.94"/>
      <point x="146.17" y="137.94" type="curve" smooth="yes"/>
      <point x="90.19" y="137.94"/>
      <point x="69.34" y="92.96000000000001"/>
    </contour>
  </outline>
</glyph>
<glyph name="at" format="2">
  <advance width="692.0500000000001"/>
  <unicode hex="0040"/>
  <outline>
    <contour>
      <point x="286.40000000000003" y="-122.95" type="curve" smooth="yes"/>
      <point x="341.15000000000003" y="-122.95"/>
      <point x="409.7" y="-103.75"/>
      <point x="455.75" y="-69.75" type="curve"/>
      <point x="441.1" y="-25.95" type="line"/>
      <point x="394.15" y="-54.599999999999994"/>
      <point x="341.3" y="-69.99999999999999"/>
      <point x="288.79999999999995" y="-69.99999999999999" type="curve" smooth="yes"/>
      <point x="162.9" y="-69.99999999999999"/>
      <point x="77.00000000000001" y="3.500000000000001"/>
      <point x="77.00000000000001" y="169.25" type="curve" smooth="yes"/>
      <point x="77.00000000000001" y="411.90000000000003"/>
      <point x="210.35" y="661.6"/>
      <point x="417.4" y="661.6" type="curve" smooth="yes"/>
      <point x="554.5500000000001" y="661.6"/>
      <point x="628.6" y="591.9000000000001"/>
      <point x="628.6" y="439.1" type="curve" smooth="yes"/>
      <point x="628.6" y="310.6"/>
      <point x="584.65" y="127.04999999999998"/>
      <point x="509.75000000000006" y="127.04999999999998" type="curve" smooth="yes"/>
      <point x="466.79999999999995" y="127.04999999999998"/>
      <point x="466.95" y="176.7"/>
      <point x="478.85" y="226.10000000000002" type="curve" smooth="yes"/>
      <point x="548.8" y="520.4" type="line"/>
      <point x="503.85" y="541.15"/>
      <point x="457.7" y="552.8000000000001"/>
      <point x="407.0" y="552.8000000000001" type="curve" smooth="yes"/>
      <point x="253.8" y="552.8000000000001"/>
      <point x="162.75" y="333.34999999999997"/>
      <point x="162.75" y="173.75" type="curve" smooth="yes"/>
      <point x="162.75" y="96.45"/>
      <point x="199.0" y="58.15"/>
      <point x="259.15000000000003" y="58.15" type="curve" smooth="yes"/>
      <point x="311.3" y="58.15"/>
      <point x="358.45" y="90.9"/>
      <point x="393.0" y="142.14999999999998" type="curve"/>
      <point x="403.2" y="94.8"/>
      <point x="426.95000000000005" y="55.0"/>
      <point x="488.80000000000007" y="55.0" type="curve" smooth="yes"/>
      <point x="614.7" y="55.0"/>
      <point x="685.1000000000001" y="269.69999999999993"/>
      <point x="685.1000000000001" y="448.54999999999995" type="curve" smooth="yes"/>
      <point x="685.1000000000001" y="621.8000000000001"/>
      <point x="580.7" y="714.4"/>
      <point x="428.15000000000003" y="714.4" type="curve" smooth="yes"/>
      <point x="175.90000000000003" y="714.4"/>
      <point x="19.45" y="448.65000000000003"/>
      <point x="19.45" y="156.6" type="curve" smooth="yes"/>
      <point x="19.45" y="-20.899999999999995"/>
      <point x="117.75" y="-122.95"/>
    </contour>
    <contour>
      <point x="308.75" y="155.2" type="curve" smooth="yes"/>
      <point x="282.7" y="155.2"/>
      <point x="268.65000000000003" y="172.29999999999998"/>
      <point x="268.65000000000003" y="204.20000000000002" type="curve" smooth="yes"/>
      <point x="268.65000000000003" y="298.75"/>
      <point x="336.6" y="472.70000000000005"/>
      <point x="397.00000000000006" y="472.70000000000005" type="curve" smooth="yes"/>
      <point x="413.75" y="472.70000000000005"/>
      <point x="427.25" y="469.74999999999994"/>
      <point x="442.5" y="463.35" type="curve"/>
      <point x="387.3" y="232.7" type="line" smooth="yes"/>
      <point x="370.35" y="185.14999999999998"/>
      <point x="337.40000000000003" y="155.2"/>
    </contour>
  </outline>
</glyph>
<glyph name="A" format="2">
  <advance width="476.85499999999996"/>
  <unicode hex="0041"/>
  <anchor x="193.935" y="0.0" name="bottom"/>
  <anchor x="423.18500000000006" y="0.0" name="ogonek"/>
  <anchor x="301.47" y="700.0" name="top"/>
  <outline>
    <contour>
      <point x="-34.33" y="0.0" type="line"/>
      <point x="85.95500000000001" y="0.0" type="line"/>
      <point x="141.14999999999998" y="152.555" type="line"/>
      <point x="295.23499999999996" y="152.555" type="line"/>
      <point x="302.40000000000003" y="0.0" type="line"/>
      <point x="423.18500000000006" y="0.0" type="line"/>
      <point x="380.69000000000005" y="705.6" type="line"/>
      <point x="224.6" y="705.6" type="line"/>
    </contour>
    <contour>
      <point x="172.31999999999996" y="252.63000000000002" type="line"/>
      <point x="287.36" y="601.98" type="line"/>
      <point x="296.545" y="252.63000000000002" type="line"/>
    </contour>
  </outline>
</glyph>
<glyph name="B" format="2">
  <advance width="468.1"/>
  <unicode hex="0042"/>
  <outline>
    <contour>
      <point x="2.66" y="1.0400000000000007" type="line"/>
      <point x="82.92000000000002" y="-7.039999999999999"/>
      <point x="119.44000000000001" y="-10.0"/>
      <point x="185.46" y="-10.0" type="curve" smooth="yes"/>
      <point x="345.63999999999993" y="-10.0"/>
      <point x="440.72" y="101.89999999999999"/>
      <point x="440.72" y="244.98" type="curve" smooth="yes"/>
      <point x="440.72" y="312.38"/>
      <point x="410.7800000000001" y="358.49999999999994"/>
      <point x="365.0" y="375.12" type="curve"/>
      <point x="430.67999999999995" y="409.44"/>
      <point x="469.82" y="491.09999999999997"/>
      <point x="469.82" y="571.48" type="curve" smooth="yes"/>
      <point x="469.82" y="659.44"/>
      <point x="416.05999999999995" y="710.0"/>
      <point x="290.5" y="710.0" type="curve" smooth="yes"/>
      <point x="252.70000000000002" y="710.0"/>
      <point x="195.62" y="707.1600000000001"/>
      <point x="112.94" y="698.24" type="curve"/>
    </contour>
    <contour>
      <point x="178.54000000000002" y="399.36" type="line"/>
      <point x="210.94" y="606.8199999999999" type="line"/>
      <point x="237.2" y="609.7400000000001"/>
      <point x="255.92000000000002" y="611.9"/>
      <point x="280.06" y="611.9" type="curve" smooth="yes"/>
      <point x="335.32" y="611.9"/>
      <point x="359.76" y="592.6"/>
      <point x="359.76" y="540.2600000000001" type="curve" smooth="yes"/>
      <point x="359.76" y="465.46"/>
      <point x="314.42" y="399.36"/>
      <point x="262.7" y="399.36" type="curve" smooth="yes"/>
    </contour>
    <contour>
      <point x="163.68000000000004" y="307.44" type="line"/>
      <point x="254.26000000000002" y="307.44" type="line" smooth="yes"/>
      <point x="295.76000000000005" y="307.44"/>
      <point x="326.8999999999999" y="283.9"/>
      <point x="326.8999999999999" y="232.94" type="curve" smooth="yes"/>
      <point x="326.8999999999999" y="146.68"/>
      <point x="279.65999999999997" y="87.74000000000001"/>
      <point x="198.42" y="87.74000000000001" type="curve" smooth="yes"/>
      <point x="176.5" y="87.74000000000001"/>
      <point x="155.50000000000003" y="89.04000000000002"/>
      <point x="129.38" y="91.84" type="curve"/>
    </contour>
  </outline>
</glyph>
<glyph name="C" format="2">
  <advance width="433.25"/>
  <unicode hex="0043"/>
  <anchor x="228.425" y="0.0" name="bottom"/>
  <anchor x="333.525" y="700.0" name="top"/>
  <outline>
    <contour>
      <point x="253.20000000000002" y="-10.0" type="curve" smooth="yes"/>
      <point x="301.62499999999994" y="-10.0"/>
      <point x="342.375" y="-4.55"/>
      <point x="380.875" y="7.650000000000002" type="curve"/>
      <point x="374.45000000000005" y="105.35" type="line"/>
      <point x="344.575" y="98.0"/>
      <point x="311.325" y="92.725"/>
      <point x="276.925" y="92.725" type="curve" smooth="yes"/>
      <point x="191.70000000000002" y="92.725"/>
      <point x="146.25000000000003" y="129.5"/>
      <point x="146.25000000000003" y="233.45" type="curve" smooth="yes"/>
      <point x="146.25000000000003" y="440.62499999999994"/>
      <point x="219.6" y="607.275"/>
      <point x="338.95000000000005" y="607.275" type="curve" smooth="yes"/>
      <point x="375.07500000000005" y="607.275"/>
      <point x="408.725" y="601.1249999999999"/>
      <point x="442.7749999999999" y="590.175" type="curve"/>
      <point x="474.90000000000003" y="683.9749999999999" type="line"/>
      <point x="432.925" y="702.3"/>
      <point x="384.4000000000001" y="710.0"/>
      <point x="333.09999999999985" y="710.0" type="curve" smooth="yes"/>
      <point x="147.25000000000003" y="710.0"/>
      <point x="30.049999999999997" y="511.3"/>
      <point x="30.049999999999997" y="216.175" type="curve" smooth="yes"/>
      <point x="30.049999999999997" y="60.825"/>
      <point x="107.05000000000001" y="-10.0"/>
    </contour>
  </outline>
</glyph>
<glyph name="D" format="2">
  <advance width="500.47499999999997"/>
  <unicode hex="0044"/>
  <anchor x="195.52500000000003" y="0.0" name="bottom"/>
  <anchor x="258.466725" y="350.0" name="center"/>
  <anchor x="286.825" y="700.0" name="top"/>
  <outline>
    <contour>
      <point x="176.175" y="-10.0" type="curve" smooth="yes"/>
      <point x="376.3" y="-10.0"/>
      <point x="490.47499999999997" y="175.55"/>
      <point x="490.47499999999997" y="454.175" type="curve" smooth="yes"/>
      <point x="490.47499999999997" y="631.7250000000001"/>
      <point x="410.8999999999999" y="710.0"/>
      <point x="264.0" y="710.0" type="curve" smooth="yes"/>
      <point x="215.3" y="710.0"/>
      <point x="169.675" y="707.45"/>
      <point x="112.825" y="701.425" type="curve"/>
      <point x="1.3749999999999991" y="0.1750000000000006" type="line"/>
      <point x="55.9" y="-6.35"/>
      <point x="106.825" y="-10.0"/>
    </contour>
    <contour>
      <point x="189.475" y="85.45000000000002" type="curve" smooth="yes"/>
      <point x="164.875" y="85.45000000000002"/>
      <point x="149.82500000000002" y="86.95000000000002"/>
      <point x="128.375" y="88.62500000000001" type="curve"/>
      <point x="210.9" y="607.0250000000001" type="line"/>
      <point x="226.42500000000004" y="608.475"/>
      <point x="246.77499999999998" y="609.6999999999999"/>
      <point x="268.07500000000005" y="609.6999999999999" type="curve" smooth="yes"/>
      <point x="334.175" y="609.6999999999999"/>
      <point x="376.59999999999997" y="563.9"/>
      <point x="376.59999999999997" y="452.67499999999995" type="curve" smooth="yes"/>
      <point x="376.59999999999997" y="250.225"/>
      <point x="297.125" y="85.45000000000002"/>
    </contour>
  </outline>
</glyph>
<glyph name="E" format="2">
  <advance width="417.165"/>
  <unicode hex="0045"/>
  <anchor x="179.74" y="0.0" name="bottom"/>
  <anchor x="354.67" y="0.0" name="ogonek"/>
  <anchor x="284.39" y="700.0" name="top"/>
  <anchor x="88.901725" y="700.0" name="topleft"/>
  <outline>
    <contour>
      <point x="1.5799999999999992" y="0.0" type="line"/>
      <point x="354.67" y="0.0" type="line"/>
      <point x="371.3" y="102.915" type="line"/>
      <point x="130.1" y="102.915" type="line"/>
      <point x="161.64499999999998" y="306.14" type="line"/>
      <point x="369.52500000000003" y="306.14" type="line"/>
      <point x="386.52500000000003" y="405.50499999999994" type="line"/>
      <point x="177.89000000000001" y="405.50499999999994" type="line"/>
      <point x="208.31" y="595.56" type="line"/>
      <point x="436.53" y="595.56" type="line"/>
      <point x="453.995" y="700.0" type="line"/>
      <point x="112.13" y="700.0" type="line"/>
    </contour>
  </outline>
</glyph>
<glyph name="F" format="2">
  <advance width="398.17999999999995"/>
  <unicode hex="0046"/>
  <outline>
    <contour>
      <point x="1.4999999999999993" y="0.0" type="line"/>
      <point x="113.88000000000001" y="0.0" type="line"/>
      <point x="157.01999999999998" y="267.74" type="line"/>
      <point x="348.17999999999995" y="267.74" type="line"/>
      <point x="364.82000000000005" y="373.00000000000006" type="line"/>
      <point x="173.4" y="373.00000000000006" type="line"/>
      <point x="208.28" y="594.54" type="line"/>
      <point x="434.6" y="594.54" type="line"/>
      <point x="452.08" y="700.0" type="line"/>
      <point x="112.58" y="700.0" type="line"/>
    </contour>
  </outline>
</glyph>
<glyph name="G" format="2">
  <advance width="467.55"/>
  <unicode hex="0047"/>
  <anchor x="234.79999999999998" y="0.0" name="bottom"/>
  <anchor x="335.19" y="700.0" name="top"/>
  <outline>
    <contour>
      <point x="241.34000000000003" y="-10.0" type="curve" smooth="yes"/>
      <point x="301.38" y="-10.0"/>
      <point x="357.96000000000004" y="1.9400000000000006"/>
      <point x="395.23999999999995" y="23.180000000000003" type="curve"/>
      <point x="452.03" y="379.53000000000003" type="line"/>
      <point x="261.65999999999997" y="379.53000000000003" type="line"/>
      <point x="247.33" y="288.7" type="line"/>
      <point x="337.40999999999997" y="288.7" type="line"/>
      <point x="306.63" y="95.75" type="line"/>
      <point x="293.15000000000003" y="89.99000000000001"/>
      <point x="270.72999999999996" y="86.22000000000001"/>
      <point x="246.74" y="86.22000000000001" type="curve" smooth="yes"/>
      <point x="179.29999999999998" y="86.22000000000001"/>
      <point x="139.87" y="122.67"/>
      <point x="139.87" y="222.66" type="curve" smooth="yes"/>
      <point x="139.87" y="429.46000000000004"/>
      <point x="214.88000000000002" y="607.95"/>
      <point x="338.22999999999996" y="607.95" type="curve" smooth="yes"/>
      <point x="381.45000000000005" y="607.95"/>
      <point x="415.91" y="598.99"/>
      <point x="450.66" y="588.8000000000001" type="curve"/>
      <point x="485.29" y="684.81" type="line"/>
      <point x="441.09000000000003" y="702.0500000000001"/>
      <point x="389.99" y="710.0"/>
      <point x="335.82000000000005" y="710.0" type="curve" smooth="yes"/>
      <point x="127.16" y="710.0"/>
      <point x="28.580000000000002" y="468.36999999999995"/>
      <point x="28.580000000000002" y="215.25" type="curve" smooth="yes"/>
      <point x="28.580000000000002" y="63.95"/>
      <point x="108.12999999999998" y="-10.0"/>
    </contour>
  </outline>
</glyph>
<glyph name="H" format="2">
  <advance width="503.27000000000004"/>
  <unicode hex="0048"/>
  <anchor x="208.14416" y="0.0" name="bottom"/>
  <anchor x="263.78256" y="350.0" name="center"/>
  <anchor x="319.06032" y="700.0" name="top"/>
  <anchor x="86.48031999999999" y="700.0" name="topleft"/>
  <outline>
    <contour>
      <point x="1.4099999999999993" y="0.0" type="line"/>
      <point x="114.60000000000001" y="0.0" type="line"/>
      <point x="155.76" y="261.52000000000004" type="line"/>
      <point x="343.32" y="261.52000000000004" type="line"/>
      <point x="302.38" y="0.0" type="line"/>
      <point x="413.78000000000003" y="0.0" type="line"/>
      <point x="525.22" y="700.0" type="line"/>
      <point x="413.48999999999995" y="700.0" type="line"/>
      <point x="359.74" y="363.67999999999995" type="line"/>
      <point x="171.82000000000002" y="363.67999999999995" type="line"/>
      <point x="225.68000000000004" y="700.0" type="line"/>
      <point x="112.49" y="700.0" type="line"/>
    </contour>
  </outline>
</glyph>
<glyph name="I" format="2">
  <advance width="203.73000000000002"/>
  <unicode hex="0049"/>
  <anchor x="58.14532000000001" y="0.0" name="bottom"/>
  <anchor x="115.57232" y="4.4" name="ogonek"/>
  <anchor x="169.07589000000002" y="700.0" name="top"/>
  <anchor x="89.11772" y="700.0" name="topleft"/>
  <outline>
    <contour>
      <point x="1.4099999999999993" y="0.0" type="line"/>
      <point x="114.24000000000001" y="0.0" type="line"/>
      <point x="225.68000000000004" y="700.0" type="line"/>
      <point x="112.49" y="700.0" type="line"/>
    </contour>
  </outline>
</glyph>
<glyph name="J" format="2">
  <advance width="357.38"/>
  <unicode hex="004A"/>
  <anchor x="117.03536" y="0.0" name="bottom"/>
  <anchor x="247.22" y="700.0" name="top"/>
  <outline>
    <contour>
      <point x="-33.63" y="17.35" type="line"/>
      <point x="4.3999999999999995" y="1.8000000000000012"/>
      <point x="48.03" y="-10.0"/>
      <point x="104.14000000000001" y="-10.0" type="curve" smooth="yes"/>
      <point x="218.26999999999998" y="-10.0"/>
      <point x="281.12" y="57.97"/>
      <point x="301.53" y="183.09" type="curve" smooth="yes"/>
      <point x="383.97" y="700.0" type="line"/>
      <point x="107.47" y="700.0" type="line"/>
      <point x="91.27" y="599.82" type="line"/>
      <point x="254.94000000000003" y="599.82" type="line"/>
      <point x="193.97000000000003" y="217.76" type="line" smooth="yes"/>
      <point x="179.61" y="127.91000000000001"/>
      <point x="144.05" y="100.63000000000001"/>
      <point x="86.21" y="100.63000000000001" type="curve" smooth="yes"/>
      <point x="56.75" y="100.63000000000001"/>
      <point x="26.87" y="108.37"/>
      <point x="-2.5599999999999983" y="117.54" type="curve"/>
    </contour>
  </outline>
</glyph>
<glyph name="K" format="2">
  <advance width="475.52000000000004"/>
  <unicode hex="004B"/>
  <anchor x="211.70000000000002" y="0.0" name="bottom"/>
  <anchor x="303.82" y="700.0" name="top"/>
  <outline>
    <contour>
      <point x="0.8399999999999994" y="0.0" type="line"/>
      <point x="114.43999999999998" y="0.0" type="line"/>
      <point x="225.38" y="700.0" type="line"/>
      <point x="112.8" y="700.0" type="line"/>
    </contour>
    <contour>
      <point x="387.82000000000005" y="-9.8" type="curve" smooth="yes"/>
      <point x="400.24" y="-9.8"/>
      <point x="420.71999999999997" y="-5.5600000000000005"/>
      <point x="427.84000000000003" y="-2.0399999999999996" type="curve"/>
      <point x="440.0" y="121.48" type="line"/>
      <point x="435.74" y="121.76000000000002"/>
      <point x="431.26000000000005" y="120.84000000000002"/>
      <point x="426.6" y="120.84000000000002" type="curve" smooth="yes"/>
      <point x="400.6600000000001" y="120.84000000000002"/>
      <point x="374.24" y="133.62000000000003"/>
      <point x="339.3" y="190.72" type="curve" smooth="yes"/>
      <point x="171.64" y="465.78000000000003" type="line"/>
      <point x="143.73999999999998" y="307.28000000000003" type="line"/>
      <point x="283.06" y="72.56" type="line" smooth="yes"/>
      <point x="317.88" y="11.52"/>
      <point x="345.26" y="-9.8"/>
    </contour>
    <contour>
      <point x="250.16000000000003" y="284.22" type="line"/>
      <point x="349.34" y="371.06"/>
      <point x="461.78000000000003" y="506.88000000000005"/>
      <point x="519.18" y="667.98" type="curve"/>
      <point x="431.02" y="706.68" type="line"/>
      <point x="366.84000000000003" y="556.46"/>
      <point x="273.82" y="433.88000000000005"/>
      <point x="200.42" y="369.71999999999997" type="curve"/>
    </contour>
  </outline>
</glyph>
<glyph name="L" format="2">
  <advance width="383.89"/>
  <unicode hex="004C"/>
  <anchor x="170.39" y="0.0" name="bottom"/>
  <anchor x="199.77255999999997" y="350.0" name="center"/>
  <anchor x="168.68" y="700.0" name="top"/>
  <anchor x="314.21000000000004" y="700.0" name="topright"/>
  <outline>
    <contour>
      <point x="1.049999999999999" y="0.0" type="line"/>
      <point x="327.84" y="0.0" type="line"/>
      <point x="344.59" y="102.82000000000001" type="line"/>
      <point x="130.41" y="102.82000000000001" type="line"/>
      <point x="225.32" y="700.0" type="line"/>
      <point x="112.49" y="700.0" type="line"/>
    </contour>
  </outline>
</glyph>
<glyph name="M" format="2">
  <advance width="574.31"/>
  <unicode hex="004D"/>
  <outline>
    <contour>
      <point x="1.1099999999999985" y="0.0" type="line"/>
      <point x="105.09000000000002" y="0.0" type="line"/>
      <point x="183.45000000000002" y="505.84" type="line"/>
      <point x="245.24" y="192.98999999999998" type="line"/>
      <point x="299.6" y="192.98999999999998" type="line"/>
      <point x="462.37" y="504.97" type="line"/>
      <point x="381.12" y="0.0" type="line"/>
      <point x="484.82" y="0.0" type="line"/>
      <point x="596.26" y="700.0" type="line"/>
      <point x="472.43000000000006" y="700.0" type="line"/>
      <point x="296.84999999999997" y="359.21999999999997" type="line"/>
      <point x="227.84" y="700.0" type="line"/>
      <point x="112.49" y="700.0" type="line"/>
    </contour>
  </outline>
</glyph>
<glyph name="N" format="2">
  <advance width="501.69999999999993"/>
  <unicode hex="004E"/>
  <anchor x="212.1" y="0.0" name="bottom"/>
  <anchor x="318.6" y="700.0" name="top"/>
  <outline>
    <contour>
      <point x="1.4999999999999991" y="0.0" type="line"/>
      <point x="102.95" y="0.0" type="line"/>
      <point x="177.575" y="468.84999999999997" type="line"/>
      <point x="303.0" y="-0.8999999999999999" type="line"/>
      <point x="412.1" y="-0.8999999999999999" type="line"/>
      <point x="523.65" y="700.0" type="line"/>
      <point x="422.15" y="700.0" type="line"/>
      <point x="344.725" y="216.1" type="line"/>
      <point x="222.825" y="700.9" type="line"/>
      <point x="112.825" y="700.9" type="line"/>
    </contour>
  </outline>
</glyph>
<glyph name="O" format="2">
  <advance width="512.0500000000002"/>
  <unicode hex="004F"/>
  <note>
8
</note>
  <anchor x="213.8" y="0.0" name="bottom"/>
  <anchor x="269.25" y="350.0" name="center"/>
  <anchor x="281.40000000000003" y="1.55" name="ogonek"/>
  <anchor x="323.09999999999997" y="700.0" name="top"/>
  <anchor x="89.55" y="700.0" name="topleft"/>
  <anchor x="426.0" y="694.35" name="topright"/>
  <outline>
    <contour>
      <point x="224.05" y="-8.45" type="curve" smooth="yes"/>
      <point x="421.45" y="-8.45"/>
      <point x="504.45000000000005" y="260.99999999999994"/>
      <point x="505.00000000000006" y="476.04999999999995" type="curve" smooth="yes"/>
      <point x="505.40000000000003" y="634.55"/>
      <point x="438.45000000000005" y="708.4499999999999"/>
      <point x="312.0" y="708.4499999999999" type="curve" smooth="yes"/>
      <point x="114.6" y="708.4499999999999"/>
      <point x="31.599999999999998" y="439.00000000000006"/>
      <point x="31.049999999999997" y="223.95" type="curve" smooth="yes"/>
      <point x="30.65" y="65.45"/>
      <point x="97.60000000000001" y="-8.45"/>
    </contour>
    <contour>
      <point x="233.75" y="96.35" type="curve" smooth="yes"/>
      <point x="179.4" y="96.35"/>
      <point x="146.04999999999998" y="126.3"/>
      <point x="146.04999999999998" y="218.8" type="curve" smooth="yes"/>
      <point x="146.04999999999998" y="354.7"/>
      <point x="197.70000000000002" y="603.65"/>
      <point x="302.74999999999994" y="603.65" type="curve" smooth="yes"/>
      <point x="356.65000000000003" y="603.65"/>
      <point x="390.0" y="573.65"/>
      <point x="390.0" y="481.15" type="curve" smooth="yes"/>
      <point x="390.0" y="345.25"/>
      <point x="338.35" y="96.35"/>
    </contour>
  </outline>
</glyph>
<glyph name="P" format="2">
  <advance width="471.625"/>
  <unicode hex="0050"/>
  <outline>
    <contour>
      <point x="1.7749999999999995" y="0.0" type="line"/>
      <point x="114.275" y="0.0" type="line"/>
      <point x="149.05" y="216.15" type="line"/>
      <point x="183.9" y="213.27499999999998"/>
      <point x="198.97500000000002" y="213.04999999999998"/>
      <point x="236.07500000000002" y="213.04999999999998" type="curve" smooth="yes"/>
      <point x="396.55" y="213.04999999999998"/>
      <point x="487.02500000000003" y="335.375"/>
      <point x="487.25" y="528.75" type="curve" smooth="yes"/>
      <point x="487.25" y="652.775"/>
      <point x="428.40000000000003" y="710.0"/>
      <point x="288.1" y="710.0" type="curve" smooth="yes"/>
      <point x="251.17499999999998" y="710.0"/>
      <point x="191.175" y="707.45"/>
      <point x="113.325" y="702.175" type="curve"/>
    </contour>
    <contour>
      <point x="211.225" y="606.8" type="line"/>
      <point x="242.8" y="609.475"/>
      <point x="257.9" y="610.7"/>
      <point x="279.6" y="610.7" type="curve" smooth="yes"/>
      <point x="348.75" y="610.7"/>
      <point x="374.75" y="581.775"/>
      <point x="374.75" y="510.775" type="curve" smooth="yes"/>
      <point x="374.75" y="403.45"/>
      <point x="325.35" y="312.625"/>
      <point x="230.975" y="312.625" type="curve" smooth="yes"/>
      <point x="209.95" y="312.625"/>
      <point x="192.6" y="313.575"/>
      <point x="164.70000000000002" y="315.35" type="curve"/>
    </contour>
  </outline>
</glyph>
<glyph name="Q" format="2">
  <advance width="511.62"/>
  <unicode hex="0051"/>
  <note>
14
</note>
  <outline>
    <contour>
      <point x="356.87" y="-178.76000000000002" type="curve" smooth="yes"/>
      <point x="379.74" y="-178.76000000000002"/>
      <point x="402.84999999999997" y="-175.31"/>
      <point x="424.49" y="-167.4" type="curve"/>
      <point x="431.13000000000005" y="-71.86" type="line"/>
      <point x="416.9" y="-77.69"/>
      <point x="400.3" y="-80.59"/>
      <point x="383.02000000000004" y="-80.59" type="curve" smooth="yes"/>
      <point x="335.43" y="-80.59"/>
      <point x="296.84" y="-55.32"/>
      <point x="290.88" y="13.410000000000002" type="curve"/>
      <point x="195.92000000000002" y="8.16" type="line"/>
      <point x="203.22" y="-132.88"/>
      <point x="279.16999999999996" y="-178.76000000000002"/>
    </contour>
    <component base="O"/>
  </outline>
</glyph>
<glyph name="R" format="2">
  <advance width="485.3"/>
  <unicode hex="0052"/>
  <anchor x="217.15" y="0.0" name="bottom"/>
  <anchor x="282.6" y="700.0" name="top"/>
  <outline>
    <contour>
      <point x="1.0499999999999994" y="0.0" type="line"/>
      <point x="114.5" y="0.0" type="line"/>
      <point x="154.20000000000002" y="249.89999999999998" type="line"/>
      <point x="180.5" y="249.44999999999996"/>
      <point x="206.25000000000003" y="249.0"/>
      <point x="246.50000000000003" y="248.5" type="curve"/>
      <point x="257.94999999999993" y="255.1" type="line"/>
      <point x="391.40000000000003" y="255.54999999999998"/>
      <point x="486.8" y="360.54999999999995"/>
      <point x="486.8" y="526.25" type="curve" smooth="yes"/>
      <point x="486.8" y="644.8499999999999"/>
      <point x="425.5" y="710.0"/>
      <point x="285.4" y="710.0" type="curve" smooth="yes"/>
      <point x="232.25" y="710.0"/>
      <point x="179.85" y="706.85"/>
      <point x="113.05" y="701.25" type="curve"/>
    </contour>
    <contour>
      <point x="397.1" y="-10.0" type="curve" smooth="yes"/>
      <point x="406.9" y="-10.0"/>
      <point x="428.15" y="-6.449999999999999"/>
      <point x="435.6" y="-2.6999999999999997" type="curve"/>
      <point x="446.90000000000003" y="110.39999999999999" type="line"/>
      <point x="442.45000000000005" y="109.45"/>
      <point x="437.85" y="109.45"/>
      <point x="434.70000000000005" y="109.45" type="curve" smooth="yes"/>
      <point x="397.59999999999997" y="109.45"/>
      <point x="361.05" y="145.85"/>
      <point x="320.95000000000005" y="299.55" type="curve"/>
      <point x="217.45000000000002" y="273.0" type="line"/>
      <point x="284.15" y="28.949999999999996"/>
      <point x="329.3" y="-10.0"/>
    </contour>
    <contour>
      <point x="242.14999999999998" y="344.15000000000003" type="curve" smooth="yes"/>
      <point x="212.05" y="344.15000000000003"/>
      <point x="190.15" y="345.15"/>
      <point x="169.15" y="347.15" type="curve"/>
      <point x="211.4" y="609.0" type="line"/>
      <point x="242.29999999999998" y="611.9000000000001"/>
      <point x="255.70000000000002" y="612.9000000000001"/>
      <point x="281.79999999999995" y="612.9000000000001" type="curve" smooth="yes"/>
      <point x="349.65000000000003" y="612.9000000000001"/>
      <point x="371.15" y="579.8499999999999"/>
      <point x="371.15" y="521.8" type="curve" smooth="yes"/>
      <point x="371.15" y="410.55"/>
      <point x="319.05" y="344.15000000000003"/>
    </contour>
  </outline>
</glyph>
<glyph name="S" format="2">
  <advance width="436.27500000000003"/>
  <unicode hex="0053"/>
  <anchor x="178.975" y="0.0" name="bottom"/>
  <anchor x="292.875" y="700.0" name="top"/>
  <outline>
    <contour>
      <point x="451.25" y="679.9499999999999" type="line"/>
      <point x="407.475" y="698.5500000000001"/>
      <point x="356.12499999999994" y="710.0"/>
      <point x="298.09999999999997" y="710.0" type="curve" smooth="yes"/>
      <point x="149.67499999999998" y="710.0"/>
      <point x="61.825" y="629.9"/>
      <point x="61.825" y="502.45" type="curve" smooth="yes"/>
      <point x="61.825" y="318.92499999999995"/>
      <point x="286.72499999999997" y="301.45"/>
      <point x="286.725" y="186.975" type="curve" smooth="yes"/>
      <point x="286.725" y="131.05"/>
      <point x="245.79999999999998" y="91.1"/>
      <point x="171.925" y="91.1" type="curve" smooth="yes"/>
      <point x="118.075" y="91.1"/>
      <point x="67.35000000000001" y="101.97500000000001"/>
      <point x="14.225" y="122.92500000000001" type="curve"/>
      <point x="-22.425" y="27.099999999999998" type="line"/>
      <point x="27.374999999999996" y="2.9500000000000006"/>
      <point x="93.65" y="-10.0"/>
      <point x="165.375" y="-10.0" type="curve" smooth="yes"/>
      <point x="316.475" y="-10.0"/>
      <point x="402.37500000000006" y="73.725"/>
      <point x="402.37500000000006" y="196.65" type="curve" smooth="yes"/>
      <point x="402.825" y="376.3"/>
      <point x="179.225" y="399.84999999999997"/>
      <point x="179.225" y="510.20000000000005" type="curve" smooth="yes"/>
      <point x="179.225" y="571.525"/>
      <point x="223.59999999999997" y="608.05"/>
      <point x="293.47499999999997" y="608.05" type="curve" smooth="yes"/>
      <point x="337.975" y="608.05"/>
      <point x="378.27500000000003" y="600.9499999999999"/>
      <point x="415.85" y="585.3000000000001" type="curve"/>
    </contour>
  </outline>
</glyph>
<glyph name="T" format="2">
  <advance width="418.41999999999996"/>
  <unicode hex="0054"/>
  <anchor x="165.40536000000003" y="0.0" name="bottom"/>
  <anchor x="221.14587" y="350.0" name="center"/>
  <anchor x="276.37589" y="700.0" name="top"/>
  <outline>
    <contour>
      <point x="460.54" y="601.47" type="line"/>
      <point x="477.18" y="700.0" type="line"/>
      <point x="76.45" y="700.0" type="line"/>
      <point x="59.699999999999996" y="601.47" type="line"/>
      <point x="203.9" y="601.47" type="line"/>
      <point x="108.55000000000001" y="0.0" type="line"/>
      <point x="221.38000000000002" y="0.0" type="line"/>
      <point x="316.62" y="601.47" type="line"/>
    </contour>
  </outline>
</glyph>
<glyph name="U" format="2">
  <advance width="491.94000000000005"/>
  <unicode hex="0055"/>
  <anchor x="202.31420000000003" y="0.0" name="bottom"/>
  <anchor x="264.32" y="0.0" name="ogonek"/>
  <anchor x="312.16215" y="700.0" name="top"/>
  <anchor x="505.10999999999996" y="700.0" name="topright"/>
  <outline>
    <contour>
      <point x="198.86" y="-10.0" type="curve" smooth="yes"/>
      <point x="339.73" y="-10.0"/>
      <point x="415.21" y="54.65"/>
      <point x="438.06" y="196.22000000000003" type="curve" smooth="yes"/>
      <point x="518.53" y="700.0" type="line"/>
      <point x="406.11" y="700.0" type="line"/>
      <point x="323.90000000000003" y="183.01999999999998" type="line" smooth="yes"/>
      <point x="314.40999999999997" y="120.44999999999999"/>
      <point x="279.42" y="89.74000000000001"/>
      <point x="216.99" y="89.74000000000001" type="curve" smooth="yes"/>
      <point x="157.12" y="89.74000000000001"/>
      <point x="128.05" y="120.9"/>
      <point x="137.28" y="176.09" type="curve" smooth="yes"/>
      <point x="220.33" y="700.0" type="line"/>
      <point x="108.27" y="700.0" type="line"/>
      <point x="27.17" y="188.12000000000003" type="line" smooth="yes"/>
      <point x="23.449999999999996" y="164.72"/>
      <point x="22.37" y="152.62"/>
      <point x="22.37" y="136.92000000000002" type="curve" smooth="yes"/>
      <point x="22.37" y="39.33"/>
      <point x="82.03" y="-10.0"/>
    </contour>
  </outline>
</glyph>
<glyph name="V" format="2">
  <advance width="463.16499999999996"/>
  <unicode hex="0056"/>
  <outline>
    <contour>
      <point x="253.01500000000001" y="0.0" type="line"/>
      <point x="445.925" y="402.06499999999994"/>
      <point x="497.225" y="530.65"/>
      <point x="512.35" y="671.15" type="curve" smooth="yes"/>
      <point x="512.9" y="681.265"/>
      <point x="513.0" y="689.84"/>
      <point x="512.015" y="700.0" type="curve"/>
      <point x="390.415" y="700.0" type="line"/>
      <point x="391.22499999999997" y="691.6750000000001"/>
      <point x="392.03999999999996" y="684.5150000000001"/>
      <point x="392.03999999999996" y="676.575" type="curve" smooth="yes"/>
      <point x="388.46500000000003" y="555.05"/>
      <point x="336.21999999999997" y="433.745"/>
      <point x="206.13" y="117.30000000000001" type="curve"/>
      <point x="195.70000000000002" y="700.99" type="line"/>
      <point x="69.5" y="700.225" type="line"/>
      <point x="111.94" y="0.0" type="line"/>
    </contour>
  </outline>
</glyph>
<glyph name="W" format="2">
  <advance width="686.4000000000001"/>
  <unicode hex="0057"/>
  <anchor x="295.2" y="0.0" name="bottom"/>
  <anchor x="412.05" y="700.0" name="top"/>
  <outline>
    <contour>
      <point x="509.75" y="-0.44999999999999996" type="line"/>
      <point x="687.35" y="451.8"/>
      <point x="730.9000000000001" y="584.8999999999999"/>
      <point x="734.4" y="675.75" type="curve" smooth="yes"/>
      <point x="734.4" y="684.25"/>
      <point x="734.4" y="691.9499999999999"/>
      <point x="733.1" y="700.0" type="curve"/>
      <point x="618.35" y="700.0" type="line"/>
      <point x="619.25" y="691.95"/>
      <point x="619.6999999999999" y="684.85"/>
      <point x="619.6999999999999" y="676.75" type="curve" smooth="yes"/>
      <point x="614.9499999999999" y="561.0"/>
      <point x="584.45" y="476.70000000000005"/>
      <point x="458.54999999999995" y="131.8" type="curve"/>
      <point x="464.65000000000003" y="645.8499999999999" type="line"/>
      <point x="344.35" y="645.8499999999999" type="line"/>
      <point x="296.70000000000005" y="478.4"/>
      <point x="237.89999999999998" y="286.8"/>
      <point x="183.0" y="137.65" type="curve"/>
      <point x="189.20000000000002" y="700.0" type="line"/>
      <point x="70.9" y="700.0" type="line"/>
      <point x="84.55000000000001" y="-0.44999999999999996" type="line"/>
      <point x="212.70000000000002" y="-0.44999999999999996" type="line"/>
      <point x="276.45" y="168.7"/>
      <point x="332.3" y="326.35"/>
      <point x="376.9" y="468.04999999999995" type="curve"/>
      <point x="376.9" y="-0.44999999999999996" type="line"/>
    </contour>
  </outline>
</glyph>
<glyph name="X" format="2">
  <advance width="473.90000000000003"/>
  <unicode hex="0058"/>
  <outline>
    <contour>
      <point x="312.55" y="-2.75" type="line"/>
      <point x="433.59999999999997" y="0.10000000000000009" type="line"/>
      <point x="318.70000000000005" y="338.2" type="line"/>
      <point x="417.65" y="484.6"/>
      <point x="499.05000000000007" y="600.0000000000001"/>
      <point x="511.65000000000003" y="700.1" type="curve"/>
      <point x="391.0" y="701.15" type="line"/>
      <point x="385.85" y="615.85"/>
      <point x="332.95" y="525.25"/>
      <point x="269.4" y="432.1" type="curve"/>
      <point x="191.5" y="703.65" type="line"/>
      <point x="73.65" y="700.8" type="line"/>
      <point x="178.8" y="370.49999999999994" type="line"/>
      <point x="82.6" y="237.1"/>
      <point x="-15.399999999999999" y="106.14999999999998"/>
      <point x="-16.599999999999998" y="0.0" type="curve"/>
      <point x="105.7" y="0.0" type="line"/>
      <point x="106.9" y="87.29999999999998"/>
      <point x="161.35" y="174.95000000000002"/>
      <point x="228.70000000000002" y="276.6" type="curve"/>
    </contour>
  </outline>
</glyph>
<glyph name="Y" format="2">
  <advance width="445.88"/>
  <unicode hex="0059"/>
  <anchor x="178.68" y="0.0" name="bottom"/>
  <anchor x="291.66" y="700.0" name="top"/>
  <anchor x="89.26" y="700.0" name="topleft"/>
  <outline>
    <contour>
      <point x="122.72" y="0.0" type="line"/>
      <point x="233.70000000000002" y="0.0" type="line"/>
      <point x="275.88" y="256.78" type="line"/>
      <point x="392.7" y="408.38"/>
      <point x="455.74" y="524.24"/>
      <point x="498.24" y="664.02" type="curve" smooth="yes"/>
      <point x="501.3" y="675.88"/>
      <point x="505.23999999999995" y="688.7"/>
      <point x="508.44000000000005" y="701.0600000000001" type="curve"/>
      <point x="381.48" y="702.9" type="line"/>
      <point x="379.38" y="691.26"/>
      <point x="377.02" y="679.6800000000001"/>
      <point x="374.62" y="668.0600000000001" type="curve" smooth="yes"/>
      <point x="349.28" y="559.1200000000001"/>
      <point x="313.06" y="466.0"/>
      <point x="236.74" y="357.92" type="curve"/>
      <point x="196.34" y="702.14" type="line"/>
      <point x="68.2" y="699.9800000000001" type="line"/>
      <point x="164.08" y="256.78" type="line"/>
    </contour>
  </outline>
</glyph>
<glyph name="Z" format="2">
  <advance width="429.95"/>
  <unicode hex="005A"/>
  <anchor x="173.04999999999998" y="0.0" name="bottom"/>
  <anchor x="225.45000000000002" y="350.0" name="center"/>
  <anchor x="281.1499999999999" y="700.0" name="top"/>
  <outline>
    <contour>
      <point x="-27.1" y="0.0" type="line"/>
      <point x="371.0" y="0.0" type="line"/>
      <point x="387.7" y="99.7" type="line"/>
      <point x="113.30000000000001" y="99.7" type="line"/>
      <point x="456.05000000000007" y="600.4" type="line"/>
      <point x="471.8" y="700.0" type="line"/>
      <point x="100.45" y="700.0" type="line"/>
      <point x="84.2" y="600.2999999999998" type="line"/>
      <point x="331.84999999999997" y="600.2999999999998" type="line"/>
      <point x="-11.45" y="97.35000000000002" type="line"/>
    </contour>
  </outline>
</glyph>
<glyph name="bracketleft" format="2">
  <advance width="259.88"/>
  <unicode hex="005B"/>
  <outline>
    <contour>
      <point x="76.32000000000001" y="-119.4" type="line"/>
      <point x="199.76" y="649.49" type="line"/>
      <point x="306.51" y="649.49" type="line"/>
      <point x="321.61" y="740.0" type="line"/>
      <point x="124.66000000000001" y="740.0" type="line"/>
      <point x="-28.510000000000005" y="-210.0" type="line"/>
      <point x="167.53" y="-210.0" type="line"/>
      <point x="183.07000000000002" y="-119.4" type="line"/>
    </contour>
  </outline>
</glyph>
<glyph name="backslash" format="2">
  <advance width="340.35999999999996"/>
  <unicode hex="005C"/>
  <outline>
    <contour>
      <point x="164.51000000000002" y="740.0" type="line"/>
      <point x="74.94" y="740.0" type="line"/>
      <point x="211.18" y="-210.0" type="line"/>
      <point x="300.31" y="-210.0" type="line"/>
    </contour>
  </outline>
</glyph>
<glyph name="bracketright" format="2">
  <advance width="259.88"/>
  <unicode hex="005D"/>
  <outline>
    <contour>
      <point x="-49.18" y="-119.4" type="line"/>
      <point x="-64.16999999999999" y="-210.0" type="line"/>
      <point x="131.42" y="-210.0" type="line"/>
      <point x="285.5" y="740.0" type="line"/>
      <point x="88.91" y="740.0" type="line"/>
      <point x="73.37" y="649.4" type="line"/>
      <point x="180.12" y="649.4" type="line"/>
      <point x="56.24" y="-119.4" type="line"/>
    </contour>
  </outline>
</glyph>
<glyph name="asciicircum" format="2">
  <advance width="419.92999999999995"/>
  <unicode hex="005E"/>
  <outline>
    <contour>
      <point x="41.09" y="253.97999999999996" type="line"/>
      <point x="123.19000000000001" y="253.97999999999996" type="line"/>
      <point x="258.44" y="586.8599999999999" type="line"/>
      <point x="291.03999999999996" y="253.97999999999996" type="line"/>
      <point x="372.52" y="253.97999999999996" type="line"/>
      <point x="325.46999999999997" y="704.5" type="line"/>
      <point x="225.57" y="704.5" type="line"/>
    </contour>
  </outline>
</glyph>
<glyph name="underscore" format="2">
  <advance width="637.8800000000001"/>
  <unicode hex="005F"/>
  <outline>
    <contour>
      <point x="-67.33" y="-176.26000000000002" type="line"/>
      <point x="561.13" y="-176.26000000000002" type="line"/>
      <point x="578.2099999999999" y="-75.04" type="line"/>
      <point x="-50.24999999999999" y="-75.04" type="line"/>
    </contour>
  </outline>
</glyph>
<glyph name="a" format="2">
  <advance width="437.5"/>
  <unicode hex="0061"/>
  <note>
15
</note>
  <anchor x="179.97499999999997" y="0.0" name="bottom"/>
  <anchor x="399.49999999999994" y="6.600000000000001" name="ogonek"/>
  <anchor x="264.4" y="541.0" name="top"/>
  <outline>
    <contour>
      <point x="331.5" y="-10.0" type="curve" smooth="yes"/>
      <point x="356.40000000000003" y="-10.0"/>
      <point x="383.325" y="-3.1999999999999993"/>
      <point x="399.45" y="6.600000000000001" type="curve"/>
      <point x="407.27500000000003" y="97.44999999999999" type="line"/>
      <point x="399.95" y="94.64999999999999"/>
      <point x="392.92500000000007" y="93.52500000000002"/>
      <point x="386.325" y="93.52500000000002" type="curve" smooth="yes"/>
      <point x="371.825" y="93.52500000000002"/>
      <point x="366.625" y="101.17500000000001"/>
      <point x="366.625" y="117.07500000000002" type="curve" smooth="yes"/>
      <point x="366.625" y="124.25000000000001"/>
      <point x="374.05" y="168.27499999999998"/>
      <point x="430.35" y="520.6999999999999" type="curve"/>
      <point x="389.675" y="537.725"/>
      <point x="330.175" y="551.0"/>
      <point x="274.1500000000001" y="551.0" type="curve" smooth="yes"/>
      <point x="116.925" y="551.0"/>
      <point x="16.749999999999996" y="408.025"/>
      <point x="16.749999999999996" y="161.775" type="curve" smooth="yes"/>
      <point x="16.749999999999996" y="49.9"/>
      <point x="64.275" y="-10.0"/>
      <point x="141.85" y="-10.0" type="curve" smooth="yes"/>
      <point x="186.42499999999998" y="-10.0"/>
      <point x="224.2" y="6.1000000000000005"/>
      <point x="255.5" y="33.925" type="curve"/>
      <point x="269.675" y="5.049999999999999"/>
      <point x="295.85" y="-10.0"/>
    </contour>
    <contour>
      <point x="253.77499999999998" y="113.075" type="line"/>
      <point x="235.675" y="101.37500000000001"/>
      <point x="211.07499999999996" y="93.15"/>
      <point x="189.50000000000003" y="93.15" type="curve" smooth="yes"/>
      <point x="154.3" y="93.15"/>
      <point x="132.125" y="122.25"/>
      <point x="132.125" y="179.07500000000002" type="curve" smooth="yes"/>
      <point x="132.125" y="336.3"/>
      <point x="189.15000000000003" y="454.85"/>
      <point x="261.575" y="454.85" type="curve" smooth="yes"/>
      <point x="278.57500000000005" y="454.85"/>
      <point x="293.65000000000003" y="452.32500000000005"/>
      <point x="306.20000000000005" y="445.95" type="curve"/>
    </contour>
  </outline>
</glyph>
<glyph name="b" format="2">
  <advance width="432.65999999999997"/>
  <unicode hex="0062"/>
  <note>
12
</note>
  <outline>
    <contour>
      <point x="228.055" y="740.0" type="line"/>
      <point x="116.92999999999999" y="740.0" type="line"/>
      <point x="2.209999999999999" y="14.33" type="line"/>
      <point x="39.165" y="1.8650000000000004"/>
      <point x="89.61500000000001" y="-10.0"/>
      <point x="153.86500000000004" y="-10.0" type="curve" smooth="yes"/>
      <point x="329.845" y="-10.0"/>
      <point x="417.565" y="173.41"/>
      <point x="416.74" y="377.24" type="curve" smooth="yes"/>
      <point x="416.465" y="494.22999999999996"/>
      <point x="376.425" y="551.0"/>
      <point x="298.01500000000004" y="551.0" type="curve" smooth="yes"/>
      <point x="260.87" y="551.0"/>
      <point x="227.61" y="538.03"/>
      <point x="192.07500000000002" y="514.6600000000001" type="curve"/>
    </contour>
    <contour>
      <point x="246.245" y="446.83500000000004" type="curve" smooth="yes"/>
      <point x="287.48999999999995" y="446.83500000000004"/>
      <point x="303.69" y="412.135"/>
      <point x="303.69" y="358.84000000000003" type="curve" smooth="yes"/>
      <point x="303.69" y="222.41"/>
      <point x="251.225" y="84.26500000000001"/>
      <point x="170.92499999999998" y="84.26500000000001" type="curve" smooth="yes"/>
      <point x="154.11" y="84.26500000000001"/>
      <point x="138.10000000000002" y="87.33500000000001"/>
      <point x="125.87500000000001" y="91.86000000000001" type="curve"/>
      <point x="178.07500000000002" y="423.53999999999996" type="line"/>
      <point x="199.76000000000002" y="438.07000000000005"/>
      <point x="224.805" y="446.83500000000004"/>
    </contour>
  </outline>
</glyph>
<glyph name="c" format="2">
  <advance width="364.25"/>
  <unicode hex="0063"/>
  <note>
10
</note>
  <anchor x="179.3" y="0.0" name="bottom"/>
  <anchor x="262.85" y="541.0" name="top"/>
  <outline>
    <contour>
      <point x="186.75" y="-10.0" type="curve" smooth="yes"/>
      <point x="231.40000000000003" y="-10.0"/>
      <point x="279.79999999999995" y="-2.4000000000000004"/>
      <point x="314.99999999999994" y="10.849999999999998" type="curve"/>
      <point x="304.0" y="103.80000000000003" type="line"/>
      <point x="275.65000000000003" y="97.40000000000002"/>
      <point x="248.35000000000002" y="93.65"/>
      <point x="217.80000000000004" y="93.65" type="curve" smooth="yes"/>
      <point x="162.45000000000002" y="93.65"/>
      <point x="129.95" y="132.10000000000002"/>
      <point x="129.95" y="195.29999999999998" type="curve" smooth="yes"/>
      <point x="129.95" y="326.25"/>
      <point x="187.4" y="446.8999999999999"/>
      <point x="268.95" y="446.8999999999999" type="curve" smooth="yes"/>
      <point x="296.6" y="446.8999999999999"/>
      <point x="321.75" y="444.3500000000001"/>
      <point x="353.4" y="434.84999999999997" type="curve"/>
      <point x="387.9" y="534.65" type="line"/>
      <point x="354.25000000000006" y="545.35"/>
      <point x="313.54999999999995" y="551.0"/>
      <point x="272.0" y="551.0" type="curve" smooth="yes"/>
      <point x="106.80000000000001" y="551.0"/>
      <point x="16.85" y="390.25000000000006"/>
      <point x="16.85" y="170.0" type="curve" smooth="yes"/>
      <point x="16.85" y="56.2"/>
      <point x="75.5" y="-10.0"/>
    </contour>
  </outline>
</glyph>
<glyph name="d" format="2">
  <advance width="437.2999999999999"/>
  <unicode hex="0064"/>
  <note>
17
</note>
  <anchor x="187.325" y="0.0" name="bottom"/>
  <anchor x="221.325" y="308.97499999999997" name="center"/>
  <anchor x="279.8999999999999" y="740.0" name="top"/>
  <anchor x="508.275" y="740.0" name="topright"/>
  <outline>
    <contour>
      <point x="330.225" y="-10.0" type="curve" smooth="yes"/>
      <point x="352.67499999999995" y="-10.0"/>
      <point x="379.87499999999994" y="-3.7499999999999996"/>
      <point x="397.6749999999999" y="6.6000000000000005" type="curve"/>
      <point x="405.0499999999999" y="97.44999999999999" type="line"/>
      <point x="398.35" y="94.875"/>
      <point x="391.15" y="93.52500000000002"/>
      <point x="384.375" y="93.52500000000002" type="curve" smooth="yes"/>
      <point x="370.775" y="93.52500000000002"/>
      <point x="365.17499999999995" y="100.50000000000001"/>
      <point x="365.17499999999995" y="114.02500000000002" type="curve" smooth="yes"/>
      <point x="365.17499999999995" y="127.97500000000001"/>
      <point x="426.125" y="506.67499999999995"/>
      <point x="462.8" y="740.0" type="curve"/>
      <point x="351.54999999999995" y="740.0" type="line"/>
      <point x="319.375" y="537.3000000000001" type="line"/>
      <point x="297.25000000000006" y="546.0"/>
      <point x="272.87499999999994" y="551.0"/>
      <point x="243.8" y="551.0" type="curve" smooth="yes"/>
      <point x="115.0" y="551.0"/>
      <point x="16.4" y="395.75"/>
      <point x="16.4" y="163.27499999999998" type="curve" smooth="yes"/>
      <point x="16.4" y="46.15"/>
      <point x="64.5" y="-10.0"/>
      <point x="141.825" y="-10.0" type="curve" smooth="yes"/>
      <point x="185.04999999999998" y="-10.0"/>
      <point x="226.29999999999998" y="10.024999999999999"/>
      <point x="253.72499999999997" y="34.375" type="curve"/>
      <point x="268.12499999999994" y="5.1499999999999995"/>
      <point x="293.4" y="-10.0"/>
    </contour>
    <contour>
      <point x="186.82500000000002" y="93.825" type="curve" smooth="yes"/>
      <point x="152.15" y="93.825"/>
      <point x="130.125" y="121.55000000000001"/>
      <point x="130.125" y="167.65" type="curve" smooth="yes"/>
      <point x="130.125" y="313.5"/>
      <point x="182.575" y="454.84999999999997"/>
      <point x="258.59999999999997" y="454.84999999999997" type="curve" smooth="yes"/>
      <point x="276.72499999999997" y="454.84999999999997"/>
      <point x="290.8" y="451.875"/>
      <point x="305.09999999999997" y="447.525" type="curve"/>
      <point x="252.22499999999997" y="113.30000000000001" type="line"/>
      <point x="234.125" y="101.60000000000001"/>
      <point x="209.87500000000003" y="93.825"/>
    </contour>
  </outline>
</glyph>
<glyph name="e" format="2">
  <advance width="403.7"/>
  <unicode hex="0065"/>
  <note>
14 points
</note>
  <anchor x="192.1" y="0.0" name="bottom"/>
  <anchor x="296.40000000000003" y="2.8" name="ogonek"/>
  <anchor x="261.6" y="541.75" name="top"/>
  <outline>
    <contour>
      <point x="106.95" y="292.35" type="curve"/>
      <point x="94.35" y="212.5" type="line"/>
      <point x="132.65" y="211.65"/>
      <point x="174.6" y="216.95"/>
      <point x="216.80000000000004" y="227.74999999999997" type="curve" smooth="yes"/>
      <point x="333.15000000000003" y="258.3999999999999"/>
      <point x="407.79999999999995" y="334.7"/>
      <point x="407.79999999999995" y="433.59999999999997" type="curve" smooth="yes"/>
      <point x="407.79999999999995" y="503.7"/>
      <point x="359.40000000000003" y="550.8499999999999"/>
      <point x="275.84999999999997" y="550.8499999999999" type="curve" smooth="yes"/>
      <point x="108.19999999999999" y="550.8499999999999"/>
      <point x="19.0" y="392.65"/>
      <point x="19.0" y="192.89999999999995" type="curve" smooth="yes"/>
      <point x="19.0" y="63.30000000000001"/>
      <point x="82.50000000000001" y="-10.0"/>
      <point x="197.55" y="-10.0" type="curve" smooth="yes"/>
      <point x="248.3" y="-10.0"/>
      <point x="304.59999999999997" y="0.44999999999999996"/>
      <point x="350.59999999999997" y="22.6" type="curve"/>
      <point x="332.95000000000005" y="119.45000000000003" type="line"/>
      <point x="288.1" y="101.05"/>
      <point x="247.3" y="93.20000000000003"/>
      <point x="214.8" y="93.20000000000003" type="curve" smooth="yes"/>
      <point x="156.39999999999998" y="93.20000000000003"/>
      <point x="127.00000000000001" y="126.05000000000001"/>
      <point x="127.2" y="209.0" type="curve" smooth="yes"/>
      <point x="127.50000000000001" y="357.95000000000005"/>
      <point x="183.99999999999997" y="456.85"/>
      <point x="257.40000000000003" y="456.80000000000007" type="curve" smooth="yes"/>
      <point x="287.5999999999999" y="456.80000000000007"/>
      <point x="301.74999999999994" y="444.4"/>
      <point x="301.74999999999994" y="413.90000000000003" type="curve" smooth="yes"/>
      <point x="301.65" y="362.1000000000001"/>
      <point x="259.5" y="325.34999999999997"/>
      <point x="191.15" y="304.59999999999997" type="curve" smooth="yes"/>
      <point x="164.24999999999997" y="296.44999999999993"/>
      <point x="134.35000000000005" y="291.59999999999997"/>
    </contour>
  </outline>
</glyph>
<glyph name="f" format="2">
  <advance width="280.13"/>
  <unicode hex="0066"/>
  <outline>
    <contour>
      <point x="-31.489999999999988" y="-220.0" type="curve" smooth="yes"/>
      <point x="62.81000000000001" y="-220.0"/>
      <point x="111.47" y="-155.54"/>
      <point x="132.46" y="-23.129999999999995" type="curve" smooth="yes"/>
      <point x="200.85999999999999" y="409.56" type="line"/>
      <point x="296.69" y="409.56" type="line"/>
      <point x="311.79" y="503.8" type="line"/>
      <point x="215.85" y="503.8" type="line"/>
      <point x="232.03" y="607.88"/>
      <point x="259.24" y="645.2"/>
      <point x="309.29" y="645.2" type="curve" smooth="yes"/>
      <point x="330.54999999999995" y="645.2"/>
      <point x="352.35" y="640.55"/>
      <point x="372.04" y="634.3" type="curve"/>
      <point x="403.04" y="727.65" type="line"/>
      <point x="371.1" y="741.1400000000001"/>
      <point x="338.02" y="750.0"/>
      <point x="297.24" y="750.0" type="curve" smooth="yes"/>
      <point x="195.41" y="750.0"/>
      <point x="130.03" y="673.27"/>
      <point x="104.8" y="503.8" type="curve"/>
      <point x="44.550000000000004" y="495.90999999999997" type="line"/>
      <point x="30.23" y="409.56" type="line"/>
      <point x="89.7" y="409.56" type="line"/>
      <point x="22.580000000000002" y="-17.129999999999995" type="line" smooth="yes"/>
      <point x="11.93" y="-83.53999999999999"/>
      <point x="-7.249999999999999" y="-115.88"/>
      <point x="-46.19" y="-115.88" type="curve" smooth="yes"/>
      <point x="-56.98" y="-115.88"/>
      <point x="-68.22999999999999" y="-114.66999999999999"/>
      <point x="-82.96000000000001" y="-109.71000000000001" type="curve"/>
      <point x="-110.46" y="-205.69" type="line"/>
      <point x="-84.72" y="-215.49"/>
      <point x="-59.66" y="-220.0"/>
    </contour>
  </outline>
</glyph>
<glyph name="g" format="2">
  <advance width="432.54999999999995"/>
  <unicode hex="0067"/>
  <note>
16
</note>
  <anchor x="132.70000000000002" y="-215.29999999999998" name="bottom"/>
  <anchor x="263.2" y="541.0" name="top"/>
  <outline>
    <contour>
      <point x="-15.15" y="-189.09999999999997" type="line"/>
      <point x="31.55" y="-208.95"/>
      <point x="85.44999999999999" y="-220.0"/>
      <point x="134.95000000000002" y="-220.0" type="curve" smooth="yes"/>
      <point x="254.10000000000002" y="-220.0"/>
      <point x="321.25000000000006" y="-152.34999999999997"/>
      <point x="344.15000000000003" y="-6.049999999999996" type="curve" smooth="yes"/>
      <point x="429.75" y="526.6" type="line"/>
      <point x="397.0" y="539.65"/>
      <point x="332.0" y="551.0"/>
      <point x="281.74999999999994" y="551.0" type="curve" smooth="yes"/>
      <point x="95.7" y="551.0"/>
      <point x="15.549999999999999" y="376.50000000000006"/>
      <point x="15.549999999999999" y="158.3" type="curve" smooth="yes"/>
      <point x="15.549999999999999" y="64.50000000000001"/>
      <point x="55.9" y="2.3000000000000025"/>
      <point x="136.04999999999998" y="2.3000000000000025" type="curve" smooth="yes"/>
      <point x="164.65" y="2.3000000000000025"/>
      <point x="206.95" y="12.650000000000002"/>
      <point x="239.15" y="30.450000000000003" type="curve"/>
      <point x="233.85" y="-9.649999999999993" type="line" smooth="yes"/>
      <point x="222.40000000000006" y="-90.69999999999999"/>
      <point x="187.55000000000004" y="-118.85000000000001"/>
      <point x="131.95000000000005" y="-118.85000000000001" type="curve" smooth="yes"/>
      <point x="97.4" y="-118.85000000000001"/>
      <point x="50.9" y="-108.84999999999998"/>
      <point x="16.150000000000002" y="-95.69999999999999" type="curve"/>
    </contour>
    <contour>
      <point x="305.50000000000006" y="449.69999999999993" type="curve"/>
      <point x="252.9" y="119.44999999999999" type="line"/>
      <point x="236.15" y="108.2"/>
      <point x="209.4" y="98.94999999999999"/>
      <point x="190.25" y="98.94999999999999" type="curve" smooth="yes"/>
      <point x="153.35000000000002" y="98.94999999999999"/>
      <point x="130.35000000000002" y="125.25000000000001"/>
      <point x="130.35000000000002" y="177.85" type="curve" smooth="yes"/>
      <point x="130.35000000000002" y="310.99999999999994"/>
      <point x="182.05" y="458.2"/>
      <point x="260.90000000000003" y="458.2" type="curve" smooth="yes"/>
      <point x="279.5" y="458.2"/>
      <point x="292.75000000000006" y="454.0"/>
    </contour>
  </outline>
</glyph>
<glyph name="h" format="2">
  <advance width="435.59999999999997"/>
  <unicode hex="0068"/>
  <note>
16
</note>
  <anchor x="178.08999999999997" y="0.0" name="bottom"/>
  <anchor x="234.02512" y="372.75" name="center"/>
  <anchor x="290.38000000000005" y="740.0" name="top"/>
  <outline>
    <contour>
      <point x="365.24499999999995" y="114.595" type="curve" smooth="yes"/>
      <point x="365.24499999999995" y="137.8"/>
      <point x="415.955" y="420.81"/>
      <point x="415.955" y="454.03999999999996" type="curve" smooth="yes"/>
      <point x="415.955" y="512.68"/>
      <point x="385.66" y="551.0"/>
      <point x="318.06" y="551.0" type="curve" smooth="yes"/>
      <point x="273.5450000000001" y="551.0"/>
      <point x="236.285" y="536.83"/>
      <point x="191.14999999999998" y="509.025" type="curve"/>
      <point x="228.315" y="740.0" type="line"/>
      <point x="116.75" y="740.0" type="line"/>
      <point x="-1.0450000000000013" y="0.0" type="line"/>
      <point x="110.54" y="0.0" type="line"/>
      <point x="177.615" y="422.45000000000005" type="line"/>
      <point x="203.585" y="437.55"/>
      <point x="231.13" y="448.05499999999995"/>
      <point x="255.04" y="448.05499999999995" type="curve" smooth="yes"/>
      <point x="287.41" y="448.05499999999995"/>
      <point x="297.89" y="430.275"/>
      <point x="297.89" y="406.245" type="curve" smooth="yes"/>
      <point x="297.89" y="379.53000000000003"/>
      <point x="247.95499999999998" y="103.99"/>
      <point x="247.95499999999998" y="66.005" type="curve" smooth="yes"/>
      <point x="247.95499999999998" y="20.889999999999997"/>
      <point x="281.625" y="-10.0"/>
      <point x="331.335" y="-10.0" type="curve" smooth="yes"/>
      <point x="353.885" y="-10.0"/>
      <point x="378.435" y="-4.3950000000000005"/>
      <point x="397.69" y="5.925000000000001" type="curve"/>
      <point x="405.75" y="97.99000000000001" type="line"/>
      <point x="397.96500000000003" y="95.19"/>
      <point x="391.36999999999995" y="94.04500000000002"/>
      <point x="386.14000000000004" y="94.04500000000002" type="curve" smooth="yes"/>
      <point x="371.82" y="94.04500000000002"/>
      <point x="365.24499999999995" y="100.91"/>
    </contour>
  </outline>
</glyph>
<glyph name="i" format="2">
  <advance width="198.09000000000003"/>
  <unicode hex="0069"/>
  <note>
Ajuster pts sur points
8
</note>
  <anchor x="55.088840000000005" y="0.0" name="bottom"/>
  <anchor x="110.91" y="0.0" name="ogonek"/>
  <anchor x="140.84116" y="541.0" name="top"/>
  <outline>
    <contour>
      <point x="0.08999999999999853" y="0.0" type="line"/>
      <point x="110.91" y="0.0" type="line"/>
      <point x="196.45" y="541.0" type="line"/>
      <point x="85.49000000000001" y="541.0" type="line"/>
    </contour>
    <contour>
      <point x="175.66" y="754.0" type="curve" smooth="yes"/>
      <point x="120.28" y="754.0"/>
      <point x="99.37" y="716.65"/>
      <point x="98.2" y="665.85" type="curve" smooth="yes"/>
      <point x="97.84" y="632.6400000000001"/>
      <point x="116.57" y="617.26"/>
      <point x="152.51000000000002" y="617.26" type="curve" smooth="yes"/>
      <point x="205.7" y="617.26"/>
      <point x="228.78" y="653.9499999999999"/>
      <point x="230.04000000000002" y="706.0500000000001" type="curve" smooth="yes"/>
      <point x="230.4" y="739.06"/>
      <point x="211.5" y="754.0"/>
    </contour>
  </outline>
</glyph>
<glyph name="j" format="2">
  <advance width="205.43"/>
  <unicode hex="006A"/>
  <note>
idem /i
12
</note>
  <outline>
    <contour>
      <point x="183.10999999999999" y="754.0" type="curve" smooth="yes"/>
      <point x="127.62" y="754.0"/>
      <point x="106.99999999999999" y="716.65"/>
      <point x="105.83" y="665.85" type="curve" smooth="yes"/>
      <point x="105.47" y="632.6400000000001"/>
      <point x="124.57000000000001" y="617.26"/>
      <point x="160.51000000000002" y="617.26" type="curve" smooth="yes"/>
      <point x="212.99" y="617.26"/>
      <point x="236.05000000000004" y="653.9499999999999"/>
      <point x="237.30999999999997" y="706.0500000000001" type="curve" smooth="yes"/>
      <point x="237.67000000000002" y="739.06"/>
      <point x="218.95000000000002" y="754.0"/>
    </contour>
    <contour>
      <point x="204.45" y="541.0" type="line"/>
      <point x="92.94" y="541.0" type="line"/>
      <point x="3.6700000000000004" y="-21.119999999999997" type="line" smooth="yes"/>
      <point x="-6.01" y="-81.55"/>
      <point x="-23.91" y="-115.88"/>
      <point x="-62.60000000000001" y="-115.88" type="curve" smooth="yes"/>
      <point x="-73.75" y="-115.88"/>
      <point x="-85.63" y="-114.86999999999999"/>
      <point x="-100.33" y="-109.66" type="curve"/>
      <point x="-126.31" y="-208.06000000000003" type="line"/>
      <point x="-100.64000000000001" y="-216.81000000000003"/>
      <point x="-70.27999999999999" y="-220.0"/>
      <point x="-49.25000000000001" y="-220.0" type="curve" smooth="yes"/>
      <point x="50.660000000000004" y="-220.0"/>
      <point x="93.68" y="-154.73"/>
      <point x="114.73000000000002" y="-21.169999999999995" type="curve" smooth="yes"/>
    </contour>
  </outline>
</glyph>
<glyph name="k" format="2">
  <advance width="411.95000000000005"/>
  <unicode hex="006B"/>
  <anchor x="180.15000000000003" y="0.0" name="bottom"/>
  <anchor x="173.35000000000002" y="740.0" name="top"/>
  <outline>
    <contour>
      <point x="-0.25000000000000067" y="0.0" type="line"/>
      <point x="111.50000000000001" y="0.0" type="line"/>
      <point x="228.99999999999997" y="740.0" type="line"/>
      <point x="116.75000000000001" y="740.0" type="line"/>
    </contour>
    <contour>
      <point x="335.34999999999997" y="-10.0" type="curve" smooth="yes"/>
      <point x="347.3" y="-10.0"/>
      <point x="359.2" y="-8.450000000000001"/>
      <point x="371.74999999999994" y="-3.8" type="curve"/>
      <point x="385.95" y="107.10000000000001" type="line"/>
      <point x="378.90000000000003" y="106.2"/>
      <point x="372.85" y="106.25000000000001"/>
      <point x="367.25" y="106.8" type="curve" smooth="yes"/>
      <point x="337.65" y="109.5"/>
      <point x="308.75000000000006" y="132.3"/>
      <point x="250.65" y="228.15" type="curve" smooth="yes"/>
      <point x="158.29999999999998" y="378.8" type="line"/>
      <point x="133.05" y="237.5" type="line"/>
      <point x="209.15" y="107.6" type="line" smooth="yes"/>
      <point x="256.69999999999993" y="25.099999999999998"/>
      <point x="289.65000000000003" y="-10.0"/>
    </contour>
    <contour>
      <point x="231.1" y="242.45" type="line"/>
      <point x="322.3" y="317.65"/>
      <point x="402.1" y="431.59999999999997"/>
      <point x="439.0" y="539.6999999999999" type="curve"/>
      <point x="329.29999999999995" y="551.0" type="line"/>
      <point x="292.45" y="442.3"/>
      <point x="241.3" y="374.15000000000003"/>
      <point x="168.4" y="311.50000000000006" type="curve"/>
    </contour>
  </outline>
</glyph>
<glyph name="l" format="2">
  <advance width="219.52999999999997"/>
  <unicode hex="006C"/>
  <anchor x="95.94" y="0.0" name="bottom"/>
  <anchor x="122.71066" y="372.75" name="center"/>
  <anchor x="172.21999999999997" y="740.0" name="top"/>
  <anchor x="273.4" y="740.0" name="topright"/>
  <outline>
    <contour>
      <point x="116.82" y="740.0" type="line"/>
      <point x="17.49" y="112.85000000000001" type="line" smooth="yes"/>
      <point x="15.520000000000003" y="99.78"/>
      <point x="13.920000000000002" y="85.01"/>
      <point x="13.920000000000002" y="72.96" type="curve" smooth="yes"/>
      <point x="13.920000000000002" y="20.659999999999997"/>
      <point x="40.38" y="-10.0"/>
      <point x="98.33000000000001" y="-10.0" type="curve" smooth="yes"/>
      <point x="127.53999999999999" y="-10.0"/>
      <point x="160.4" y="-2.4399999999999995"/>
      <point x="183.68" y="8.900000000000002" type="curve"/>
      <point x="191.47" y="101.59" type="line"/>
      <point x="177.59" y="97.73"/>
      <point x="166.8" y="95.92"/>
      <point x="157.32000000000002" y="95.92" type="curve" smooth="yes"/>
      <point x="137.65" y="95.92"/>
      <point x="131.10000000000002" y="105.82"/>
      <point x="131.10000000000002" y="120.98" type="curve" smooth="yes"/>
      <point x="131.10000000000002" y="130.20999999999998"/>
      <point x="132.98000000000002" y="141.15"/>
      <point x="135.26000000000002" y="155.59000000000003" type="curve" smooth="yes"/>
      <point x="227.98" y="740.0" type="line"/>
    </contour>
  </outline>
</glyph>
<glyph name="m" format="2">
  <advance width="646.5600000000001"/>
  <unicode hex="006D"/>
  <note>
24&gt;23 points
un point de trop dans la jointure avec 2e jambage
</note>
  <outline>
    <contour>
      <point x="541.2900000000001" y="-10.0" type="curve" smooth="yes"/>
      <point x="563.6600000000001" y="-10.0"/>
      <point x="590.49" y="-4.62"/>
      <point x="608.74" y="5.790000000000001" type="curve"/>
      <point x="616.62" y="97.18" type="line"/>
      <point x="609.15" y="94.38"/>
      <point x="602.1500000000001" y="93.64000000000001"/>
      <point x="597.0100000000001" y="93.64000000000001" type="curve" smooth="yes"/>
      <point x="582.7800000000001" y="93.64000000000001"/>
      <point x="575.53" y="101.78000000000002"/>
      <point x="575.53" y="116.83000000000001" type="curve" smooth="yes"/>
      <point x="575.53" y="148.09"/>
      <point x="626.87" y="423.62"/>
      <point x="626.87" y="456.40999999999997" type="curve" smooth="yes"/>
      <point x="626.87" y="511.43999999999994"/>
      <point x="596.4200000000001" y="551.0"/>
      <point x="528.65" y="551.0" type="curve" smooth="yes"/>
      <point x="485.74" y="551.0"/>
      <point x="443.15" y="536.2900000000001"/>
      <point x="393.49" y="499.65" type="curve"/>
      <point x="381.56" y="531.26"/>
      <point x="353.86" y="551.0"/>
      <point x="308.68" y="551.0" type="curve" smooth="yes"/>
      <point x="268.59999999999997" y="551.0"/>
      <point x="226.71000000000004" y="536.3000000000001"/>
      <point x="180.31000000000003" y="504.62" type="curve"/>
      <point x="186.29999999999998" y="541.0" type="line"/>
      <point x="85.02" y="541.0" type="line"/>
      <point x="-0.5400000000000009" y="0.0" type="line"/>
      <point x="110.53" y="0.0" type="line"/>
      <point x="177.66" y="424.34000000000003" type="line"/>
      <point x="200.38" y="438.73999999999995"/>
      <point x="223.79" y="448.09999999999997"/>
      <point x="245.52999999999997" y="448.09999999999997" type="curve" smooth="yes"/>
      <point x="275.34000000000003" y="448.09999999999997"/>
      <point x="286.65000000000003" y="430.3"/>
      <point x="286.65000000000003" y="405.84" type="curve" smooth="yes"/>
      <point x="286.65000000000003" y="386.96999999999997"/>
      <point x="241.49" y="114.59"/>
      <point x="223.10999999999999" y="0.0" type="curve"/>
      <point x="333.66" y="0.0" type="line"/>
      <point x="348.62999999999994" y="94.19000000000003"/>
      <point x="385.21" y="322.22"/>
      <point x="395.77" y="399.31" type="curve" smooth="yes"/>
      <point x="396.32" y="405.91"/>
      <point x="397.19" y="416.8"/>
      <point x="397.2" y="422.38" type="curve"/>
      <point x="419.70000000000005" y="437.43"/>
      <point x="443.1" y="447.77"/>
      <point x="467.41" y="447.77" type="curve" smooth="yes"/>
      <point x="497.84" y="447.77"/>
      <point x="508.65999999999997" y="430.23999999999995"/>
      <point x="508.65999999999997" y="405.38000000000005" type="curve" smooth="yes"/>
      <point x="508.65999999999997" y="378.01"/>
      <point x="458.88" y="107.9"/>
      <point x="458.88" y="67.28" type="curve" smooth="yes"/>
      <point x="458.88" y="18.16"/>
      <point x="491.76000000000005" y="-10.0"/>
    </contour>
  </outline>
</glyph>
<glyph name="n" format="2">
  <advance width="434.88000000000005"/>
  <unicode hex="006E"/>
  <note>
16
</note>
  <anchor x="185.93" y="0.0" name="bottom"/>
  <anchor x="255.58" y="541.0" name="top"/>
  <outline>
    <contour>
      <point x="85.02" y="541.0" type="line"/>
      <point x="-0.5400000000000009" y="0.0" type="line"/>
      <point x="110.42" y="0.0" type="line"/>
      <point x="178.01000000000002" y="422.90000000000003" type="line"/>
      <point x="203.06" y="437.67"/>
      <point x="230.37" y="448.46000000000004"/>
      <point x="255.19" y="448.46000000000004" type="curve" smooth="yes"/>
      <point x="287.18" y="448.46000000000004"/>
      <point x="298.6" y="431.00999999999993"/>
      <point x="298.6" y="405.93000000000006" type="curve" smooth="yes"/>
      <point x="298.6" y="374.25"/>
      <point x="248.71" y="109.0"/>
      <point x="248.71" y="63.760000000000005" type="curve" smooth="yes"/>
      <point x="248.71" y="21.240000000000002"/>
      <point x="280.96" y="-10.0"/>
      <point x="330.48999999999995" y="-10.0" type="curve" smooth="yes"/>
      <point x="352.86" y="-10.0"/>
      <point x="378.81" y="-4.62"/>
      <point x="397.06" y="5.790000000000001" type="curve"/>
      <point x="404.93999999999994" y="97.18" type="line"/>
      <point x="397.47" y="94.38"/>
      <point x="390.47" y="93.64000000000001"/>
      <point x="385.33" y="93.64000000000001" type="curve" smooth="yes"/>
      <point x="371.1" y="93.64000000000001"/>
      <point x="364.48" y="100.55"/>
      <point x="364.48" y="114.28" type="curve" smooth="yes"/>
      <point x="364.48" y="137.62"/>
      <point x="416.26000000000005" y="420.54"/>
      <point x="416.26000000000005" y="453.77" type="curve" smooth="yes"/>
      <point x="416.26000000000005" y="513.8599999999999"/>
      <point x="382.76000000000005" y="551.0"/>
      <point x="317.41" y="551.0" type="curve" smooth="yes"/>
      <point x="271.95000000000005" y="551.0"/>
      <point x="225.90000000000003" y="535.6999999999999"/>
      <point x="180.35" y="503.99000000000007" type="curve"/>
      <point x="186.08" y="541.0" type="line"/>
    </contour>
  </outline>
</glyph>
<glyph name="o" format="2">
  <advance width="423.40000000000003"/>
  <unicode hex="006F"/>
  <note>
8
</note>
  <anchor x="172.22220000000002" y="0.0" name="bottom"/>
  <anchor x="213.05" y="271.40000000000003" name="center"/>
  <anchor x="240.15" y="0.0" name="ogonek"/>
  <anchor x="248.20000000000002" y="541.0" name="top"/>
  <anchor x="343.20000000000005" y="531.9" name="topright"/>
  <outline>
    <contour>
      <point x="186.25000000000003" y="-9.950000000000001" type="curve" smooth="yes"/>
      <point x="344.4" y="-9.950000000000001"/>
      <point x="403.35" y="201.45"/>
      <point x="403.35" y="380.25" type="curve" smooth="yes"/>
      <point x="403.35" y="499.25"/>
      <point x="347.70000000000005" y="551.5"/>
      <point x="237.1" y="551.5" type="curve" smooth="yes"/>
      <point x="75.85" y="551.5"/>
      <point x="17.8" y="333.85"/>
      <point x="17.8" y="160.75" type="curve" smooth="yes"/>
      <point x="17.8" y="42.74999999999999"/>
      <point x="72.10000000000001" y="-9.950000000000001"/>
    </contour>
    <contour>
      <point x="185.3" y="86.55000000000001" type="curve" smooth="yes"/>
      <point x="148.35" y="86.5"/>
      <point x="126.85000000000001" y="105.10000000000001"/>
      <point x="126.75000000000001" y="159.55" type="curve" smooth="yes"/>
      <point x="126.55000000000001" y="242.74999999999994"/>
      <point x="160.5" y="454.9"/>
      <point x="236.3" y="455.0" type="curve" smooth="yes"/>
      <point x="270.95" y="455.05"/>
      <point x="293.8500000000001" y="436.9"/>
      <point x="293.95000000000005" y="385.6" type="curve" smooth="yes"/>
      <point x="294.1500000000001" y="294.3"/>
      <point x="260.19999999999993" y="86.65"/>
    </contour>
  </outline>
</glyph>
<glyph name="p" format="2">
  <advance width="433.02500000000003"/>
  <unicode hex="0070"/>
  <note>
14 point
</note>
  <outline>
    <contour>
      <point x="-33.07000000000001" y="-210.0" type="line"/>
      <point x="77.145" y="-210.0" type="line"/>
      <point x="110.415" y="-0.74" type="line"/>
      <point x="128.56500000000003" y="-5.27"/>
      <point x="151.555" y="-9.175"/>
      <point x="180.73499999999999" y="-9.175" type="curve" smooth="yes"/>
      <point x="334.25000000000006" y="-9.175"/>
      <point x="416.74" y="173.05"/>
      <point x="416.74" y="375.045" type="curve" smooth="yes"/>
      <point x="416.74" y="492.39"/>
      <point x="378.3550000000001" y="551.0"/>
      <point x="299.02000000000004" y="551.0" type="curve" smooth="yes"/>
      <point x="251.795" y="551.0"/>
      <point x="217.98" y="530.97"/>
      <point x="186.025" y="508.425" type="curve"/>
      <point x="186.10000000000002" y="544.6" type="line"/>
      <point x="85.85000000000001" y="544.6" type="line"/>
    </contour>
    <contour>
      <point x="170.20499999999998" y="84.26500000000001" type="curve" smooth="yes"/>
      <point x="153.39000000000001" y="84.26500000000001"/>
      <point x="138.10000000000002" y="87.065"/>
      <point x="125.51500000000003" y="91.59000000000002" type="curve"/>
      <point x="177.985" y="423.725" type="line"/>
      <point x="198.67499999999998" y="437.26000000000005"/>
      <point x="224.535" y="446.83500000000004"/>
      <point x="246.795" y="446.83500000000004" type="curve" smooth="yes"/>
      <point x="284.69999999999993" y="446.83500000000004"/>
      <point x="303.69" y="419.825"/>
      <point x="303.69" y="355.72999999999996" type="curve" smooth="yes"/>
      <point x="303.69" y="224.57500000000002"/>
      <point x="252.5" y="84.26500000000001"/>
    </contour>
  </outline>
</glyph>
<glyph name="q" format="2">
  <advance width="432.07"/>
  <unicode hex="0071"/>
  <note>
12
</note>
  <outline>
    <contour>
      <point x="428.95500000000004" y="526.6700000000001" type="line"/>
      <point x="390.795" y="538.4150000000001"/>
      <point x="333.125" y="551.0"/>
      <point x="274.375" y="551.0" type="curve" smooth="yes"/>
      <point x="97.24499999999999" y="551.0"/>
      <point x="15.209999999999999" y="355.43500000000006"/>
      <point x="15.209999999999999" y="154.17" type="curve" smooth="yes"/>
      <point x="15.209999999999999" y="45.985"/>
      <point x="60.580000000000005" y="-10.0"/>
      <point x="139.72" y="-10.0" type="curve" smooth="yes"/>
      <point x="176.215" y="-10.0"/>
      <point x="207.925" y="3.9850000000000003"/>
      <point x="238.09" y="26.155" type="curve"/>
      <point x="200.10500000000002" y="-210.0" type="line"/>
      <point x="310.85" y="-210.0" type="line"/>
    </contour>
    <contour>
      <point x="305.105" y="447.845" type="curve"/>
      <point x="252.36499999999998" y="116.185" type="line"/>
      <point x="230.67" y="100.66000000000001"/>
      <point x="207.60500000000002" y="93.06500000000001"/>
      <point x="186.35500000000002" y="93.06500000000001" type="curve" smooth="yes"/>
      <point x="150.27" y="93.06500000000001"/>
      <point x="128.73000000000002" y="123.32"/>
      <point x="128.73000000000002" y="171.985" type="curve" smooth="yes"/>
      <point x="128.73000000000002" y="294.46000000000004"/>
      <point x="172.275" y="455.44500000000005"/>
      <point x="258.79" y="455.44500000000005" type="curve" smooth="yes"/>
      <point x="276.175" y="455.44500000000005"/>
      <point x="291.9" y="452.01000000000005"/>
    </contour>
  </outline>
</glyph>
<glyph name="r" format="2">
  <advance width="301.84999999999997"/>
  <unicode hex="0072"/>
  <anchor x="53.56" y="0.0" name="bottom"/>
  <anchor x="222.55" y="541.0" name="top"/>
  <outline>
    <contour>
      <point x="185.10999999999999" y="541.0" type="line"/>
      <point x="85.24000000000001" y="541.0" type="line"/>
      <point x="-0.6500000000000004" y="0.0" type="line"/>
      <point x="109.12000000000002" y="0.0" type="line"/>
      <point x="172.17999999999998" y="393.72" type="line"/>
      <point x="207.17" y="422.69"/>
      <point x="235.39999999999998" y="433.14"/>
      <point x="263.36" y="433.14" type="curve" smooth="yes"/>
      <point x="277.68" y="433.14"/>
      <point x="296.21" y="430.69"/>
      <point x="312.74" y="425.6" type="curve"/>
      <point x="347.7" y="541.4699999999999" type="line"/>
      <point x="330.91999999999996" y="548.48"/>
      <point x="313.45" y="551.0"/>
      <point x="294.27000000000004" y="551.0" type="curve" smooth="yes"/>
      <point x="257.24" y="551.0"/>
      <point x="221.49" y="532.38"/>
      <point x="176.73000000000002" y="488.98999999999995" type="curve"/>
    </contour>
  </outline>
</glyph>
<glyph name="s" format="2">
  <advance width="364.55"/>
  <unicode hex="0073"/>
  <anchor x="142.45" y="0.0" name="bottom"/>
  <anchor x="234.4" y="541.0" name="top"/>
  <outline>
    <contour>
      <point x="-20.1" y="20.250000000000004" type="line"/>
      <point x="21.45" y="2.0500000000000007"/>
      <point x="69.75" y="-10.0"/>
      <point x="135.3" y="-10.0" type="curve" smooth="yes"/>
      <point x="257.5" y="-10.0"/>
      <point x="331.85" y="48.5"/>
      <point x="331.85" y="167.04999999999998" type="curve" smooth="yes"/>
      <point x="331.85" y="321.65000000000003"/>
      <point x="146.8" y="309.45000000000005"/>
      <point x="146.8" y="393.09999999999997" type="curve" smooth="yes"/>
      <point x="146.8" y="429.25"/>
      <point x="170.7" y="453.40000000000003"/>
      <point x="229.05" y="453.40000000000003" type="curve" smooth="yes"/>
      <point x="264.8" y="453.40000000000003"/>
      <point x="306.40000000000003" y="443.84999999999997"/>
      <point x="339.05" y="431.45" type="curve"/>
      <point x="367.65000000000003" y="526.3" type="line"/>
      <point x="336.8" y="540.6500000000001"/>
      <point x="288.85" y="551.0"/>
      <point x="237.55" y="551.0" type="curve" smooth="yes"/>
      <point x="103.0" y="551.0"/>
      <point x="41.6" y="476.3"/>
      <point x="41.6" y="380.1" type="curve" smooth="yes"/>
      <point x="41.6" y="220.2"/>
      <point x="226.75" y="236.15"/>
      <point x="226.75" y="150.35" type="curve" smooth="yes"/>
      <point x="226.75" y="114.30000000000001"/>
      <point x="201.04999999999998" y="86.2"/>
      <point x="139.65000000000003" y="86.2" type="curve" smooth="yes"/>
      <point x="96.7" y="86.2"/>
      <point x="44.900000000000006" y="98.60000000000001"/>
      <point x="10.850000000000001" y="113.50000000000001" type="curve"/>
    </contour>
  </outline>
</glyph>
<glyph name="t" format="2">
  <advance width="285.38"/>
  <unicode hex="0074"/>
  <anchor x="132.3" y="0.0" name="bottom"/>
  <anchor x="138.02" y="295.88" name="center"/>
  <anchor x="183.25000000000003" y="660.1600000000001" name="top"/>
  <anchor x="313.42999999999995" y="761.45" name="topright"/>
  <outline>
    <contour>
      <point x="247.43" y="102.95" type="line"/>
      <point x="227.74" y="97.82000000000001"/>
      <point x="211.60000000000002" y="94.36"/>
      <point x="196.78" y="94.36" type="curve" smooth="yes"/>
      <point x="162.58" y="94.36"/>
      <point x="149.89000000000001" y="112.07000000000001"/>
      <point x="149.89000000000001" y="142.56" type="curve" smooth="yes"/>
      <point x="149.89000000000001" y="151.86"/>
      <point x="151.14000000000001" y="162.05"/>
      <point x="152.68" y="173.87" type="curve" smooth="yes"/>
      <point x="196.77" y="446.93999999999994" type="line"/>
      <point x="303.61" y="446.93999999999994" type="line"/>
      <point x="319.81" y="541.0" type="line"/>
      <point x="212.64000000000001" y="541.0" type="line"/>
      <point x="231.31000000000003" y="660.1600000000001" type="line"/>
      <point x="136.07" y="660.1600000000001" type="line"/>
      <point x="102.56" y="541.0" type="line"/>
      <point x="42.87" y="533.46" type="line"/>
      <point x="27.8" y="447.38" type="line"/>
      <point x="86.03" y="447.38" type="line"/>
      <point x="40.730000000000004" y="163.64000000000001" type="line" smooth="yes"/>
      <point x="36.63" y="138.96"/>
      <point x="33.669999999999995" y="109.0"/>
      <point x="33.669999999999995" y="90.21" type="curve" smooth="yes"/>
      <point x="33.669999999999995" y="15.520000000000001"/>
      <point x="77.4" y="-10.0"/>
      <point x="136.22" y="-10.0" type="curve" smooth="yes"/>
      <point x="172.02" y="-10.0"/>
      <point x="206.32" y="-3.3399999999999994"/>
      <point x="240.2" y="10.73" type="curve"/>
    </contour>
  </outline>
</glyph>
<glyph name="u" format="2">
  <advance width="432.09999999999997"/>
  <unicode hex="0075"/>
  <note>
15
</note>
  <anchor x="174.42999999999998" y="0.0" name="bottom"/>
  <anchor x="392.6" y="9.46" name="ogonek"/>
  <anchor x="254.68464" y="541.0" name="top"/>
  <anchor x="412.74" y="541.0" name="topright"/>
  <outline>
    <contour>
      <point x="116.33000000000001" y="-10.0" type="curve" smooth="yes"/>
      <point x="163.13" y="-10.0"/>
      <point x="202.83999999999997" y="7.4"/>
      <point x="248.66000000000003" y="42.92999999999999" type="curve"/>
      <point x="257.33" y="10.63"/>
      <point x="285.15" y="-10.0"/>
      <point x="323.11" y="-10.0" type="curve" smooth="yes"/>
      <point x="345.19" y="-10.0"/>
      <point x="374.15000000000003" y="-2.13"/>
      <point x="392.6" y="10.67" type="curve"/>
      <point x="399.98999999999995" y="97.1" type="line"/>
      <point x="391.66" y="93.97"/>
      <point x="383.39" y="92.62"/>
      <point x="379.03" y="92.62" type="curve" smooth="yes"/>
      <point x="365.31" y="92.62"/>
      <point x="359.56000000000006" y="100.79000000000002"/>
      <point x="359.56000000000006" y="116.68" type="curve" smooth="yes"/>
      <point x="359.56000000000006" y="124.54"/>
      <point x="361.28" y="139.20000000000002"/>
      <point x="425.94" y="541.0" type="curve"/>
      <point x="315.99" y="541.0" type="line"/>
      <point x="248.72000000000003" y="117.34" type="line"/>
      <point x="222.24999999999997" y="100.59"/>
      <point x="197.94" y="91.44000000000001"/>
      <point x="171.92000000000002" y="91.44000000000001" type="curve" smooth="yes"/>
      <point x="144.28" y="91.44000000000001"/>
      <point x="129.77" y="108.35000000000001"/>
      <point x="130.65" y="133.85" type="curve" smooth="yes"/>
      <point x="138.57000000000002" y="194.27"/>
      <point x="149.8" y="264.62"/>
      <point x="193.73" y="541.0" type="curve"/>
      <point x="83.43" y="541.0" type="line"/>
      <point x="34.800000000000004" y="232.48"/>
      <point x="14.52" y="131.08"/>
      <point x="14.52" y="84.3" type="curve" smooth="yes"/>
      <point x="14.52" y="28.319999999999997"/>
      <point x="49.87" y="-10.0"/>
    </contour>
  </outline>
</glyph>
<glyph name="v" format="2">
  <advance width="393.46999999999997"/>
  <unicode hex="0076"/>
  <outline>
    <contour>
      <point x="215.04" y="-1.2399999999999998" type="line"/>
      <point x="339.57000000000005" y="264.19"/>
      <point x="409.97999999999996" y="393.45"/>
      <point x="416.31" y="541.0" type="curve"/>
      <point x="301.45" y="541.0" type="line"/>
      <point x="298.21999999999997" y="423.63"/>
      <point x="262.09" y="340.71999999999997"/>
      <point x="164.26" y="106.2" type="curve"/>
      <point x="158.73000000000002" y="541.9" type="line"/>
      <point x="41.67" y="541.17" type="line"/>
      <point x="77.6" y="-1.2399999999999998" type="line"/>
    </contour>
  </outline>
</glyph>
<glyph name="w" format="2">
  <advance width="605.54"/>
  <unicode hex="0077"/>
  <note>
15
</note>
  <anchor x="263.92" y="0.0" name="bottom"/>
  <anchor x="330.90000000000003" y="541.0" name="top"/>
  <outline>
    <contour>
      <point x="442.36" y="0.0" type="line"/>
      <point x="565.74" y="283.87999999999994"/>
      <point x="621.5000000000001" y="403.72"/>
      <point x="624.98" y="541.0" type="curve"/>
      <point x="517.3599999999999" y="541.0" type="line"/>
      <point x="510.56" y="423.03999999999996"/>
      <point x="483.82" y="338.99999999999994"/>
      <point x="393.04" y="109.62" type="curve"/>
      <point x="400.67999999999995" y="519.96" type="line"/>
      <point x="276.65999999999997" y="519.96" type="line"/>
      <point x="232.66" y="378.26"/>
      <point x="189.42000000000002" y="246.04000000000002"/>
      <point x="144.12" y="108.98" type="curve"/>
      <point x="153.88" y="541.9" type="line"/>
      <point x="41.74" y="541.26" type="line"/>
      <point x="55.779999999999994" y="0.0" type="line"/>
      <point x="192.14" y="0.0" type="line"/>
      <point x="232.98000000000002" y="120.2"/>
      <point x="275.38" y="246.83999999999997"/>
      <point x="313.53999999999996" y="364.85999999999996" type="curve"/>
      <point x="313.50000000000006" y="0.0" type="line"/>
    </contour>
  </outline>
</glyph>
<glyph name="x" format="2">
  <advance width="413.03"/>
  <unicode hex="0078"/>
  <outline>
    <contour>
      <point x="319.305" y="541.0" type="line"/>
      <point x="311.32500000000005" y="469.07500000000005"/>
      <point x="283.915" y="413.85999999999996"/>
      <point x="225.88000000000002" y="337.735" type="curve"/>
      <point x="180.195" y="544.61" type="line"/>
      <point x="58.120000000000005" y="540.59" type="line"/>
      <point x="134.515" y="282.305" type="line"/>
      <point x="44.585" y="187.10500000000002"/>
      <point x="-5.825000000000002" y="97.28"/>
      <point x="-19.049999999999997" y="0.0" type="curve"/>
      <point x="98.60000000000001" y="0.0" type="line"/>
      <point x="108.66" y="77.35000000000001"/>
      <point x="143.17999999999998" y="141.28500000000003"/>
      <point x="197.35000000000002" y="209.35" type="curve"/>
      <point x="245.20499999999998" y="-1.3899999999999997" type="line"/>
      <point x="368.325" y="1.0849999999999997" type="line"/>
      <point x="287.33500000000004" y="267.725" type="line"/>
      <point x="382.78000000000003" y="371.155"/>
      <point x="425.255" y="476.64"/>
      <point x="434.935" y="541.0" type="curve"/>
    </contour>
  </outline>
</glyph>
<glyph name="y" format="2">
  <advance width="397.65000000000003"/>
  <unicode hex="0079"/>
  <anchor x="156.10000000000002" y="-188.99999999999997" name="bottom"/>
  <anchor x="230.3" y="541.0" name="top"/>
  <outline>
    <contour>
      <point x="312.55000000000007" y="544.4" type="line"/>
      <point x="297.29999999999995" y="391.04999999999995"/>
      <point x="241.10000000000002" y="245.45"/>
      <point x="177.85" y="100.05000000000001" type="curve"/>
      <point x="150.20000000000002" y="545.5" type="line"/>
      <point x="38.5" y="544.0500000000001" type="line"/>
      <point x="83.9" y="-1.1" type="line"/>
      <point x="123.54999999999998" y="-1.1" type="line"/>
      <point x="91.39999999999999" y="-69.49999999999999"/>
      <point x="52.6" y="-135.5"/>
      <point x="6.6000000000000005" y="-209.45" type="curve"/>
      <point x="119.30000000000001" y="-214.5" type="line"/>
      <point x="265.04999999999995" y="51.70000000000001"/>
      <point x="397.25" y="315.1"/>
      <point x="422.70000000000005" y="543.15" type="curve"/>
    </contour>
  </outline>
</glyph>
<glyph name="z" format="2">
  <advance width="386.86"/>
  <unicode hex="007A"/>
  <anchor x="161.73000000000002" y="0.0" name="bottom"/>
  <anchor x="191.70999999999998" y="275.0" name="center"/>
  <anchor x="237.68" y="541.0" name="top"/>
  <outline>
    <contour>
      <point x="-13.6" y="0.0" type="line"/>
      <point x="330.88" y="0.0" type="line"/>
      <point x="346.09" y="96.60000000000001" type="line"/>
      <point x="129.69000000000003" y="96.60000000000001" type="line"/>
      <point x="383.62" y="448.31" type="line"/>
      <point x="401.41" y="541.0" type="line"/>
      <point x="76.79" y="541.0" type="line"/>
      <point x="61.029999999999994" y="443.52000000000004" type="line"/>
      <point x="257.78999999999996" y="443.52000000000004" type="line"/>
      <point x="-0.3800000000000001" y="86.75000000000001" type="line"/>
    </contour>
  </outline>
</glyph>
<glyph name="braceleft" format="2">
  <advance width="268.15999999999997"/>
  <unicode hex="007B"/>
  <outline>
    <contour>
      <point x="13.899999999999999" y="-99.64999999999999" type="curve" smooth="yes"/>
      <point x="13.899999999999999" y="-173.2"/>
      <point x="51.279999999999994" y="-210.0"/>
      <point x="109.39" y="-210.0" type="curve" smooth="yes"/>
      <point x="167.34" y="-210.0" type="line"/>
      <point x="182.88000000000002" y="-118.5" type="line"/>
      <point x="153.86" y="-118.5" type="line" smooth="yes"/>
      <point x="125.02999999999999" y="-118.5"/>
      <point x="113.37" y="-98.54999999999998"/>
      <point x="113.37" y="-68.02000000000001" type="curve" smooth="yes"/>
      <point x="113.37" y="21.020000000000003"/>
      <point x="175.45000000000002" y="96.69"/>
      <point x="175.45000000000002" y="184.62000000000003" type="curve" smooth="yes"/>
      <point x="175.45000000000002" y="217.79999999999998"/>
      <point x="166.78" y="248.32"/>
      <point x="138.28" y="268.15000000000003" type="curve"/>
      <point x="191.03" y="293.92"/>
      <point x="214.75" y="361.41"/>
      <point x="214.75" y="424.25" type="curve" smooth="yes"/>
      <point x="214.75" y="461.95"/>
      <point x="210.26" y="488.53"/>
      <point x="210.26" y="533.1" type="curve" smooth="yes"/>
      <point x="210.26" y="585.24"/>
      <point x="225.3" y="648.5"/>
      <point x="278.9" y="648.5" type="curve" smooth="yes"/>
      <point x="305.59999999999997" y="648.5" type="line"/>
      <point x="320.26" y="740.0" type="line"/>
      <point x="264.11" y="740.0" type="line" smooth="yes"/>
      <point x="153.70000000000002" y="740.0"/>
      <point x="114.55000000000001" y="632.14"/>
      <point x="114.55000000000001" y="525.7900000000001" type="curve" smooth="yes"/>
      <point x="114.55000000000001" y="480.04"/>
      <point x="120.25" y="450.33000000000004"/>
      <point x="120.25" y="416.38" type="curve" smooth="yes"/>
      <point x="120.25" y="370.90000000000003"/>
      <point x="111.01" y="315.90999999999997"/>
      <point x="71.58" y="315.90999999999997" type="curve" smooth="yes"/>
      <point x="57.36" y="315.90999999999997" type="line"/>
      <point x="42.260000000000005" y="221.12" type="line"/>
      <point x="55.85" y="221.12" type="line" smooth="yes"/>
      <point x="77.22" y="221.12"/>
      <point x="83.69" y="205.85999999999999"/>
      <point x="83.69" y="183.89999999999998" type="curve" smooth="yes"/>
      <point x="83.69" y="98.46000000000001"/>
      <point x="13.899999999999999" y="12.0"/>
    </contour>
  </outline>
</glyph>
<glyph name="bar" format="2">
  <advance width="174.46"/>
  <unicode hex="007C"/>
  <outline>
    <contour>
      <point x="215.85" y="790.4399999999999" type="line"/>
      <point x="122.5" y="790.4399999999999" type="line"/>
      <point x="-36.83" y="-210.0" type="line"/>
      <point x="56.85000000000001" y="-210.0" type="line"/>
    </contour>
  </outline>
</glyph>
<glyph name="braceright" format="2">
  <advance width="268.15999999999997"/>
  <unicode hex="007D"/>
  <outline>
    <contour>
      <point x="251.17" y="629.65" type="curve" smooth="yes"/>
      <point x="251.17" y="703.64"/>
      <point x="213.35" y="740.4399999999999"/>
      <point x="155.24" y="740.4399999999999" type="curve" smooth="yes"/>
      <point x="97.29" y="740.4399999999999" type="line"/>
      <point x="81.75" y="648.9399999999999" type="line"/>
      <point x="106.37" y="648.9399999999999" type="line" smooth="yes"/>
      <point x="135.64000000000001" y="648.9399999999999"/>
      <point x="147.74" y="628.55"/>
      <point x="147.74" y="598.02" type="curve" smooth="yes"/>
      <point x="147.74" y="508.09999999999997"/>
      <point x="85.66000000000001" y="444.46999999999997"/>
      <point x="85.66000000000001" y="347.3" type="curve" smooth="yes"/>
      <point x="85.66000000000001" y="315.44000000000005"/>
      <point x="93.88999999999999" y="284.92"/>
      <point x="123.27" y="265.53" type="curve"/>
      <point x="70.52" y="239.32"/>
      <point x="46.36" y="172.71"/>
      <point x="46.36" y="109.43" type="curve" smooth="yes"/>
      <point x="46.36" y="71.73"/>
      <point x="50.85" y="41.91"/>
      <point x="50.85" y="-1.779999999999998" type="curve" smooth="yes"/>
      <point x="50.85" y="-53.92"/>
      <point x="36.25" y="-118.06"/>
      <point x="-17.349999999999998" y="-118.06" type="curve" smooth="yes"/>
      <point x="-40.529999999999994" y="-118.06" type="line"/>
      <point x="-55.19" y="-210.0" type="line"/>
      <point x="0.520000000000004" y="-210.0" type="line" smooth="yes"/>
      <point x="110.93" y="-210.0"/>
      <point x="150.08" y="-96.42"/>
      <point x="150.08" y="-4.149999999999999" type="curve" smooth="yes"/>
      <point x="150.08" y="53.480000000000004"/>
      <point x="144.38" y="88.19"/>
      <point x="144.38" y="119.06" type="curve" smooth="yes"/>
      <point x="144.38" y="163.66"/>
      <point x="154.5" y="217.76999999999998"/>
      <point x="193.04999999999998" y="217.76999999999998" type="curve" smooth="yes"/>
      <point x="207.27" y="217.76999999999998" type="line"/>
      <point x="222.37" y="312.12" type="line"/>
      <point x="208.78" y="312.12" type="line" smooth="yes"/>
      <point x="187.41000000000003" y="312.12"/>
      <point x="180.94" y="327.38000000000005"/>
      <point x="180.94" y="349.34000000000003" type="curve" smooth="yes"/>
      <point x="180.94" y="435.22"/>
      <point x="251.17" y="511.84000000000003"/>
    </contour>
  </outline>
</glyph>
<glyph name="asciitilde" format="2">
  <advance width="423.77"/>
  <unicode hex="007E"/>
  <outline>
    <contour>
      <point x="362.93999999999994" y="243.15" type="curve"/>
      <point x="378.59999999999997" y="345.61" type="line"/>
      <point x="353.58000000000004" y="320.7"/>
      <point x="330.31" y="309.58000000000004"/>
      <point x="302.89" y="309.58000000000004" type="curve" smooth="yes"/>
      <point x="233.89999999999998" y="309.58000000000004"/>
      <point x="213.51" y="399.5"/>
      <point x="148.3" y="399.5" type="curve" smooth="yes"/>
      <point x="113.14999999999999" y="399.5"/>
      <point x="83.52" y="380.09"/>
      <point x="71.16" y="366.25" type="curve"/>
      <point x="54.95" y="263.7" type="line"/>
      <point x="71.03999999999999" y="280.2"/>
      <point x="98.86000000000001" y="298.76"/>
      <point x="131.99999999999997" y="298.76" type="curve" smooth="yes"/>
      <point x="197.96" y="298.76"/>
      <point x="217.96" y="208.84"/>
      <point x="288.93" y="208.84" type="curve" smooth="yes"/>
      <point x="315.53999999999996" y="208.84"/>
      <point x="339.59" y="219.76"/>
    </contour>
  </outline>
</glyph>
<glyph name="cent" format="2">
  <advance width="483.36"/>
  <unicode hex="00A2"/>
  <outline>
    <contour>
      <point x="163.17" y="-105.33" type="line"/>
      <point x="255.64000000000001" y="-105.33" type="line"/>
      <point x="271.19" y="-6.279999999999999" type="line"/>
      <point x="308.39000000000004" y="-3.4899999999999993"/>
      <point x="341.77" y="2.7099999999999995"/>
      <point x="365.38" y="11.42" type="curve"/>
      <point x="363.85" y="116.13000000000001" type="line"/>
      <point x="334.2" y="109.42"/>
      <point x="302.22" y="103.43000000000002"/>
      <point x="276.95000000000005" y="103.43000000000002" type="curve" smooth="yes"/>
      <point x="220.03999999999996" y="103.43000000000002"/>
      <point x="197.12" y="139.0"/>
      <point x="197.12" y="195.35000000000002" type="curve" smooth="yes"/>
      <point x="197.12" y="322.17999999999995"/>
      <point x="247.36" y="435.86"/>
      <point x="328.59" y="435.86" type="curve" smooth="yes"/>
      <point x="356.09000000000003" y="435.86"/>
      <point x="378.86" y="431.44000000000005"/>
      <point x="405.91999999999996" y="423.76000000000005" type="curve"/>
      <point x="440.44" y="533.68" type="line"/>
      <point x="416.4" y="540.92"/>
      <point x="392.47" y="546.5400000000001"/>
      <point x="361.34" y="548.44" type="curve"/>
      <point x="377.36" y="645.5600000000001" type="line"/>
      <point x="284.89000000000004" y="645.5600000000001" type="line"/>
      <point x="267.65999999999997" y="540.1" type="line"/>
      <point x="145.17000000000002" y="502.02"/>
      <point x="79.56" y="329.07"/>
      <point x="79.56" y="155.14999999999998" type="curve" smooth="yes"/>
      <point x="79.56" y="58.78000000000001"/>
      <point x="118.99000000000001" y="13.840000000000003"/>
      <point x="178.93" y="-0.9699999999999994" type="curve"/>
    </contour>
  </outline>
</glyph>
<glyph name="sterling" format="2">
  <advance width="483.9"/>
  <unicode hex="00A3"/>
  <outline>
    <contour>
      <point x="34.68" y="0.0" type="line"/>
      <point x="376.47999999999996" y="0.0" type="line"/>
      <point x="392.13" y="100.75000000000001" type="line"/>
      <point x="181.38000000000002" y="100.75000000000001" type="line"/>
      <point x="230.56" y="156.95999999999998"/>
      <point x="262.68" y="212.42000000000002"/>
      <point x="262.68" y="294.15" type="curve" smooth="yes"/>
      <point x="262.68" y="345.42"/>
      <point x="243.14000000000001" y="400.69999999999993"/>
      <point x="243.14000000000001" y="453.01000000000005" type="curve" smooth="yes"/>
      <point x="243.14000000000001" y="556.52"/>
      <point x="296.68" y="600.3499999999999"/>
      <point x="357.92" y="600.3499999999999" type="curve" smooth="yes"/>
      <point x="389.6" y="600.3499999999999"/>
      <point x="417.06000000000006" y="596.02"/>
      <point x="448.21" y="583.22" type="curve"/>
      <point x="481.33000000000004" y="680.32" type="line"/>
      <point x="442.91" y="700.25"/>
      <point x="399.02000000000004" y="710.0"/>
      <point x="353.21" y="710.0" type="curve" smooth="yes"/>
      <point x="224.49" y="710.0"/>
      <point x="135.12000000000003" y="610.64"/>
      <point x="135.12000000000003" y="470.09000000000003" type="curve" smooth="yes"/>
      <point x="135.12000000000003" y="394.91"/>
      <point x="158.65" y="346.49"/>
      <point x="158.65" y="283.12" type="curve" smooth="yes"/>
      <point x="158.65" y="195.97000000000003"/>
      <point x="108.64999999999998" y="134.62999999999997"/>
      <point x="45.620000000000005" y="78.75" type="curve"/>
    </contour>
    <contour>
      <point x="74.25999999999999" y="316.96" type="line"/>
      <point x="383.09" y="316.96" type="line"/>
      <point x="394.47" y="394.86" type="line"/>
      <point x="86.07" y="394.86" type="line"/>
    </contour>
  </outline>
</glyph>
<glyph name="currency" format="2">
  <advance width="404.79"/>
  <unicode hex="00A4"/>
  <outline>
    <contour>
      <point x="67.5" y="102.66" type="line"/>
      <point x="136.54" y="167.98" type="line"/>
      <point x="149.01000000000002" y="157.88"/>
      <point x="165.56" y="152.82000000000002"/>
      <point x="184.89" y="152.82000000000002" type="curve" smooth="yes"/>
      <point x="203.47" y="152.82000000000002"/>
      <point x="221.57999999999998" y="157.97"/>
      <point x="237.44" y="167.65" type="curve"/>
      <point x="286.62" y="102.66" type="line"/>
      <point x="359.31000000000006" y="171.44" type="line"/>
      <point x="315.25" y="229.82999999999998" type="line"/>
      <point x="331.49" y="251.76"/>
      <point x="342.23" y="279.24"/>
      <point x="343.11" y="308.69" type="curve" smooth="yes"/>
      <point x="343.99" y="325.66999999999996"/>
      <point x="341.18" y="341.92"/>
      <point x="335.68" y="356.53" type="curve"/>
      <point x="397.99" y="414.92" type="line"/>
      <point x="347.15" y="483.7" type="line"/>
      <point x="278.68" y="420.03000000000003" type="line"/>
      <point x="265.71999999999997" y="429.8"/>
      <point x="248.88" y="435.75"/>
      <point x="229.74999999999997" y="435.75" type="curve" smooth="yes"/>
      <point x="209.98" y="435.75"/>
      <point x="191.19" y="429.36"/>
      <point x="174.67000000000002" y="419.7" type="curve"/>
      <point x="127.92000000000002" y="483.7" type="line"/>
      <point x="55.07" y="414.92" type="line"/>
      <point x="98.73" y="355.24" type="line"/>
      <point x="83.06" y="334.36"/>
      <point x="73.21000000000001" y="308.34"/>
      <point x="72.33000000000001" y="280.3" type="curve" smooth="yes"/>
      <point x="71.45" y="262.45"/>
      <point x="73.82000000000001" y="245.51"/>
      <point x="79.43" y="231.03" type="curve"/>
      <point x="16.28" y="171.44" type="line"/>
    </contour>
    <contour>
      <point x="197.25" y="226.72" type="curve" smooth="yes"/>
      <point x="165.51" y="226.72"/>
      <point x="144.76000000000002" y="250.33"/>
      <point x="146.07999999999998" y="284.03" type="curve" smooth="yes"/>
      <point x="147.39999999999998" y="326.34999999999997"/>
      <point x="181.13000000000002" y="361.41"/>
      <point x="218.17" y="361.41" type="curve" smooth="yes"/>
      <point x="250.38" y="361.41"/>
      <point x="270.33000000000004" y="336.35"/>
      <point x="269.01" y="303.36999999999995" type="curve" smooth="yes"/>
      <point x="267.69" y="260.2"/>
      <point x="234.60999999999999" y="226.72"/>
    </contour>
  </outline>
</glyph>
<glyph name="yen" format="2">
  <advance width="487.0"/>
  <unicode hex="00A5"/>
  <outline>
    <contour>
      <point x="82.6" y="312.9" type="line"/>
      <point x="194.65" y="312.9" type="line"/>
      <point x="185.25" y="255.50000000000003" type="line"/>
      <point x="74.05" y="255.50000000000003" type="line"/>
      <point x="62.75" y="185.65" type="line"/>
      <point x="174.4" y="185.65" type="line"/>
      <point x="145.15" y="0.0" type="line"/>
      <point x="256.3" y="0.0" type="line"/>
      <point x="286.1" y="185.65" type="line"/>
      <point x="400.25" y="185.65" type="line"/>
      <point x="410.65000000000003" y="255.50000000000003" type="line"/>
      <point x="296.40000000000003" y="255.50000000000003" type="line"/>
      <point x="305.80000000000007" y="312.9" type="line"/>
      <point x="420.15000000000003" y="312.9" type="line"/>
      <point x="431.0" y="381.9" type="line"/>
      <point x="317.6" y="381.9" type="line"/>
      <point x="506.95000000000005" y="699.9" type="line"/>
      <point x="390.1" y="703.6" type="line"/>
      <point x="274.25" y="460.65000000000003" type="line"/>
      <point x="232.00000000000003" y="701.4499999999999" type="line"/>
      <point x="114.55" y="699.4" type="line"/>
      <point x="205.6" y="381.9" type="line"/>
      <point x="93.89999999999999" y="381.9" type="line"/>
    </contour>
  </outline>
</glyph>
<glyph name="brokenbar" format="2">
  <advance width="177.02"/>
  <unicode hex="00A6"/>
  <outline>
    <contour>
      <point x="153.5" y="391.0" type="line"/>
      <point x="218.49" y="790.4399999999999" type="line"/>
      <point x="125.13999999999999" y="790.4399999999999" type="line"/>
      <point x="60.14999999999999" y="391.0" type="line"/>
    </contour>
    <contour>
      <point x="27.720000000000002" y="190.44" type="line"/>
      <point x="-36.47" y="-210.0" type="line"/>
      <point x="56.77000000000001" y="-210.0" type="line"/>
      <point x="121.4" y="190.44" type="line"/>
    </contour>
  </outline>
</glyph>
<glyph name="section" format="2">
  <advance width="431.37"/>
  <unicode hex="00A7"/>
  <outline>
    <contour>
      <point x="9.340000000000002" y="-69.44" type="curve"/>
      <point x="-33.49" y="-180.59" type="line"/>
      <point x="4.529999999999999" y="-206.11"/>
      <point x="57.839999999999996" y="-220.0"/>
      <point x="99.0" y="-220.0" type="curve" smooth="yes"/>
      <point x="269.25" y="-220.0"/>
      <point x="381.49" y="-39.279999999999994"/>
      <point x="381.49" y="148.62" type="curve" smooth="yes"/>
      <point x="381.49" y="299.34"/>
      <point x="294.53" y="405.15000000000003"/>
      <point x="294.53" y="529.3299999999999" type="curve" smooth="yes"/>
      <point x="294.53" y="585.32"/>
      <point x="319.83" y="628.01"/>
      <point x="362.28" y="628.01" type="curve" smooth="yes"/>
      <point x="376.26" y="628.01"/>
      <point x="386.91999999999996" y="623.3399999999999"/>
      <point x="401.61" y="616.0" type="curve"/>
      <point x="442.29999999999995" y="729.1700000000001" type="line"/>
      <point x="415.56" y="742.96"/>
      <point x="369.53000000000003" y="749.4399999999999"/>
      <point x="338.79" y="749.4399999999999" type="curve" smooth="yes"/>
      <point x="156.44" y="749.4399999999999"/>
      <point x="51.459999999999994" y="581.37"/>
      <point x="51.459999999999994" y="389.9" type="curve" smooth="yes"/>
      <point x="51.459999999999994" y="220.70000000000002"/>
      <point x="138.01" y="94.73"/>
      <point x="138.01" y="-17.68" type="curve" smooth="yes"/>
      <point x="138.01" y="-62.64"/>
      <point x="114.3" y="-99.33"/>
      <point x="77.08" y="-99.33" type="curve" smooth="yes"/>
      <point x="53.87" y="-99.33"/>
      <point x="29.720000000000002" y="-88.64999999999999"/>
    </contour>
    <contour>
      <point x="286.93" y="675.13" type="curve"/>
      <point x="235.71" y="637.44"/>
      <point x="215.70999999999998" y="573.6700000000001"/>
      <point x="215.70999999999998" y="515.17" type="curve" smooth="yes"/>
      <point x="215.70999999999998" y="377.19"/>
      <point x="297.93" y="265.25"/>
      <point x="297.93" y="125.07000000000001" type="curve" smooth="yes"/>
      <point x="297.93" y="-4.239999999999998"/>
      <point x="227.58" y="-142.11"/>
      <point x="121.12" y="-151.79" type="curve"/>
      <point x="189.86" y="-122.3"/>
      <point x="218.26999999999998" y="-52.46999999999999"/>
      <point x="218.26999999999998" y="13.610000000000012" type="curve" smooth="yes"/>
      <point x="218.26999999999998" y="138.98000000000002"/>
      <point x="136.18" y="262.35"/>
      <point x="136.18" y="399.95" type="curve" smooth="yes"/>
      <point x="136.18" y="526.6600000000001"/>
      <point x="186.56" y="642.8000000000001"/>
    </contour>
  </outline>
</glyph>
<glyph name="copyright" format="2">
  <advance width="601.12"/>
  <unicode hex="00A9"/>
  <outline>
    <contour>
      <point x="275.84" y="-10.2" type="curve" smooth="yes"/>
      <point x="482.35999999999996" y="-10.62"/>
      <point x="577.76" y="207.56"/>
      <point x="577.76" y="444.08000000000004" type="curve" smooth="yes"/>
      <point x="577.76" y="611.0799999999999"/>
      <point x="502.56" y="709.96"/>
      <point x="350.36" y="710.3800000000001" type="curve" smooth="yes"/>
      <point x="144.8" y="710.8"/>
      <point x="46.919999999999995" y="494.47999999999996"/>
      <point x="46.919999999999995" y="256.3" type="curve" smooth="yes"/>
      <point x="46.919999999999995" y="89.86"/>
      <point x="121.80000000000001" y="-9.78"/>
    </contour>
    <contour>
      <point x="299.15999999999997" y="143.34" type="curve" smooth="yes"/>
      <point x="327.44" y="143.34"/>
      <point x="359.68" y="149.92"/>
      <point x="380.74" y="159.37999999999997" type="curve"/>
      <point x="378.32000000000005" y="223.51999999999998" type="line"/>
      <point x="361.48" y="217.94"/>
      <point x="339.14" y="214.28"/>
      <point x="321.73999999999995" y="214.28" type="curve" smooth="yes"/>
      <point x="285.9" y="214.28"/>
      <point x="265.22" y="241.72000000000003"/>
      <point x="265.22" y="288.44" type="curve" smooth="yes"/>
      <point x="265.22" y="384.32"/>
      <point x="302.24" y="475.18"/>
      <point x="358.05999999999995" y="475.18" type="curve" smooth="yes"/>
      <point x="376.35999999999996" y="475.18"/>
      <point x="391.59999999999997" y="473.23999999999995"/>
      <point x="408.42" y="467.7" type="curve"/>
      <point x="429.62" y="540.2199999999999" type="line"/>
      <point x="412.48" y="547.06"/>
      <point x="389.4" y="551.8599999999999"/>
      <point x="359.14" y="551.8599999999999" type="curve" smooth="yes"/>
      <point x="266.55999999999995" y="551.8599999999999"/>
      <point x="187.36" y="441.49999999999994"/>
      <point x="187.36" y="287.05999999999995" type="curve" smooth="yes"/>
      <point x="187.36" y="191.46"/>
      <point x="228.46" y="143.34"/>
    </contour>
    <contour>
      <point x="280.32" y="33.120000000000005" type="curve" smooth="yes"/>
      <point x="153.1" y="33.120000000000005"/>
      <point x="93.53999999999999" y="113.2"/>
      <point x="93.53999999999999" y="258.7" type="curve" smooth="yes"/>
      <point x="93.53999999999999" y="464.52"/>
      <point x="167.66000000000003" y="667.24"/>
      <point x="345.79999999999995" y="667.24" type="curve" smooth="yes"/>
      <point x="470.92" y="667.24"/>
      <point x="531.1400000000001" y="586.98"/>
      <point x="531.1400000000001" y="441.9" type="curve" smooth="yes"/>
      <point x="531.1400000000001" y="236.48"/>
      <point x="458.05999999999995" y="33.120000000000005"/>
    </contour>
  </outline>
</glyph>
<glyph name="ordfeminine" format="2">
  <advance width="303.64"/>
  <unicode hex="00AA"/>
  <outline>
    <contour>
      <point x="30.47" y="258.21000000000004" type="line"/>
      <point x="269.15000000000003" y="258.21000000000004" type="line"/>
      <point x="278.53000000000003" y="318.28" type="line"/>
      <point x="39.85" y="318.28" type="line"/>
    </contour>
    <component base="a.superior" xOffset="9.62"/>
  </outline>
</glyph>
<glyph name="logicalnot" format="2">
  <advance width="420.0"/>
  <unicode hex="00AC"/>
  <outline>
    <contour>
      <point x="55.31" y="335.11" type="line"/>
      <point x="286.0" y="335.11" type="line"/>
      <point x="261.56" y="175.13" type="line"/>
      <point x="358.13" y="175.13" type="line"/>
      <point x="398.65999999999997" y="431.76" type="line"/>
      <point x="71.39999999999999" y="431.76" type="line"/>
    </contour>
  </outline>
</glyph>
<glyph name="registered" format="2">
  <advance width="541.4200000000001"/>
  <unicode hex="00AE"/>
  <outline>
    <contour>
      <point x="269.46" y="208.57999999999998" type="curve" smooth="yes"/>
      <point x="440.44" y="208.57999999999998"/>
      <point x="552.22" y="401.42"/>
      <point x="552.22" y="655.22" type="curve" smooth="yes"/>
      <point x="552.22" y="804.64"/>
      <point x="485.46000000000004" y="893.54"/>
      <point x="358.53999999999996" y="893.54" type="curve" smooth="yes"/>
      <point x="187.56" y="893.54"/>
      <point x="76.96000000000001" y="700.1999999999999"/>
      <point x="76.96000000000001" y="446.9" type="curve" smooth="yes"/>
      <point x="76.96000000000001" y="297.65999999999997"/>
      <point x="142.36" y="208.57999999999998"/>
    </contour>
    <contour>
      <point x="272.88" y="248.96" type="curve" smooth="yes"/>
      <point x="171.06" y="248.96"/>
      <point x="119.28" y="324.78"/>
      <point x="119.28" y="446.4" type="curve" smooth="yes"/>
      <point x="119.28" y="676.7"/>
      <point x="210.82" y="852.84"/>
      <point x="355.3" y="852.84" type="curve" smooth="yes"/>
      <point x="457.12000000000006" y="852.84"/>
      <point x="509.8999999999999" y="777.34"/>
      <point x="509.8999999999999" y="655.22" type="curve" smooth="yes"/>
      <point x="509.8999999999999" y="424.92"/>
      <point x="417.18" y="248.96"/>
    </contour>
    <contour>
      <point x="189.34" y="375.5" type="line"/>
      <point x="258.5" y="375.5" type="line"/>
      <point x="278.53999999999996" y="500.76" type="line"/>
      <point x="287.82000000000005" y="499.84000000000003"/>
      <point x="297.23999999999995" y="498.73999999999995"/>
      <point x="309.94" y="499.28000000000003" type="curve"/>
      <point x="330.28000000000003" y="509.00000000000006" type="line"/>
      <point x="396.24" y="515.38"/>
      <point x="440.38000000000005" y="566.9399999999999"/>
      <point x="440.38000000000005" y="647.94" type="curve" smooth="yes"/>
      <point x="440.38000000000005" y="713.44"/>
      <point x="407.44" y="743.88"/>
      <point x="339.21999999999997" y="743.88" type="curve" smooth="yes"/>
      <point x="309.49999999999994" y="743.88"/>
      <point x="281.50000000000006" y="741.92"/>
      <point x="247.01999999999998" y="737.7" type="curve"/>
    </contour>
    <contour>
      <point x="311.54" y="554.0" type="curve" smooth="yes"/>
      <point x="303.46000000000004" y="554.0"/>
      <point x="296.79999999999995" y="555.06"/>
      <point x="287.14" y="555.8599999999999" type="curve"/>
      <point x="306.76000000000005" y="680.42" type="line"/>
      <point x="320.35999999999996" y="682.04"/>
      <point x="325.94" y="683.04"/>
      <point x="337.59999999999997" y="683.04" type="curve" smooth="yes"/>
      <point x="362.02" y="683.04"/>
      <point x="371.59999999999997" y="670.1400000000001"/>
      <point x="371.59999999999997" y="644.74" type="curve" smooth="yes"/>
      <point x="371.59999999999997" y="592.2"/>
      <point x="351.18" y="554.0"/>
    </contour>
    <contour>
      <point x="390.12" y="371.24" type="curve" smooth="yes"/>
      <point x="394.34" y="371.24"/>
      <point x="404.38" y="372.62"/>
      <point x="409.7" y="374.94" type="curve"/>
      <point x="418.12" y="445.82000000000005" type="line"/>
      <point x="415.74" y="445.2"/>
      <point x="413.72" y="445.2"/>
      <point x="412.06" y="445.2" type="curve" smooth="yes"/>
      <point x="393.82000000000005" y="445.2"/>
      <point x="376.59999999999997" y="470.28"/>
      <point x="363.8" y="531.4799999999999" type="curve"/>
      <point x="300.44" y="514.24" type="line"/>
      <point x="328.55999999999995" y="390.92"/>
      <point x="353.71999999999997" y="371.24"/>
    </contour>
  </outline>
</glyph>
<glyph name="degree" format="2">
  <advance width="276.5"/>
  <unicode hex="00B0"/>
  <outline>
    <contour>
      <point x="164.2" y="431.78000000000003" type="curve" smooth="yes"/>
      <point x="252.16" y="431.78000000000003"/>
      <point x="299.5399999999999" y="525.7400000000001"/>
      <point x="299.5399999999999" y="610.82" type="curve" smooth="yes"/>
      <point x="299.5399999999999" y="670.46"/>
      <point x="272.90000000000003" y="717.88"/>
      <point x="207.33999999999997" y="717.88" type="curve" smooth="yes"/>
      <point x="119.28" y="717.88"/>
      <point x="71.74000000000001" y="623.36"/>
      <point x="71.74000000000001" y="538.46" type="curve" smooth="yes"/>
      <point x="71.74000000000001" y="477.96"/>
      <point x="100.04" y="431.78000000000003"/>
    </contour>
    <contour>
      <point x="175.94000000000003" y="513.62" type="curve" smooth="yes"/>
      <point x="154.6" y="513.62"/>
      <point x="144.32000000000002" y="530.7400000000001"/>
      <point x="144.32000000000002" y="555.5799999999999" type="curve" smooth="yes"/>
      <point x="144.32000000000002" y="594.3199999999999"/>
      <point x="162.84000000000003" y="634.2800000000001"/>
      <point x="194.89999999999998" y="634.2800000000001" type="curve" smooth="yes"/>
      <point x="216.86" y="634.2800000000001"/>
      <point x="226.96" y="616.44"/>
      <point x="226.96" y="591.8600000000001" type="curve" smooth="yes"/>
      <point x="226.96" y="553.56"/>
      <point x="207.82" y="513.62"/>
    </contour>
  </outline>
</glyph>
<glyph name="plusminus" format="2">
  <advance width="420.94"/>
  <unicode hex="00B1"/>
  <outline>
    <contour>
      <point x="337.22" y="33.19" type="line"/>
      <point x="353.31" y="134.6" type="line"/>
      <point x="236.51" y="134.6" type="line"/>
      <point x="258.86" y="274.58000000000004" type="line"/>
      <point x="375.3" y="274.58000000000004" type="line"/>
      <point x="391.39000000000004" y="375.99" type="line"/>
      <point x="274.95" y="375.99" type="line"/>
      <point x="298.15999999999997" y="513.75" type="line"/>
      <point x="201.14999999999998" y="513.75" type="line"/>
      <point x="178.07999999999998" y="375.99" type="line"/>
      <point x="61.24999999999999" y="375.99" type="line"/>
      <point x="45.16" y="274.58000000000004" type="line"/>
      <point x="161.85" y="274.58000000000004" type="line"/>
      <point x="139.28" y="134.6" type="line"/>
      <point x="23.169999999999998" y="134.6" type="line"/>
      <point x="7.08" y="33.19" type="line"/>
    </contour>
  </outline>
</glyph>
<glyph name="uni00B2" format="2">
  <advance width="290.95"/>
  <unicode hex="00B2"/>
  <outline>
    <contour>
      <point x="46.4" y="368.82" type="line"/>
      <point x="270.89" y="368.82" type="line"/>
      <point x="280.42" y="424.87" type="line"/>
      <point x="148.44" y="424.87" type="line"/>
      <point x="227.47" y="509.88"/>
      <point x="300.98999999999995" y="595.24"/>
      <point x="300.98999999999995" y="689.58" type="curve" smooth="yes"/>
      <point x="300.98999999999995" y="742.82"/>
      <point x="265.31" y="773.27"/>
      <point x="211.72" y="773.27" type="curve" smooth="yes"/>
      <point x="172.45" y="773.27"/>
      <point x="130.31" y="759.46"/>
      <point x="99.10000000000001" y="737.18" type="curve"/>
      <point x="114.59" y="673.04" type="line"/>
      <point x="138.89" y="689.32"/>
      <point x="158.89000000000001" y="696.8199999999999"/>
      <point x="180.85" y="696.8199999999999" type="curve" smooth="yes"/>
      <point x="204.97" y="696.8199999999999"/>
      <point x="217.56" y="680.99"/>
      <point x="217.56" y="655.77" type="curve" smooth="yes"/>
      <point x="217.0" y="589.4"/>
      <point x="134.04" y="488.0"/>
      <point x="53.489999999999995" y="417.58" type="curve"/>
    </contour>
  </outline>
</glyph>
<glyph name="uni00B3" format="2">
  <advance width="302.025"/>
  <unicode hex="00B3"/>
  <outline>
    <contour>
      <point x="41.7" y="395.02500000000003" type="line"/>
      <point x="69.075" y="374.775"/>
      <point x="103.925" y="364.55"/>
      <point x="145.70000000000002" y="364.55" type="curve" smooth="yes"/>
      <point x="228.375" y="364.55"/>
      <point x="298.475" y="414.82500000000005"/>
      <point x="298.475" y="502.87500000000006" type="curve" smooth="yes"/>
      <point x="298.475" y="542.725"/>
      <point x="279.575" y="567.15"/>
      <point x="254.7" y="577.675" type="curve"/>
      <point x="292.45" y="597.675"/>
      <point x="320.25" y="633.8000000000001"/>
      <point x="320.25" y="686.9" type="curve" smooth="yes"/>
      <point x="320.25" y="740.6750000000001"/>
      <point x="278.97499999999997" y="774.375"/>
      <point x="213.525" y="774.375" type="curve" smooth="yes"/>
      <point x="175.0" y="774.375"/>
      <point x="135.975" y="764.975"/>
      <point x="106.5" y="747.375" type="curve"/>
      <point x="117.7" y="693.125" type="line"/>
      <point x="138.825" y="702.5500000000001"/>
      <point x="165.675" y="707.55"/>
      <point x="188.825" y="707.55" type="curve" smooth="yes"/>
      <point x="223.85" y="707.55"/>
      <point x="243.85" y="690.925"/>
      <point x="243.85" y="662.0749999999999" type="curve" smooth="yes"/>
      <point x="243.85" y="626.3499999999999"/>
      <point x="217.9" y="600.3"/>
      <point x="182.04999999999998" y="600.3" type="curve" smooth="yes"/>
      <point x="137.95" y="600.3" type="line"/>
      <point x="128.79999999999998" y="549.0" type="line"/>
      <point x="173.125" y="549.0" type="line" smooth="yes"/>
      <point x="211.15" y="549.0"/>
      <point x="227.75" y="532.625"/>
      <point x="227.75" y="503.225" type="curve" smooth="yes"/>
      <point x="227.75" y="463.1"/>
      <point x="198.725" y="428.34999999999997"/>
      <point x="144.65" y="428.34999999999997" type="curve" smooth="yes"/>
      <point x="117.475" y="428.34999999999997"/>
      <point x="94.15" y="435.375"/>
      <point x="74.0" y="449.65" type="curve"/>
    </contour>
  </outline>
</glyph>
<glyph name="uni00B5" format="2">
  <advance width="434.13"/>
  <unicode hex="00B5"/>
  <outline>
    <contour>
      <point x="-33.17" y="-210.0" type="line"/>
      <point x="76.55000000000001" y="-210.0" type="line"/>
      <point x="111.45" y="9.21" type="line"/>
      <point x="117.76" y="-3.5000000000000004"/>
      <point x="130.4" y="-10.0"/>
      <point x="148.61" y="-10.0" type="curve" smooth="yes"/>
      <point x="182.87" y="-10.0"/>
      <point x="217.85" y="4.32"/>
      <point x="254.65" y="37.65" type="curve"/>
      <point x="263.32" y="9.75"/>
      <point x="289.38" y="-10.0"/>
      <point x="325.14" y="-10.0" type="curve" smooth="yes"/>
      <point x="347.21999999999997" y="-10.0"/>
      <point x="376.17999999999995" y="-2.13"/>
      <point x="394.63" y="10.67" type="curve"/>
      <point x="402.02" y="97.1" type="line"/>
      <point x="393.69" y="93.97"/>
      <point x="385.41999999999996" y="92.62"/>
      <point x="381.06" y="92.62" type="curve" smooth="yes"/>
      <point x="367.34" y="92.62"/>
      <point x="361.59" y="100.79000000000002"/>
      <point x="361.59" y="116.68" type="curve" smooth="yes"/>
      <point x="361.59" y="124.54"/>
      <point x="363.31000000000006" y="139.20000000000002"/>
      <point x="427.97" y="541.0" type="curve"/>
      <point x="318.02000000000004" y="541.0" type="line"/>
      <point x="250.74999999999997" y="117.34" type="line"/>
      <point x="224.28000000000003" y="100.59"/>
      <point x="197.08999999999997" y="91.44000000000001"/>
      <point x="173.23" y="91.44000000000001" type="curve" smooth="yes"/>
      <point x="145.59000000000003" y="91.44000000000001"/>
      <point x="131.44" y="106.55000000000001"/>
      <point x="132.32000000000002" y="132.05" type="curve" smooth="yes"/>
      <point x="142.44" y="193.91000000000003"/>
      <point x="159.39" y="313.58"/>
      <point x="195.76000000000002" y="541.0" type="curve"/>
      <point x="85.46" y="541.0" type="line"/>
    </contour>
  </outline>
</glyph>
<glyph name="paragraph" format="2">
  <advance width="512.24"/>
  <unicode hex="00B6"/>
  <outline>
    <contour>
      <point x="303.46" y="-210.0" type="line"/>
      <point x="388.89" y="-210.0" type="line"/>
      <point x="540.3199999999999" y="740.0" type="line"/>
      <point x="454.89000000000004" y="740.0" type="line"/>
    </contour>
    <contour>
      <point x="212.1" y="291.51000000000005" type="line"/>
      <point x="175.26" y="299.98"/>
      <point x="151.41" y="341.37"/>
      <point x="151.41" y="405.32000000000005" type="curve" smooth="yes"/>
      <point x="151.41" y="516.21"/>
      <point x="197.11" y="635.0300000000001"/>
      <point x="294.13" y="638.34" type="curve"/>
      <point x="159.56" y="-210.0" type="line"/>
      <point x="244.99" y="-210.0" type="line"/>
      <point x="396.42" y="740.0" type="line"/>
      <point x="340.12" y="740.0" type="line" smooth="yes"/>
      <point x="157.04999999999998" y="740.0"/>
      <point x="55.46" y="586.8399999999999"/>
      <point x="55.46" y="399.28" type="curve" smooth="yes"/>
      <point x="55.46" y="301.66999999999996"/>
      <point x="98.91" y="233.61"/>
      <point x="188.4" y="214.82" type="curve"/>
    </contour>
  </outline>
</glyph>
<glyph name="periodcentered" format="2">
  <advance width="178.13"/>
  <unicode hex="00B7"/>
  <outline>
    <contour>
      <point x="30.455" y="287.975" type="curve" smooth="yes"/>
      <point x="29.555" y="252.44500000000002"/>
      <point x="44.55" y="236.245"/>
      <point x="82.62499999999999" y="236.245" type="curve" smooth="yes"/>
      <point x="137.57" y="236.245"/>
      <point x="156.395" y="283.365"/>
      <point x="157.295" y="329.73999999999995" type="curve" smooth="yes"/>
      <point x="158.195" y="364.475"/>
      <point x="142.975" y="380.90000000000003"/>
      <point x="105.675" y="380.90000000000003" type="curve" smooth="yes"/>
      <point x="51.95499999999999" y="380.90000000000003"/>
      <point x="31.355000000000004" y="333.82"/>
    </contour>
  </outline>
</glyph>
<glyph name="uni00B9" format="2">
  <advance width="277.57"/>
  <unicode hex="00B9"/>
  <outline>
    <contour>
      <point x="43.06" y="370.0" type="line"/>
      <point x="271.28" y="370.0" type="line"/>
      <point x="281.86" y="430.25" type="line"/>
      <point x="210.52" y="430.25" type="line"/>
      <point x="267.1" y="768.28" type="line"/>
      <point x="226.82" y="768.28" type="line"/>
      <point x="92.76" y="710.49" type="line"/>
      <point x="98.24" y="643.62" type="line"/>
      <point x="176.84000000000003" y="681.0799999999999" type="line"/>
      <point x="134.89" y="430.25" type="line"/>
      <point x="53.03000000000001" y="430.25" type="line"/>
    </contour>
  </outline>
</glyph>
<glyph name="ordmasculine" format="2">
  <advance width="285.03"/>
  <unicode hex="00BA"/>
  <outline>
    <contour>
      <point x="29.97" y="258.21000000000004" type="line"/>
      <point x="249.24" y="258.21000000000004" type="line"/>
      <point x="258.26" y="318.28" type="line"/>
      <point x="38.99" y="318.28" type="line"/>
    </contour>
    <component base="o.superior" xOffset="11.6"/>
  </outline>
</glyph>
<glyph name="AE" format="2">
  <advance width="672.5250000000001"/>
  <unicode hex="00C6"/>
  <anchor x="303.04542" y="0.0" name="bottom"/>
  <anchor x="428.11499999999995" y="700.0" name="top"/>
  <outline>
    <contour>
      <point x="260.46500000000003" y="0.0" type="line"/>
      <point x="610.0300000000001" y="0.0" type="line"/>
      <point x="626.2099999999999" y="102.915" type="line"/>
      <point x="386.07" y="102.915" type="line"/>
      <point x="417.16499999999996" y="299.84" type="line"/>
      <point x="621.96" y="299.84" type="line"/>
      <point x="638.51" y="399.20500000000004" type="line"/>
      <point x="433.41" y="399.20500000000004" type="line"/>
      <point x="464.28" y="595.56" type="line"/>
      <point x="691.8899999999999" y="595.56" type="line"/>
      <point x="709.3550000000001" y="700.0" type="line"/>
      <point x="294.21500000000003" y="700.0" type="line"/>
      <point x="-40.85000000000001" y="0.0" type="line"/>
      <point x="81.83500000000001" y="0.0" type="line"/>
      <point x="181.165" y="209.6" type="line"/>
      <point x="292.96999999999997" y="209.6" type="line"/>
    </contour>
    <contour>
      <point x="223.12" y="308.595" type="line"/>
      <point x="355.31499999999994" y="607.6700000000001" type="line"/>
      <point x="308.56000000000006" y="308.595" type="line"/>
    </contour>
  </outline>
</glyph>
<glyph name="multiply" format="2">
  <advance width="397.90000000000003"/>
  <unicode hex="00D7"/>
  <outline>
    <contour>
      <point x="85.06" y="114.875" type="line"/>
      <point x="195.215" y="242.07" type="line"/>
      <point x="262.72999999999996" y="114.555" type="line"/>
      <point x="338.785" y="186.62499999999997" type="line"/>
      <point x="270.95" y="314.235" type="line"/>
      <point x="382.32" y="444.97499999999997" type="line"/>
      <point x="326.15000000000003" y="515.9250000000001" type="line"/>
      <point x="217.325" y="388.69" type="line"/>
      <point x="147.98999999999998" y="516.165" type="line"/>
      <point x="71.69000000000001" y="445.175" type="line"/>
      <point x="140.99499999999998" y="315.87" type="line"/>
      <point x="28.565000000000005" y="185.27499999999998" type="line"/>
    </contour>
  </outline>
</glyph>
<glyph name="Oslash" format="2">
  <advance width="512.0500000000002"/>
  <unicode hex="00D8"/>
  <anchor x="314.6" y="700.0" name="top"/>
  <outline>
    <contour>
      <point x="545.85" y="710.5" type="line"/>
      <point x="461.29999999999995" y="710.5" type="line"/>
      <point x="401.45000000000005" y="623.0" type="line"/>
      <point x="397.7" y="624.0500000000001" type="line"/>
      <point x="93.79999999999998" y="151.10000000000002" type="line"/>
      <point x="90.60000000000001" y="152.64999999999998" type="line"/>
      <point x="-15.3" y="-5.199999999999999" type="line"/>
      <point x="69.64999999999999" y="-5.199999999999999" type="line"/>
      <point x="127.7" y="79.35" type="line"/>
      <point x="131.45000000000002" y="78.30000000000001" type="line"/>
      <point x="436.7" y="553.9499999999999" type="line"/>
      <point x="439.84999999999997" y="552.4000000000001" type="line"/>
    </contour>
    <contour>
      <point x="224.5" y="-8.899999999999999" type="curve" smooth="yes"/>
      <point x="413.6" y="-8.899999999999999"/>
      <point x="501.4500000000001" y="252.45000000000002"/>
      <point x="502.0000000000001" y="473.79999999999995" type="curve" smooth="yes"/>
      <point x="502.4000000000001" y="629.6"/>
      <point x="437.5" y="708.9"/>
      <point x="306.45000000000005" y="708.9" type="curve" smooth="yes"/>
      <point x="119.95" y="708.9"/>
      <point x="29.5" y="448.0"/>
      <point x="28.95" y="226.2" type="curve" smooth="yes"/>
      <point x="28.55" y="69.95"/>
      <point x="93.45000000000002" y="-8.899999999999999"/>
    </contour>
    <contour>
      <point x="233.04999999999998" y="93.15000000000002" type="curve" smooth="yes"/>
      <point x="177.35000000000002" y="93.15000000000002"/>
      <point x="140.75" y="128.05000000000004"/>
      <point x="140.75" y="217.1" type="curve" smooth="yes"/>
      <point x="140.75" y="375.84999999999997"/>
      <point x="201.20000000000002" y="606.8500000000001"/>
      <point x="300.85" y="606.8500000000001" type="curve" smooth="yes"/>
      <point x="354.59999999999997" y="606.8500000000001"/>
      <point x="390.75" y="572.4"/>
      <point x="390.75" y="483.8999999999999" type="curve" smooth="yes"/>
      <point x="390.75" y="336.35"/>
      <point x="330.59999999999997" y="93.15000000000002"/>
    </contour>
  </outline>
</glyph>
<glyph name="Thorn" format="2">
  <advance width="472.95"/>
  <unicode hex="00DE"/>
  <outline>
    <contour>
      <point x="1.4999999999999991" y="0.0" type="line"/>
      <point x="114.275" y="0.0" type="line"/>
      <point x="134.7" y="126.85" type="line"/>
      <point x="172.175" y="123.975"/>
      <point x="191.92499999999998" y="123.69999999999999"/>
      <point x="222.625" y="123.69999999999999" type="curve" smooth="yes"/>
      <point x="380.625" y="123.69999999999999"/>
      <point x="473.725" y="244.15"/>
      <point x="473.725" y="438.55" type="curve" smooth="yes"/>
      <point x="473.725" y="555.95"/>
      <point x="419.575" y="620.6999999999999"/>
      <point x="278.45" y="620.6999999999999" type="curve" smooth="yes"/>
      <point x="263.375" y="620.6999999999999"/>
      <point x="243.57500000000002" y="619.975"/>
      <point x="212.89999999999998" y="618.4" type="curve"/>
      <point x="225.92499999999998" y="700.0" type="line"/>
      <point x="113.14999999999999" y="700.0" type="line"/>
    </contour>
    <contour>
      <point x="216.775" y="223.05" type="curve" smooth="yes"/>
      <point x="190.9" y="223.05"/>
      <point x="176.425" y="223.5"/>
      <point x="151.725" y="225.775" type="curve"/>
      <point x="196.875" y="517.225" type="line"/>
      <point x="232.95" y="520.4"/>
      <point x="248.0" y="521.4"/>
      <point x="268.3" y="521.4" type="curve" smooth="yes"/>
      <point x="334.35" y="521.4"/>
      <point x="361.225" y="488.925"/>
      <point x="361.225" y="426.95" type="curve" smooth="yes"/>
      <point x="361.225" y="301.5"/>
      <point x="310.42499999999995" y="223.05"/>
    </contour>
  </outline>
</glyph>
<glyph name="germandbls" format="2">
  <advance width="539.6750000000001"/>
  <unicode hex="00DF"/>
  <outline>
    <contour>
      <point x="20.37" y="-23.789999999999996" type="line" smooth="yes"/>
      <point x="10.68" y="-83.16"/>
      <point x="-7.255" y="-115.825"/>
      <point x="-44.61" y="-115.825" type="curve" smooth="yes"/>
      <point x="-56.065000000000005" y="-115.825"/>
      <point x="-67.14" y="-114.435"/>
      <point x="-82.715" y="-109.49499999999999" type="curve"/>
      <point x="-110.51" y="-205.21499999999997" type="line"/>
      <point x="-85.265" y="-215.32999999999998"/>
      <point x="-58.165" y="-220.0"/>
      <point x="-30.029999999999994" y="-220.0" type="curve" smooth="yes"/>
      <point x="62.865" y="-220.0"/>
      <point x="109.62" y="-156.54999999999998"/>
      <point x="129.285" y="-31.724999999999994" type="curve" smooth="yes"/>
      <point x="215.245" y="513.105" type="line" smooth="yes"/>
      <point x="229.22500000000002" y="601.1949999999999"/>
      <point x="271.695" y="649.3449999999999"/>
      <point x="346.825" y="649.3449999999999" type="curve" smooth="yes"/>
      <point x="392.68" y="649.3449999999999"/>
      <point x="415.21500000000003" y="634.52"/>
      <point x="415.21500000000003" y="604.465" type="curve" smooth="yes"/>
      <point x="415.21500000000003" y="574.0600000000001"/>
      <point x="399.85499999999996" y="554.5949999999999"/>
      <point x="344.42500000000007" y="525.005" type="curve" smooth="yes"/>
      <point x="275.66999999999996" y="488.65"/>
      <point x="238.04500000000002" y="446.135"/>
      <point x="238.04500000000002" y="367.67" type="curve" smooth="yes"/>
      <point x="238.04500000000002" y="298.21"/>
      <point x="276.75" y="259.945"/>
      <point x="341.63" y="226.99999999999997" type="curve" smooth="yes"/>
      <point x="393.97999999999996" y="200.35"/>
      <point x="409.935" y="183.555"/>
      <point x="409.935" y="156.42000000000002" type="curve" smooth="yes"/>
      <point x="409.935" y="116.45000000000002"/>
      <point x="372.4" y="87.13500000000002"/>
      <point x="318.35499999999996" y="87.13500000000002" type="curve" smooth="yes"/>
      <point x="279.92" y="87.13500000000002"/>
      <point x="235.09500000000003" y="95.65500000000002"/>
      <point x="200.56" y="108.21" type="curve"/>
      <point x="174.345" y="17.945" type="line"/>
      <point x="211.805" y="1.6400000000000001"/>
      <point x="260.96" y="-9.98"/>
      <point x="315.97999999999996" y="-9.98" type="curve" smooth="yes"/>
      <point x="449.08000000000004" y="-9.98"/>
      <point x="520.5849999999999" y="55.535000000000004"/>
      <point x="520.5849999999999" y="167.995" type="curve" smooth="yes"/>
      <point x="520.5849999999999" y="235.04999999999998"/>
      <point x="487.9200000000001" y="274.57"/>
      <point x="424.585" y="307.09000000000003" type="curve" smooth="yes"/>
      <point x="362.66" y="339.44000000000005"/>
      <point x="343.69000000000005" y="353.68499999999995"/>
      <point x="343.69000000000005" y="381.9" type="curve" smooth="yes"/>
      <point x="343.69000000000005" y="412.18499999999995"/>
      <point x="362.52000000000004" y="429.51"/>
      <point x="426.60499999999996" y="461.66" type="curve" smooth="yes"/>
      <point x="493.95500000000004" y="495.63"/>
      <point x="526.5" y="535.565"/>
      <point x="526.5" y="613.4699999999999" type="curve" smooth="yes"/>
      <point x="526.5" y="701.07"/>
      <point x="462.0" y="750.0"/>
      <point x="354.57" y="750.0" type="curve" smooth="yes"/>
      <point x="204.285" y="750.0"/>
      <point x="131.345" y="674.6949999999999"/>
      <point x="108.14999999999999" y="529.9850000000001" type="curve" smooth="yes"/>
      <point x="104.08" y="504.02500000000003" type="line"/>
      <point x="43.364999999999995" y="495.65" type="line"/>
      <point x="28.295" y="408.98999999999995" type="line"/>
      <point x="88.46000000000001" y="408.98999999999995" type="line"/>
    </contour>
  </outline>
</glyph>
<glyph name="ae" format="2">
  <advance width="659.6999999999999"/>
  <unicode hex="00E6"/>
  <anchor x="295.25" y="0.0" name="bottom"/>
  <anchor x="375.0" y="541.0" name="top"/>
  <outline>
    <contour>
      <point x="139.0" y="-10.0" type="curve" smooth="yes"/>
      <point x="176.75" y="-10.0"/>
      <point x="210.45000000000002" y="2.3"/>
      <point x="241.25000000000003" y="30.549999999999997" type="curve"/>
      <point x="235.14999999999998" y="-3.6000000000000005" type="line"/>
      <point x="336.65000000000003" y="-3.6000000000000005" type="line"/>
      <point x="347.6" y="64.45" type="line"/>
      <point x="369.50000000000006" y="20.699999999999996"/>
      <point x="414.45" y="-8.95"/>
      <point x="474.6500000000001" y="-8.95" type="curve" smooth="yes"/>
      <point x="519.6999999999999" y="-8.95"/>
      <point x="568.1" y="1.1"/>
      <point x="607.0500000000001" y="22.900000000000002" type="curve"/>
      <point x="593.3999999999999" y="117.5" type="line"/>
      <point x="552.9" y="100.30000000000003"/>
      <point x="518.6500000000001" y="91.45"/>
      <point x="481.25000000000006" y="91.45" type="curve" smooth="yes"/>
      <point x="417.65" y="91.45"/>
      <point x="377.45" y="134.6"/>
      <point x="377.45" y="207.25" type="curve" smooth="yes"/>
      <point x="377.45" y="338.25"/>
      <point x="428.05" y="457.05"/>
      <point x="505.05" y="457.05" type="curve" smooth="yes"/>
      <point x="537.25" y="457.05"/>
      <point x="552.9499999999999" y="443.79999999999995"/>
      <point x="552.9499999999999" y="412.9" type="curve" smooth="yes"/>
      <point x="552.9499999999999" y="363.95"/>
      <point x="512.3499999999999" y="325.65"/>
      <point x="444.1" y="302.99999999999994" type="curve" smooth="yes"/>
      <point x="415.7" y="293.4"/>
      <point x="385.55" y="288.65"/>
      <point x="354.1500000000001" y="288.85" type="curve"/>
      <point x="342.75000000000006" y="212.45" type="line"/>
      <point x="382.85" y="211.2"/>
      <point x="427.55" y="216.15"/>
      <point x="470.6" y="228.45" type="curve" smooth="yes"/>
      <point x="587.2000000000002" y="259.3"/>
      <point x="660.05" y="335.75"/>
      <point x="660.05" y="433.35" type="curve" smooth="yes"/>
      <point x="660.05" y="505.04999999999995"/>
      <point x="619.1999999999999" y="551.0"/>
      <point x="544.75" y="551.0" type="curve" smooth="yes"/>
      <point x="490.75" y="551.0"/>
      <point x="443.80000000000007" y="526.8000000000001"/>
      <point x="411.55" y="482.2" type="curve"/>
      <point x="422.4" y="549.0" type="line"/>
      <point x="322.7" y="549.0" type="line"/>
      <point x="319.15000000000003" y="526.75" type="line"/>
      <point x="299.1" y="543.8000000000001"/>
      <point x="272.95000000000005" y="551.0"/>
      <point x="244.0" y="551.0" type="curve" smooth="yes"/>
      <point x="110.2" y="551.0"/>
      <point x="16.199999999999996" y="389.7"/>
      <point x="16.199999999999996" y="159.24999999999997" type="curve" smooth="yes"/>
      <point x="16.199999999999996" y="50.4"/>
      <point x="62.14999999999999" y="-10.0"/>
    </contour>
    <contour>
      <point x="188.95000000000002" y="81.55000000000001" type="curve" smooth="yes"/>
      <point x="154.6" y="81.55000000000001"/>
      <point x="131.10000000000002" y="110.35"/>
      <point x="131.10000000000002" y="169.40000000000003" type="curve" smooth="yes"/>
      <point x="131.10000000000002" y="316.95"/>
      <point x="191.99999999999997" y="455.99999999999994"/>
      <point x="260.4" y="455.99999999999994" type="curve" smooth="yes"/>
      <point x="277.95000000000005" y="455.99999999999994"/>
      <point x="292.7" y="453.15"/>
      <point x="305.95000000000005" y="442.95000000000005" type="curve"/>
      <point x="252.7" y="102.10000000000001" type="line"/>
      <point x="234.10000000000002" y="89.45000000000002"/>
      <point x="210.65" y="81.55000000000001"/>
    </contour>
  </outline>
</glyph>
<glyph name="eth" format="2">
  <advance width="433.1"/>
  <unicode hex="00F0"/>
  <outline>
    <contour>
      <point x="333.55000000000007" y="419.5" type="curve"/>
      <point x="351.25000000000006" y="502.8" type="line"/>
      <point x="322.3" y="524.3500000000001"/>
      <point x="281.0" y="533.65"/>
      <point x="244.4" y="533.65" type="curve" smooth="yes"/>
      <point x="90.15" y="533.65"/>
      <point x="15.199999999999998" y="346.40000000000003"/>
      <point x="15.199999999999998" y="172.8" type="curve" smooth="yes"/>
      <point x="15.199999999999998" y="43.449999999999996"/>
      <point x="81.65" y="-9.500000000000002"/>
      <point x="176.9" y="-9.500000000000002" type="curve" smooth="yes"/>
      <point x="309.1" y="-9.500000000000002"/>
      <point x="377.95" y="73.3"/>
      <point x="417.65" y="317.6" type="curve" smooth="yes"/>
      <point x="427.85" y="382.05"/>
      <point x="434.05" y="435.84999999999997"/>
      <point x="434.05" y="481.95000000000005" type="curve" smooth="yes"/>
      <point x="434.05" y="651.5"/>
      <point x="347.20000000000005" y="735.7499999999999"/>
      <point x="190.75" y="735.7499999999999" type="curve" smooth="yes"/>
      <point x="151.0" y="735.7499999999999"/>
      <point x="115.3" y="727.5"/>
      <point x="82.59999999999998" y="719.8" type="curve"/>
      <point x="85.05" y="640.6500000000001" type="line"/>
      <point x="109.9" y="645.1000000000001"/>
      <point x="133.3" y="650.6999999999999"/>
      <point x="170.1" y="650.6999999999999" type="curve" smooth="yes"/>
      <point x="277.55" y="650.6999999999999"/>
      <point x="323.3" y="607.55"/>
      <point x="323.3" y="503.25000000000006" type="curve" smooth="yes"/>
      <point x="323.3" y="461.24999999999994"/>
      <point x="319.29999999999995" y="408.45000000000005"/>
      <point x="308.09999999999997" y="340.6" type="curve" smooth="yes"/>
      <point x="272.79999999999995" y="126.55"/>
      <point x="238.70000000000002" y="76.35"/>
      <point x="185.10000000000002" y="76.35" type="curve" smooth="yes"/>
      <point x="145.85" y="76.35"/>
      <point x="123.20000000000002" y="103.05"/>
      <point x="123.20000000000002" y="157.5" type="curve" smooth="yes"/>
      <point x="123.20000000000002" y="277.05"/>
      <point x="173.8" y="447.2"/>
      <point x="260.8999999999999" y="447.2" type="curve" smooth="yes"/>
      <point x="285.25" y="447.2"/>
      <point x="311.44999999999993" y="439.3999999999999"/>
    </contour>
    <contour>
      <point x="183.10000000000002" y="555.3000000000001" type="line"/>
      <point x="328.0" y="641.8000000000001" type="line"/>
      <point x="325.5" y="645.8000000000001" type="line"/>
      <point x="479.50000000000006" y="738.0999999999999" type="line"/>
      <point x="377.4" y="738.1999999999999" type="line"/>
      <point x="280.09999999999997" y="679.9" type="line"/>
      <point x="283.25" y="676.15" type="line"/>
      <point x="82.8" y="555.3499999999999" type="line"/>
    </contour>
  </outline>
</glyph>
<glyph name="divide" format="2">
  <advance width="421.57000000000005"/>
  <unicode hex="00F7"/>
  <outline>
    <contour>
      <point x="130.59000000000003" y="116.15000000000002" type="curve" smooth="yes"/>
      <point x="129.69" y="88.93999999999998"/>
      <point x="144.24" y="75.89999999999999"/>
      <point x="178.34" y="75.89999999999999" type="curve" smooth="yes"/>
      <point x="220.64" y="75.89999999999999"/>
      <point x="242.68" y="96.67999999999998"/>
      <point x="244.48000000000002" y="148.83000000000004" type="curve" smooth="yes"/>
      <point x="245.38000000000002" y="176.49"/>
      <point x="229.95" y="188.98000000000002"/>
      <point x="197.36" y="188.98000000000002" type="curve" smooth="yes"/>
      <point x="153.21000000000004" y="188.98000000000002"/>
      <point x="132.39" y="161.05000000000004"/>
    </contour>
    <contour>
      <point x="188.18" y="472.05" type="curve" smooth="yes"/>
      <point x="187.28" y="445.31"/>
      <point x="201.26000000000002" y="432.34999999999997"/>
      <point x="235.38" y="432.34999999999997" type="curve" smooth="yes"/>
      <point x="277.70000000000005" y="432.34999999999997"/>
      <point x="299.78000000000003" y="453.61999999999995"/>
      <point x="301.58000000000004" y="504.77" type="curve" smooth="yes"/>
      <point x="302.48" y="532.9599999999999"/>
      <point x="287.44000000000005" y="545.43"/>
      <point x="254.38" y="545.43" type="curve" smooth="yes"/>
      <point x="208.59999999999997" y="545.43"/>
      <point x="189.98000000000002" y="515.3"/>
    </contour>
    <contour>
      <point x="43.29" y="259.75" type="line"/>
      <point x="373.7" y="259.75" type="line"/>
      <point x="390.35" y="362.1499999999999" type="line"/>
      <point x="59.489999999999995" y="362.1499999999999" type="line"/>
    </contour>
  </outline>
</glyph>
<glyph name="oslash" format="2">
  <advance width="423.40000000000003"/>
  <unicode hex="00F8"/>
  <anchor x="248.95" y="541.0" name="top"/>
  <outline>
    <contour>
      <point x="373.70000000000005" y="551.5500000000001" type="line"/>
      <point x="320.45000000000005" y="475.19999999999993" type="line"/>
      <point x="316.80000000000007" y="476.8" type="line"/>
      <point x="81.8" y="132.45000000000002" type="line"/>
      <point x="78.75" y="135.00000000000003" type="line"/>
      <point x="-22.549999999999997" y="-10.0" type="line"/>
      <point x="52.4" y="-10.0" type="line"/>
      <point x="111.5" y="73.95000000000002" type="line"/>
      <point x="115.60000000000001" y="72.35000000000001" type="line"/>
      <point x="348.6" y="413.45" type="line"/>
      <point x="351.20000000000005" y="410.90000000000003" type="line"/>
      <point x="448.8" y="551.5500000000001" type="line"/>
    </contour>
    <contour>
      <point x="189.25" y="-10.0" type="curve" smooth="yes"/>
      <point x="347.55" y="-10.0"/>
      <point x="405.7" y="201.0"/>
      <point x="405.7" y="379.55" type="curve" smooth="yes"/>
      <point x="405.7" y="499.05"/>
      <point x="350.05" y="551.5500000000001"/>
      <point x="239.25000000000003" y="551.5500000000001" type="curve" smooth="yes"/>
      <point x="77.85" y="551.5500000000001"/>
      <point x="20.55" y="334.3"/>
      <point x="20.55" y="161.54999999999998" type="curve" smooth="yes"/>
      <point x="20.55" y="42.95"/>
      <point x="74.85" y="-10.0"/>
    </contour>
    <contour>
      <point x="189.3" y="84.20000000000002" type="curve" smooth="yes"/>
      <point x="147.95000000000002" y="83.70000000000002"/>
      <point x="125.89999999999999" y="105.30000000000001"/>
      <point x="125.35" y="157.15" type="curve" smooth="yes"/>
      <point x="124.1" y="242.05000000000004"/>
      <point x="157.6" y="456.35"/>
      <point x="237.4" y="457.35" type="curve" smooth="yes"/>
      <point x="277.8" y="457.85"/>
      <point x="299.9" y="434.9"/>
      <point x="300.45" y="383.95000000000005" type="curve" smooth="yes"/>
      <point x="301.7" y="290.95000000000005"/>
      <point x="266.84999999999997" y="85.15"/>
    </contour>
  </outline>
</glyph>
<glyph name="thorn" format="2">
  <advance width="433.025"/>
  <unicode hex="00FE"/>
  <outline>
    <contour>
      <point x="-33.07000000000001" y="-210.0" type="line"/>
      <point x="77.14500000000001" y="-210.0" type="line"/>
      <point x="110.415" y="-0.74" type="line"/>
      <point x="128.565" y="-5.27"/>
      <point x="151.55499999999998" y="-9.175"/>
      <point x="180.735" y="-9.175" type="curve" smooth="yes"/>
      <point x="334.25000000000006" y="-9.175"/>
      <point x="416.74" y="173.05"/>
      <point x="416.74" y="375.045" type="curve" smooth="yes"/>
      <point x="416.74" y="495.14"/>
      <point x="381.38" y="551.0"/>
      <point x="303.97" y="551.0" type="curve" smooth="yes"/>
      <point x="254.545" y="551.0"/>
      <point x="221.28000000000003" y="530.6950000000002"/>
      <point x="190.975" y="508.425" type="curve"/>
      <point x="227.50500000000002" y="740.0" type="line"/>
      <point x="116.92999999999999" y="740.0" type="line"/>
    </contour>
    <contour>
      <point x="170.20499999999998" y="85.09" type="curve" smooth="yes"/>
      <point x="153.39000000000004" y="85.09"/>
      <point x="138.10000000000002" y="87.89000000000001"/>
      <point x="125.51500000000003" y="92.415" type="curve"/>
      <point x="177.985" y="422.9" type="line"/>
      <point x="198.67499999999998" y="436.435"/>
      <point x="224.535" y="446.01000000000005"/>
      <point x="246.795" y="446.01000000000005" type="curve" smooth="yes"/>
      <point x="284.7" y="446.01000000000005"/>
      <point x="303.41499999999996" y="419.0"/>
      <point x="303.41499999999996" y="354.905" type="curve" smooth="yes"/>
      <point x="303.41499999999996" y="223.75"/>
      <point x="251.95000000000002" y="85.09"/>
    </contour>
  </outline>
</glyph>
<glyph name="Dcroat" format="2">
  <advance width="509.28"/>
  <unicode hex="0110"/>
  <outline>
    <contour>
      <point x="13.77" y="305.47499999999997" type="line"/>
      <point x="263.40999999999997" y="305.47499999999997" type="line"/>
      <point x="280.63" y="405.46500000000003" type="line"/>
      <point x="30.93" y="405.46500000000003" type="line"/>
    </contour>
    <component base="D" xOffset="9.035"/>
  </outline>
</glyph>
<glyph name="dcroat" format="2">
  <advance width="442.635"/>
  <unicode hex="0111"/>
  <outline>
    <contour>
      <point x="218.35" y="612.435" type="line"/>
      <point x="494.81" y="612.435" type="line"/>
      <point x="505.33000000000004" y="675.56" type="line"/>
      <point x="229.17499999999998" y="675.56" type="line"/>
    </contour>
    <component base="d"/>
  </outline>
</glyph>
<glyph name="Hbar" format="2">
  <advance width="509.48"/>
  <unicode hex="0126"/>
  <outline>
    <contour>
      <point x="41.58" y="500.17" type="line"/>
      <point x="539.79" y="500.17" type="line"/>
      <point x="554.31" y="590.86" type="line"/>
      <point x="56.1" y="590.86" type="line"/>
    </contour>
    <component base="H" xOffset="2.7600000000000002"/>
  </outline>
</glyph>
<glyph name="hbar" format="2">
  <advance width="438.37"/>
  <unicode hex="0127"/>
  <outline>
    <contour>
      <point x="51.699999999999996" y="612.435" type="line"/>
      <point x="305.715" y="612.435" type="line"/>
      <point x="315.785" y="675.56" type="line"/>
      <point x="61.769999999999996" y="675.56" type="line"/>
    </contour>
    <component base="h" xOffset="2.7700000000000005"/>
  </outline>
</glyph>
<glyph name="Idotaccent" format="2">
  <advance width="205.17000000000002"/>
  <unicode hex="0130"/>
  <outline>
    <contour>
      <point x="202.21" y="898.1500000000001" type="curve" smooth="yes"/>
      <point x="146.83" y="898.1500000000001"/>
      <point x="125.92" y="860.8"/>
      <point x="124.75000000000001" y="810.0" type="curve" smooth="yes"/>
      <point x="124.39000000000001" y="776.7900000000001"/>
      <point x="143.12" y="761.41"/>
      <point x="179.06" y="761.41" type="curve" smooth="yes"/>
      <point x="232.24999999999997" y="761.41"/>
      <point x="255.32999999999998" y="798.1"/>
      <point x="256.59" y="850.2" type="curve" smooth="yes"/>
      <point x="256.95" y="883.21"/>
      <point x="238.05" y="898.1500000000001"/>
    </contour>
    <component base="I"/>
  </outline>
</glyph>
<glyph name="dotlessi" format="2">
  <advance width="197.37"/>
  <unicode hex="0131"/>
  <anchor x="54.72884" y="0.0" name="bottom"/>
  <anchor x="110.55000000000001" y="0.0" name="ogonek"/>
  <anchor x="140.48116" y="541.0" name="top"/>
  <outline>
    <contour>
      <point x="110.55000000000001" y="0.0" type="line"/>
      <point x="196.09" y="541.0" type="line"/>
      <point x="85.13" y="541.0" type="line"/>
      <point x="-0.27000000000000135" y="0.11000000000000001" type="line"/>
    </contour>
  </outline>
</glyph>
<glyph name="Ldot" format="2">
  <advance width="383.89"/>
  <unicode hex="013F"/>
  <outline>
    <contour>
      <point x="261.88912" y="371.95328" type="curve" smooth="yes"/>
      <point x="261.07912" y="344.14288"/>
      <point x="272.98128" y="331.79116"/>
      <point x="303.1682" y="331.79116" type="curve" smooth="yes"/>
      <point x="345.14684000000005" y="331.79116"/>
      <point x="360.22551999999996" y="364.61195999999995"/>
      <point x="361.21552" y="401.40496" type="curve" smooth="yes"/>
      <point x="362.02552" y="428.48884000000004"/>
      <point x="350.48336000000006" y="441.20056"/>
      <point x="320.69948" y="441.20056" type="curve" smooth="yes"/>
      <point x="279.12432" y="441.20056"/>
      <point x="262.87911999999994" y="408.30627999999996"/>
    </contour>
    <component base="L"/>
  </outline>
</glyph>
<glyph name="ldot" format="2">
  <advance width="289.98"/>
  <unicode hex="0140"/>
  <outline>
    <contour>
      <point x="218.82035" y="359.3686" type="curve" smooth="yes"/>
      <point x="218.01035000000002" y="333.93112"/>
      <point x="227.74639" y="322.92162"/>
      <point x="253.32101000000003" y="322.92162" type="curve" smooth="yes"/>
      <point x="289.99467999999996" y="322.92162"/>
      <point x="301.67150000000004" y="353.91191"/>
      <point x="302.6615" y="387.25014" type="curve" smooth="yes"/>
      <point x="303.47150000000005" y="411.8980700000001"/>
      <point x="294.09545999999995" y="423.26757000000003"/>
      <point x="268.87075000000004" y="423.26757000000003" type="curve" smooth="yes"/>
      <point x="232.54644" y="423.26757000000003"/>
      <point x="219.81035" y="392.40906"/>
    </contour>
    <component base="l"/>
  </outline>
</glyph>
<glyph name="Lslash" format="2">
  <advance width="395.84000000000003"/>
  <unicode hex="0141"/>
  <outline>
    <contour>
      <point x="13.0" y="0.0" type="line"/>
      <point x="339.79" y="0.0" type="line"/>
      <point x="356.54" y="102.82000000000001" type="line"/>
      <point x="141.92" y="102.82000000000001" type="line"/>
      <point x="173.14" y="299.84000000000003" type="line"/>
      <point x="317.78000000000003" y="388.22999999999996" type="line"/>
      <point x="336.40999999999997" y="499.45000000000005" type="line"/>
      <point x="190.89" y="410.62" type="line"/>
      <point x="237.27" y="700.0" type="line"/>
      <point x="124.88" y="700.0" type="line"/>
      <point x="68.99" y="350.96999999999997" type="line"/>
      <point x="17.32" y="319.02" type="line"/>
      <point x="-0.1299999999999999" y="207.99" type="line"/>
      <point x="50.88" y="239.83" type="line"/>
    </contour>
  </outline>
</glyph>
<glyph name="lslash" format="2">
  <advance width="236.8"/>
  <unicode hex="0142"/>
  <outline>
    <contour>
      <point x="-2.2199999999999998" y="201.58999999999997" type="line"/>
      <point x="242.75000000000003" y="379.51" type="line"/>
      <point x="258.41" y="478.57000000000005" type="line"/>
      <point x="12.89" y="300.65000000000003" type="line"/>
    </contour>
    <component base="l" xOffset="8.8"/>
  </outline>
</glyph>
<glyph name="Eng" format="2">
  <advance width="501.4749999999999"/>
  <unicode hex="014A"/>
  <outline>
    <contour>
      <point x="1.274999999999999" y="0.0" type="line"/>
      <point x="106.725" y="0.0" type="line"/>
      <point x="178.7" y="451.7" type="line"/>
      <point x="305.20000000000005" y="-2.35" type="line"/>
      <point x="296.57500000000005" y="-55.400000000000006"/>
      <point x="268.55" y="-73.14999999999999"/>
      <point x="228.75" y="-73.14999999999999" type="curve" smooth="yes"/>
      <point x="213.52499999999998" y="-74.04999999999998"/>
      <point x="197.65" y="-73.27499999999999"/>
      <point x="178.67499999999998" y="-68.69999999999999" type="curve"/>
      <point x="159.2" y="-179.3" type="line"/>
      <point x="181.175" y="-185.025"/>
      <point x="206.325" y="-186.825"/>
      <point x="225.575" y="-186.825" type="curve" smooth="yes"/>
      <point x="331.175" y="-185.025"/>
      <point x="391.65000000000003" y="-126.95"/>
      <point x="410.775" y="-4.600000000000001" type="curve" smooth="yes"/>
      <point x="523.425" y="700.0" type="line"/>
      <point x="417.875" y="700.0" type="line"/>
      <point x="343.375" y="233.475" type="line"/>
      <point x="221.87499999999997" y="700.9" type="line"/>
      <point x="112.60000000000001" y="700.9" type="line"/>
    </contour>
  </outline>
</glyph>
<glyph name="eng" format="2">
  <advance width="431.42"/>
  <unicode hex="014B"/>
  <outline>
    <contour>
      <point x="339.82" y="-15.879999999999992" type="curve" smooth="yes"/>
      <point x="371.41" y="187.49999999999997"/>
      <point x="415.82000000000005" y="442.4"/>
      <point x="415.82000000000005" y="460.21" type="curve" smooth="yes"/>
      <point x="415.82000000000005" y="515.8000000000001"/>
      <point x="381.76000000000005" y="551.0"/>
      <point x="317.66" y="551.0" type="curve" smooth="yes"/>
      <point x="272.20000000000005" y="551.0"/>
      <point x="229.09000000000003" y="536.03"/>
      <point x="179.36" y="503.99000000000007" type="curve"/>
      <point x="185.09" y="541.0" type="line"/>
      <point x="85.02" y="541.0" type="line"/>
      <point x="-0.5400000000000009" y="0.0" type="line"/>
      <point x="109.51" y="0.0" type="line"/>
      <point x="177.68" y="423.45000000000005" type="line"/>
      <point x="204.05" y="438.33000000000004"/>
      <point x="230.18" y="448.57000000000005"/>
      <point x="254.89" y="448.57000000000005" type="curve" smooth="yes"/>
      <point x="285.19" y="448.57000000000005"/>
      <point x="299.29" y="434.60999999999996"/>
      <point x="298.40999999999997" y="408.46" type="curve" smooth="yes"/>
      <point x="297.09" y="393.92"/>
      <point x="288.59" y="342.37999999999994"/>
      <point x="231.51" y="-15.499999999999995" type="curve" smooth="yes"/>
      <point x="222.93" y="-69.22"/>
      <point x="206.13" y="-103.88"/>
      <point x="169.53000000000003" y="-103.88" type="curve" smooth="yes"/>
      <point x="163.59" y="-103.88"/>
      <point x="156.78" y="-103.33999999999999"/>
      <point x="148.97000000000003" y="-100.75" type="curve"/>
      <point x="124.39000000000001" y="-214.66" type="line"/>
      <point x="139.38" y="-218.26000000000002"/>
      <point x="160.93" y="-220.54"/>
      <point x="182.76999999999998" y="-220.54" type="curve" smooth="yes"/>
      <point x="260.35" y="-220.54"/>
      <point x="318.66" y="-167.15"/>
    </contour>
  </outline>
</glyph>
<glyph name="OE" format="2">
  <advance width="710.7249999999999"/>
  <unicode hex="0152"/>
  <outline>
    <contour>
      <point x="648.1999999999999" y="0.0" type="line"/>
      <point x="664.85" y="102.92500000000001" type="line"/>
      <point x="424.125" y="102.92500000000001" type="line"/>
      <point x="455.69999999999993" y="306.15" type="line"/>
      <point x="663.125" y="306.15" type="line"/>
      <point x="680.0249999999999" y="405.525" type="line"/>
      <point x="472.15000000000003" y="405.525" type="line"/>
      <point x="502.55" y="595.5499999999998" type="line"/>
      <point x="730.1" y="595.5499999999998" type="line"/>
      <point x="747.5249999999999" y="700.0" type="line"/>
      <point x="516.5" y="700.0" type="line"/>
      <point x="466.875" y="704.3249999999999"/>
      <point x="406.34999999999997" y="710.0"/>
      <point x="349.375" y="710.0" type="curve" smooth="yes"/>
      <point x="137.8" y="710.0"/>
      <point x="28.674999999999997" y="463.75000000000006"/>
      <point x="28.674999999999997" y="209.275" type="curve" smooth="yes"/>
      <point x="28.674999999999997" y="61.05000000000001"/>
      <point x="90.65" y="-10.0"/>
      <point x="245.22500000000002" y="-10.0" type="curve" smooth="yes"/>
      <point x="290.45" y="-10.0"/>
      <point x="339.1749999999999" y="-6.324999999999999"/>
      <point x="400.025" y="0.0" type="curve"/>
    </contour>
    <contour>
      <point x="310.1" y="94.65" type="line"/>
      <point x="288.75" y="91.525"/>
      <point x="268.3" y="90.075"/>
      <point x="245.075" y="90.075" type="curve" smooth="yes"/>
      <point x="172.1" y="90.075"/>
      <point x="141.025" y="136.00000000000003"/>
      <point x="141.025" y="218.75" type="curve" smooth="yes"/>
      <point x="141.025" y="408.9"/>
      <point x="218.725" y="607.125"/>
      <point x="328.37500000000006" y="607.125" type="curve" smooth="yes"/>
      <point x="347.8" y="607.125"/>
      <point x="377.925" y="604.2749999999999"/>
      <point x="391.125" y="602.8750000000001" type="curve"/>
    </contour>
  </outline>
</glyph>
<glyph name="oe" format="2">
  <advance width="673.4499999999999"/>
  <unicode hex="0153"/>
  <outline>
    <contour>
      <point x="184.10000000000002" y="-10.0" type="curve" smooth="yes"/>
      <point x="246.6" y="-10.0"/>
      <point x="293.2" y="30.35"/>
      <point x="318.95000000000005" y="74.05" type="curve"/>
      <point x="346.65" y="21.75"/>
      <point x="394.05" y="-10.0"/>
      <point x="464.65000000000003" y="-10.0" type="curve" smooth="yes"/>
      <point x="516.9000000000001" y="-10.0"/>
      <point x="575.1500000000001" y="1.1"/>
      <point x="620.8" y="22.900000000000002" type="curve"/>
      <point x="602.85" y="119.80000000000001" type="line"/>
      <point x="557.85" y="101.7"/>
      <point x="513.7" y="92.85000000000002"/>
      <point x="482.15" y="92.85000000000002" type="curve" smooth="yes"/>
      <point x="422.15" y="92.85000000000002"/>
      <point x="392.15000000000003" y="125.0"/>
      <point x="392.15000000000003" y="207.1" type="curve" smooth="yes"/>
      <point x="392.15000000000003" y="356.35"/>
      <point x="449.65000000000003" y="456.75"/>
      <point x="518.55" y="456.75" type="curve" smooth="yes"/>
      <point x="550.25" y="456.75"/>
      <point x="566.95" y="443.69999999999993"/>
      <point x="566.95" y="412.65" type="curve" smooth="yes"/>
      <point x="566.95" y="363.50000000000006"/>
      <point x="526.25" y="327.8"/>
      <point x="457.95" y="305.70000000000005" type="curve" smooth="yes"/>
      <point x="430.95" y="296.99999999999994"/>
      <point x="400.70000000000005" y="292.15000000000003"/>
      <point x="372.05" y="292.35" type="curve"/>
      <point x="359.20000000000005" y="212.25" type="line"/>
      <point x="398.84999999999997" y="211.5"/>
      <point x="442.15000000000003" y="216.89999999999998"/>
      <point x="483.90000000000003" y="227.85000000000002" type="curve" smooth="yes"/>
      <point x="600.5" y="258.65"/>
      <point x="673.8" y="334.9"/>
      <point x="673.8" y="431.65000000000003" type="curve" smooth="yes"/>
      <point x="673.8" y="504.15"/>
      <point x="624.3" y="551.0"/>
      <point x="533.3000000000001" y="551.0" type="curve" smooth="yes"/>
      <point x="464.90000000000003" y="551.0"/>
      <point x="412.20000000000005" y="518.75"/>
      <point x="375.0" y="473.90000000000003" type="curve"/>
      <point x="356.35" y="523.4"/>
      <point x="309.85" y="551.5500000000001"/>
      <point x="237.6" y="551.5500000000001" type="curve" smooth="yes"/>
      <point x="76.19999999999999" y="551.5500000000001"/>
      <point x="18.0" y="333.85"/>
      <point x="18.0" y="163.79999999999998" type="curve" smooth="yes"/>
      <point x="18.0" y="45.65"/>
      <point x="70.2" y="-10.0"/>
    </contour>
    <contour>
      <point x="187.6" y="86.50000000000001" type="curve" smooth="yes"/>
      <point x="147.9" y="86.45000000000002"/>
      <point x="127.35000000000001" y="105.55000000000001"/>
      <point x="126.8" y="157.55" type="curve" smooth="yes"/>
      <point x="125.70000000000002" y="244.39999999999998"/>
      <point x="161.65" y="454.49999999999994"/>
      <point x="234.0" y="455.05" type="curve" smooth="yes"/>
      <point x="272.75" y="455.1"/>
      <point x="293.75000000000006" y="435.09999999999997"/>
      <point x="294.3" y="383.65000000000003" type="curve" smooth="yes"/>
      <point x="295.4" y="295.2"/>
      <point x="257.65000000000003" y="87.05"/>
    </contour>
  </outline>
</glyph>
